{"glyphs":{"0":{"ha":991,"x_min":0,"x_max":0,"o":"m 496 -22 b 919 499 778 -22 919 152 b 496 1020 919 846 778 1020 b 72 499 213 1020 72 846 b 496 -22 72 152 213 -22 z m 496 182 b 318 499 377 182 318 288 b 496 817 318 711 377 817 b 673 499 614 817 673 711 b 496 182 673 288 614 182 z "},"1":{"ha":682,"x_min":0,"x_max":0,"o":"m 289 0 l 544 0 l 544 998 l 335 998 b 45 821 335 892 218 821 l 45 640 b 289 680 137 640 220 654 z "},"2":{"ha":991,"x_min":0,"x_max":0,"o":"m 105 0 l 885 0 l 885 212 l 500 212 b 597 294 526 241 561 267 b 885 700 736 398 885 513 b 503 1020 885 891 733 1020 b 121 629 275 1020 121 863 l 359 629 b 503 808 359 736 416 808 b 630 700 587 808 630 765 b 398 408 630 581 518 498 b 105 0 258 302 105 189 z "},"3":{"ha":991,"x_min":0,"x_max":0,"o":"m 496 -22 b 901 297 739 -22 901 105 b 749 526 901 410 846 484 b 863 743 821 576 863 650 b 496 1020 863 908 718 1020 b 128 699 275 1020 128 891 l 367 699 b 493 817 367 770 417 817 b 608 722 568 817 608 787 b 488 601 608 657 569 601 l 416 601 l 416 425 l 496 425 b 646 305 586 425 646 381 b 493 182 646 227 591 182 b 328 338 395 182 328 245 l 90 338 b 496 -22 90 123 252 -22 z "},"4":{"ha":991,"x_min":0,"x_max":0,"o":"m 532 0 l 769 0 l 769 225 l 915 225 l 915 410 l 769 410 l 769 998 l 532 998 l 76 407 l 76 225 l 532 225 z m 314 410 l 532 696 l 532 410 z "},"5":{"ha":991,"x_min":0,"x_max":0,"o":"m 496 -22 b 898 325 737 -22 898 117 b 535 671 898 532 738 671 b 363 626 464 671 408 655 l 387 795 l 829 795 l 829 998 l 190 998 l 111 437 l 336 437 b 488 490 392 480 433 490 b 643 325 585 490 643 424 b 496 182 643 239 584 182 b 336 299 399 182 351 228 l 94 299 b 496 -22 119 106 254 -22 z "},"6":{"ha":991,"x_min":0,"x_max":0,"o":"m 508 -22 b 905 328 746 -22 905 118 b 555 677 905 536 747 677 b 347 602 454 677 388 650 b 351 642 348 615 349 629 b 508 828 371 766 423 828 b 629 753 581 828 614 800 l 867 753 b 508 1020 842 912 724 1020 b 86 499 227 1020 86 846 b 508 -22 86 152 227 -22 z m 508 182 b 367 340 423 182 367 240 b 508 496 367 429 423 496 b 650 340 594 496 650 429 b 508 182 650 240 593 182 z "},"7":{"ha":991,"x_min":0,"x_max":0,"o":"m 268 0 l 523 0 b 877 779 523 311 664 577 l 877 998 l 115 998 l 115 779 l 594 779 b 268 0 399 583 268 311 z "},"8":{"ha":991,"x_min":0,"x_max":0,"o":"m 496 -22 b 917 296 749 -22 917 105 b 757 526 917 399 848 477 b 873 722 825 571 873 637 b 496 1020 873 900 724 1020 b 118 722 269 1020 118 901 b 235 526 118 637 166 571 b 75 296 142 477 75 399 b 496 -22 75 106 243 -22 z m 496 614 b 362 722 415 614 362 657 b 496 831 362 788 415 831 b 629 722 576 831 629 788 b 496 614 629 657 576 614 z m 496 167 b 330 296 396 167 330 218 b 496 425 330 374 396 425 b 662 296 595 425 662 373 b 496 167 662 218 595 167 z "},"9":{"ha":991,"x_min":0,"x_max":0,"o":"m 484 -22 b 905 499 764 -22 905 152 b 483 1020 905 846 764 1020 b 86 670 245 1020 86 880 b 436 321 86 462 244 321 b 645 397 538 321 603 349 b 640 357 644 383 642 370 b 484 170 620 232 568 170 b 362 245 410 170 377 198 l 124 245 b 484 -22 149 86 267 -22 z m 483 503 b 341 658 397 503 341 569 b 483 817 341 758 397 817 b 625 658 568 817 625 758 b 483 503 625 569 568 503 z "},"A":{"ha":1055,"x_min":0,"x_max":0,"o":"m 28 0 l 275 0 l 343 189 l 711 189 l 780 0 l 1026 0 l 654 998 l 399 998 z m 416 395 l 527 704 l 638 395 z "},"Á":{"ha":1055,"x_min":0,"x_max":0,"o":"m 406 1095 l 625 1095 l 761 1331 l 542 1331 z m 28 0 l 275 0 l 343 189 l 711 189 l 780 0 l 1026 0 l 654 998 l 399 998 z m 416 395 l 527 704 l 638 395 z "},"À":{"ha":1055,"x_min":0,"x_max":0,"o":"m 429 1095 l 648 1095 l 512 1331 l 293 1331 z m 28 0 l 275 0 l 343 189 l 711 189 l 780 0 l 1026 0 l 654 998 l 399 998 z m 416 395 l 527 704 l 638 395 z "},"Ă":{"ha":1055,"x_min":0,"x_max":0,"o":"m 527 1084 b 800 1320 690 1084 800 1179 l 652 1320 b 527 1231 652 1267 602 1231 b 401 1320 452 1231 401 1267 l 254 1320 b 527 1084 254 1179 363 1084 z m 28 0 l 275 0 l 343 189 l 711 189 l 780 0 l 1026 0 l 654 998 l 399 998 z m 416 395 l 527 704 l 638 395 z "},"Â":{"ha":1055,"x_min":0,"x_max":0,"o":"m 220 1095 l 433 1095 l 527 1204 l 621 1095 l 833 1095 l 603 1331 l 451 1331 z m 28 0 l 275 0 l 343 189 l 711 189 l 780 0 l 1026 0 l 654 998 l 399 998 z m 416 395 l 527 704 l 638 395 z "},"Å":{"ha":1055,"x_min":0,"x_max":0,"o":"m 527 1074 b 732 1278 650 1074 732 1156 b 527 1482 732 1400 650 1482 b 322 1278 404 1482 322 1401 b 527 1074 322 1156 404 1074 z m 527 1193 b 441 1278 475 1193 441 1227 b 527 1363 441 1329 475 1363 b 612 1278 578 1363 612 1329 b 527 1193 612 1227 578 1193 z m 28 0 l 275 0 l 343 189 l 711 189 l 780 0 l 1026 0 l 654 998 l 399 998 z m 416 395 l 527 704 l 638 395 z "},"Ǻ":{"ha":1055,"x_min":0,"x_max":0,"o":"m 406 1585 l 625 1585 l 761 1820 l 542 1820 z m 527 1078 b 732 1283 650 1078 732 1160 b 527 1488 732 1404 650 1488 b 322 1283 404 1488 322 1406 b 527 1078 322 1160 404 1078 z m 527 1198 b 441 1283 475 1198 441 1232 b 527 1368 441 1334 475 1368 b 612 1283 578 1368 612 1333 b 527 1198 612 1232 578 1198 z m 28 0 l 275 0 l 343 189 l 711 189 l 780 0 l 1026 0 l 654 998 l 399 998 z m 416 395 l 527 704 l 638 395 z "},"Ä":{"ha":1055,"x_min":0,"x_max":0,"o":"m 368 1099 b 489 1220 435 1099 489 1153 b 368 1340 489 1286 435 1340 b 248 1220 301 1340 248 1286 b 368 1099 248 1153 301 1099 z m 686 1099 b 806 1220 753 1099 806 1153 b 686 1340 806 1286 753 1340 b 565 1220 618 1340 565 1286 b 686 1099 565 1153 618 1099 z m 28 0 l 275 0 l 343 189 l 711 189 l 780 0 l 1026 0 l 654 998 l 399 998 z m 416 395 l 527 704 l 638 395 z "},"Ã":{"ha":1055,"x_min":0,"x_max":0,"o":"m 627 1084 b 840 1320 755 1084 840 1179 l 694 1320 b 627 1231 694 1267 667 1231 b 554 1272 600 1231 578 1250 b 427 1331 522 1299 486 1331 b 214 1095 299 1331 214 1236 l 360 1095 b 427 1184 360 1148 387 1184 b 500 1143 454 1184 475 1165 b 627 1084 532 1116 568 1084 z m 28 0 l 275 0 l 343 189 l 711 189 l 780 0 l 1026 0 l 654 998 l 399 998 z m 416 395 l 527 704 l 638 395 z "},"Ạ":{"ha":1055,"x_min":0,"x_max":0,"o":"m 28 0 l 275 0 l 343 189 l 711 189 l 780 0 l 1026 0 l 654 998 l 399 998 z m 416 395 l 527 704 l 638 395 z m 527 -346 b 656 -217 598 -346 656 -288 b 527 -88 656 -146 598 -88 b 398 -217 456 -88 398 -146 b 527 -346 398 -288 456 -346 z "},"Ą":{"ha":1055,"x_min":0,"x_max":0,"o":"m 861 -250 b 893 -158 861 -224 872 -192 b 1026 0 923 -111 970 -56 l 654 998 l 399 998 l 28 0 l 275 0 l 343 189 l 711 189 l 780 0 l 859 0 b 745 -139 800 -60 766 -98 b 714 -262 724 -177 714 -216 b 918 -425 714 -359 787 -425 l 1004 -425 l 1004 -302 l 918 -302 b 861 -250 880 -302 861 -282 z m 416 395 l 527 704 l 638 395 z "},"Ā":{"ha":1055,"x_min":0,"x_max":0,"o":"m 275 1103 l 779 1103 l 779 1250 l 275 1250 z m 28 0 l 275 0 l 343 189 l 711 189 l 780 0 l 1026 0 l 654 998 l 399 998 z m 416 395 l 527 704 l 638 395 z "},"Æ":{"ha":1517,"x_min":0,"x_max":0,"o":"m 28 0 l 275 0 l 343 189 l 654 189 l 654 0 l 1455 0 l 1455 220 l 909 220 l 909 396 l 1378 396 l 1378 602 l 909 602 l 909 779 l 1442 779 l 1442 998 l 399 998 z m 416 395 l 554 779 l 654 779 l 654 395 z "},"Ǽ":{"ha":1517,"x_min":0,"x_max":0,"o":"m 800 1095 l 1019 1095 l 1154 1331 l 935 1331 z m 28 0 l 275 0 l 343 189 l 654 189 l 654 0 l 1455 0 l 1455 220 l 909 220 l 909 396 l 1378 396 l 1378 602 l 909 602 l 909 779 l 1442 779 l 1442 998 l 399 998 z m 416 395 l 554 779 l 654 779 l 654 395 z "},"B":{"ha":1012,"x_min":0,"x_max":0,"o":"m 93 0 l 649 0 b 944 311 825 0 944 125 b 819 528 944 420 895 490 b 901 708 869 566 901 625 b 625 998 901 882 790 998 l 93 998 z m 348 610 l 348 795 l 568 795 b 646 703 619 795 646 758 b 568 610 646 648 619 610 z m 348 203 l 348 429 l 595 429 b 689 316 658 429 689 383 b 595 203 689 249 658 203 z "},"C":{"ha":1039,"x_min":0,"x_max":0,"o":"m 547 -22 b 994 380 814 -22 963 139 l 739 380 b 547 190 720 266 662 190 b 319 499 411 190 319 314 b 547 808 319 684 411 808 b 739 618 662 808 720 732 l 994 618 b 547 1020 963 859 814 1020 b 64 499 258 1020 64 811 b 547 -22 64 187 258 -22 z "},"Ć":{"ha":1039,"x_min":0,"x_max":0,"o":"m 427 1095 l 646 1095 l 781 1331 l 562 1331 z m 547 -22 b 994 380 814 -22 963 139 l 739 380 b 547 190 720 266 662 190 b 319 499 411 190 319 314 b 547 808 319 684 411 808 b 739 618 662 808 720 732 l 994 618 b 547 1020 963 859 814 1020 b 64 499 258 1020 64 811 b 547 -22 64 187 258 -22 z "},"Ĉ":{"ha":1039,"x_min":0,"x_max":0,"o":"m 241 1095 l 454 1095 l 547 1204 l 641 1095 l 854 1095 l 623 1331 l 471 1331 z m 547 -22 b 994 380 814 -22 963 139 l 739 380 b 547 190 720 266 662 190 b 319 499 411 190 319 314 b 547 808 319 684 411 808 b 739 618 662 808 720 732 l 994 618 b 547 1020 963 859 814 1020 b 64 499 258 1020 64 811 b 547 -22 64 187 258 -22 z "},"Č":{"ha":1039,"x_min":0,"x_max":0,"o":"m 471 1097 l 623 1097 l 854 1332 l 641 1332 l 547 1223 l 454 1332 l 241 1332 z m 547 -22 b 994 380 814 -22 963 139 l 739 380 b 547 190 720 266 662 190 b 319 499 411 190 319 314 b 547 808 319 684 411 808 b 739 618 662 808 720 732 l 994 618 b 547 1020 963 859 814 1020 b 64 499 258 1020 64 811 b 547 -22 64 187 258 -22 z "},"Ċ":{"ha":1039,"x_min":0,"x_max":0,"o":"m 547 1091 b 676 1220 618 1091 676 1148 b 547 1349 676 1291 618 1349 b 418 1220 476 1349 418 1291 b 547 1091 418 1148 476 1091 z m 547 -22 b 994 380 814 -22 963 139 l 739 380 b 547 190 720 266 662 190 b 319 499 411 190 319 314 b 547 808 319 684 411 808 b 739 618 662 808 720 732 l 994 618 b 547 1020 963 859 814 1020 b 64 499 258 1020 64 811 b 547 -22 64 187 258 -22 z "},"Ç":{"ha":1039,"x_min":0,"x_max":0,"o":"m 547 190 b 319 499 411 190 319 314 b 547 808 319 684 411 808 b 739 618 662 808 720 732 l 994 618 b 547 1020 963 859 814 1020 b 64 499 258 1020 64 811 b 472 -17 64 215 225 16 l 424 -99 l 424 -221 l 510 -221 b 568 -262 548 -221 568 -237 b 510 -302 568 -286 548 -302 l 424 -302 l 424 -425 l 510 -425 b 714 -262 640 -425 714 -359 b 587 -108 714 -185 669 -128 b 557 -102 577 -105 567 -103 l 606 -19 b 994 380 836 3 965 157 l 739 380 b 547 190 720 266 662 190 z "},"D":{"ha":1042,"x_min":0,"x_max":0,"o":"m 93 0 l 541 0 b 983 499 806 0 983 200 b 541 998 983 798 806 998 l 93 998 z m 348 220 l 348 779 l 541 779 b 728 499 653 779 728 666 b 541 220 728 332 653 220 z "},"Ď":{"ha":1042,"x_min":0,"x_max":0,"o":"m 399 1097 l 551 1097 l 782 1332 l 569 1332 l 475 1223 l 382 1332 l 169 1332 z m 93 0 l 541 0 b 983 499 806 0 983 200 b 541 998 983 798 806 998 l 93 998 z m 348 220 l 348 779 l 541 779 b 728 499 653 779 728 666 b 541 220 728 332 653 220 z "},"Ð":{"ha":1145,"x_min":0,"x_max":0,"o":"m 195 0 l 643 0 b 1086 499 908 0 1086 200 b 644 998 1086 798 908 998 l 195 998 l 195 602 l 28 602 l 28 396 l 195 396 z m 450 220 l 450 396 l 656 396 l 656 602 l 450 602 l 450 779 l 644 779 b 831 499 756 779 831 666 b 643 220 831 332 756 220 z "},"Đ":{"ha":1145,"x_min":0,"x_max":0,"o":"m 195 0 l 643 0 b 1086 499 908 0 1086 200 b 644 998 1086 798 908 998 l 195 998 l 195 602 l 28 602 l 28 396 l 195 396 z m 450 220 l 450 396 l 656 396 l 656 602 l 450 602 l 450 779 l 644 779 b 831 499 756 779 831 666 b 643 220 831 332 756 220 z "},"E":{"ha":956,"x_min":0,"x_max":0,"o":"m 93 0 l 895 0 l 895 220 l 348 220 l 348 396 l 817 396 l 817 602 l 348 602 l 348 779 l 881 779 l 881 998 l 93 998 z "},"É":{"ha":956,"x_min":0,"x_max":0,"o":"m 366 1095 l 585 1095 l 721 1331 l 502 1331 z m 93 0 l 895 0 l 895 220 l 348 220 l 348 396 l 817 396 l 817 602 l 348 602 l 348 779 l 881 779 l 881 998 l 93 998 z "},"È":{"ha":956,"x_min":0,"x_max":0,"o":"m 389 1095 l 608 1095 l 472 1331 l 253 1331 z m 93 0 l 895 0 l 895 220 l 348 220 l 348 396 l 817 396 l 817 602 l 348 602 l 348 779 l 881 779 l 881 998 l 93 998 z "},"Ĕ":{"ha":956,"x_min":0,"x_max":0,"o":"m 487 1084 b 760 1320 650 1084 760 1179 l 612 1320 b 487 1231 612 1267 562 1231 b 361 1320 412 1231 361 1267 l 214 1320 b 487 1084 214 1179 323 1084 z m 93 0 l 895 0 l 895 220 l 348 220 l 348 396 l 817 396 l 817 602 l 348 602 l 348 779 l 881 779 l 881 998 l 93 998 z "},"Ê":{"ha":956,"x_min":0,"x_max":0,"o":"m 180 1095 l 393 1095 l 487 1204 l 581 1095 l 793 1095 l 563 1331 l 411 1331 z m 93 0 l 895 0 l 895 220 l 348 220 l 348 396 l 817 396 l 817 602 l 348 602 l 348 779 l 881 779 l 881 998 l 93 998 z "},"Ě":{"ha":956,"x_min":0,"x_max":0,"o":"m 411 1097 l 563 1097 l 793 1332 l 581 1332 l 487 1223 l 393 1332 l 180 1332 z m 93 0 l 895 0 l 895 220 l 348 220 l 348 396 l 817 396 l 817 602 l 348 602 l 348 779 l 881 779 l 881 998 l 93 998 z "},"Ë":{"ha":956,"x_min":0,"x_max":0,"o":"m 328 1099 b 449 1220 395 1099 449 1153 b 328 1340 449 1286 395 1340 b 208 1220 261 1340 208 1286 b 328 1099 208 1153 261 1099 z m 646 1099 b 766 1220 713 1099 766 1153 b 646 1340 766 1286 713 1340 b 525 1220 578 1340 525 1286 b 646 1099 525 1153 578 1099 z m 93 0 l 895 0 l 895 220 l 348 220 l 348 396 l 817 396 l 817 602 l 348 602 l 348 779 l 881 779 l 881 998 l 93 998 z "},"Ẽ":{"ha":956,"x_min":0,"x_max":0,"o":"m 587 1084 b 800 1320 715 1084 800 1179 l 654 1320 b 587 1231 654 1267 627 1231 b 514 1272 560 1231 538 1250 b 387 1331 482 1299 446 1331 b 174 1095 259 1331 174 1236 l 320 1095 b 387 1184 320 1148 347 1184 b 460 1143 414 1184 435 1165 b 587 1084 492 1116 528 1084 z m 93 0 l 895 0 l 895 220 l 348 220 l 348 396 l 817 396 l 817 602 l 348 602 l 348 779 l 881 779 l 881 998 l 93 998 z "},"Ė":{"ha":956,"x_min":0,"x_max":0,"o":"m 487 1091 b 616 1220 558 1091 616 1148 b 487 1349 616 1291 558 1349 b 358 1220 416 1349 358 1291 b 487 1091 358 1148 416 1091 z m 93 0 l 895 0 l 895 220 l 348 220 l 348 396 l 817 396 l 817 602 l 348 602 l 348 779 l 881 779 l 881 998 l 93 998 z "},"Ẹ":{"ha":956,"x_min":0,"x_max":0,"o":"m 93 0 l 895 0 l 895 220 l 348 220 l 348 396 l 817 396 l 817 602 l 348 602 l 348 779 l 881 779 l 881 998 l 93 998 z m 494 -346 b 623 -217 565 -346 623 -288 b 494 -88 623 -146 565 -88 b 365 -217 422 -88 365 -146 b 494 -346 365 -288 422 -346 z "},"Ę":{"ha":956,"x_min":0,"x_max":0,"o":"m 895 0 l 895 220 l 348 220 l 348 396 l 817 396 l 817 602 l 348 602 l 348 779 l 881 779 l 881 998 l 93 998 l 93 0 l 727 0 b 613 -139 668 -60 635 -98 b 583 -262 592 -177 583 -216 b 787 -425 583 -359 656 -425 l 873 -425 l 873 -302 l 787 -302 b 729 -250 749 -302 729 -282 b 762 -158 729 -224 741 -192 b 895 0 791 -111 838 -56 z "},"Ē":{"ha":956,"x_min":0,"x_max":0,"o":"m 235 1103 l 739 1103 l 739 1250 l 235 1250 z m 93 0 l 895 0 l 895 220 l 348 220 l 348 396 l 817 396 l 817 602 l 348 602 l 348 779 l 881 779 l 881 998 l 93 998 z "},"F":{"ha":863,"x_min":0,"x_max":0,"o":"m 93 0 l 348 0 l 348 381 l 768 381 l 768 588 l 348 588 l 348 779 l 850 779 l 850 998 l 93 998 z "},"G":{"ha":1128,"x_min":0,"x_max":0,"o":"m 525 -22 b 848 141 690 -22 791 35 l 848 0 l 1035 0 l 1035 555 l 550 555 l 550 367 l 766 367 b 550 190 741 249 671 190 b 319 499 412 190 319 314 b 550 808 319 684 412 808 b 761 666 676 808 743 751 l 1016 666 b 550 1020 985 878 829 1020 b 64 499 259 1020 64 811 b 525 -22 64 187 259 -22 z "},"Ğ":{"ha":1128,"x_min":0,"x_max":0,"o":"m 550 1084 b 823 1320 713 1084 823 1179 l 675 1320 b 550 1231 675 1267 625 1231 b 425 1320 475 1231 425 1267 l 277 1320 b 550 1084 277 1179 387 1084 z m 525 -22 b 848 141 690 -22 791 35 l 848 0 l 1035 0 l 1035 555 l 550 555 l 550 367 l 766 367 b 550 190 741 249 671 190 b 319 499 412 190 319 314 b 550 808 319 684 412 808 b 761 666 676 808 743 751 l 1016 666 b 550 1020 985 878 829 1020 b 64 499 259 1020 64 811 b 525 -22 64 187 259 -22 z "},"Ĝ":{"ha":1128,"x_min":0,"x_max":0,"o":"m 243 1095 l 456 1095 l 550 1204 l 644 1095 l 857 1095 l 626 1331 l 474 1331 z m 525 -22 b 848 141 690 -22 791 35 l 848 0 l 1035 0 l 1035 555 l 550 555 l 550 367 l 766 367 b 550 190 741 249 671 190 b 319 499 412 190 319 314 b 550 808 319 684 412 808 b 761 666 676 808 743 751 l 1016 666 b 550 1020 985 878 829 1020 b 64 499 259 1020 64 811 b 525 -22 64 187 259 -22 z "},"Ǧ":{"ha":1128,"x_min":0,"x_max":0,"o":"m 474 1097 l 626 1097 l 857 1332 l 644 1332 l 550 1223 l 456 1332 l 243 1332 z m 525 -22 b 848 141 690 -22 791 35 l 848 0 l 1035 0 l 1035 555 l 550 555 l 550 367 l 766 367 b 550 190 741 249 671 190 b 319 499 412 190 319 314 b 550 808 319 684 412 808 b 761 666 676 808 743 751 l 1016 666 b 550 1020 985 878 829 1020 b 64 499 259 1020 64 811 b 525 -22 64 187 259 -22 z "},"Ġ":{"ha":1128,"x_min":0,"x_max":0,"o":"m 550 1091 b 679 1220 621 1091 679 1148 b 550 1349 679 1291 621 1349 b 421 1220 479 1349 421 1291 b 550 1091 421 1148 479 1091 z m 525 -22 b 848 141 690 -22 791 35 l 848 0 l 1035 0 l 1035 555 l 550 555 l 550 367 l 766 367 b 550 190 741 249 671 190 b 319 499 412 190 319 314 b 550 808 319 684 412 808 b 761 666 676 808 743 751 l 1016 666 b 550 1020 985 878 829 1020 b 64 499 259 1020 64 811 b 525 -22 64 187 259 -22 z "},"Ģ":{"ha":1128,"x_min":0,"x_max":0,"o":"m 525 -22 b 848 141 690 -22 791 35 l 848 0 l 1035 0 l 1035 555 l 550 555 l 550 367 l 766 367 b 550 190 741 249 671 190 b 319 499 412 190 319 314 b 550 808 319 684 412 808 b 761 666 676 808 743 751 l 1016 666 b 550 1020 985 878 829 1020 b 64 499 259 1020 64 811 b 525 -22 64 187 259 -22 z m 458 -477 b 671 -332 595 -477 671 -425 l 671 -208 b 551 -88 671 -142 616 -88 b 429 -208 484 -88 429 -142 b 551 -329 429 -275 484 -329 b 566 -327 555 -329 562 -328 l 566 -332 b 458 -382 566 -363 529 -382 z "},"H":{"ha":1042,"x_min":0,"x_max":0,"o":"m 93 0 l 348 0 l 348 389 l 694 389 l 694 0 l 949 0 l 949 998 l 694 998 l 694 609 l 348 609 l 348 998 l 93 998 z "},"Ĥ":{"ha":1042,"x_min":0,"x_max":0,"o":"m 214 1095 l 427 1095 l 521 1204 l 614 1095 l 827 1095 l 597 1331 l 445 1331 z m 93 0 l 348 0 l 348 389 l 694 389 l 694 0 l 949 0 l 949 998 l 694 998 l 694 609 l 348 609 l 348 998 l 93 998 z "},"Ħ":{"ha":1042,"x_min":0,"x_max":0,"o":"m 694 998 l 694 895 l 348 895 l 348 998 l 93 998 l 93 895 l 92 895 l 92 713 l 93 713 l 93 0 l 348 0 l 348 389 l 694 389 l 694 0 l 949 0 l 949 998 z m 694 609 l 348 609 l 348 713 l 694 713 z "},"I":{"ha":440,"x_min":0,"x_max":0,"o":"m 93 0 l 348 0 l 348 998 l 93 998 z "},"Í":{"ha":440,"x_min":0,"x_max":0,"o":"m 100 1095 l 319 1095 l 454 1331 l 235 1331 z m 93 0 l 348 0 l 348 998 l 93 998 z "},"Ì":{"ha":440,"x_min":0,"x_max":0,"o":"m 122 1095 l 341 1095 l 205 1331 l -14 1331 z m 93 0 l 348 0 l 348 998 l 93 998 z "},"Ĭ":{"ha":440,"x_min":0,"x_max":0,"o":"m 220 1084 b 493 1320 384 1084 493 1179 l 346 1320 b 220 1231 346 1267 296 1231 b 95 1320 145 1231 95 1267 l -52 1320 b 220 1084 -52 1179 57 1084 z m 93 0 l 348 0 l 348 998 l 93 998 z "},"Î":{"ha":440,"x_min":0,"x_max":0,"o":"m -86 1095 l 127 1095 l 220 1204 l 314 1095 l 527 1095 l 296 1331 l 144 1331 z m 93 0 l 348 0 l 348 998 l 93 998 z "},"Ï":{"ha":440,"x_min":0,"x_max":0,"o":"m 62 1099 b 182 1220 129 1099 182 1153 b 62 1340 182 1286 129 1340 b -59 1220 -5 1340 -59 1286 b 62 1099 -59 1153 -5 1099 z m 379 1099 b 500 1220 446 1099 500 1153 b 379 1340 500 1286 446 1340 b 258 1220 312 1340 258 1286 b 379 1099 258 1153 312 1099 z m 93 0 l 348 0 l 348 998 l 93 998 z "},"Ĩ":{"ha":440,"x_min":0,"x_max":0,"o":"m 320 1084 b 534 1320 448 1084 534 1179 l 387 1320 b 320 1231 387 1267 360 1231 b 248 1272 294 1231 272 1250 b 121 1331 216 1299 179 1331 b -93 1095 -7 1331 -93 1236 l 54 1095 b 121 1184 54 1148 81 1184 b 193 1143 147 1184 169 1165 b 320 1084 225 1116 262 1084 z m 93 0 l 348 0 l 348 998 l 93 998 z "},"İ":{"ha":440,"x_min":0,"x_max":0,"o":"m 220 1091 b 349 1220 292 1091 349 1148 b 220 1349 349 1291 292 1349 b 92 1220 149 1349 92 1291 b 220 1091 92 1148 149 1091 z m 93 0 l 348 0 l 348 998 l 93 998 z "},"Ị":{"ha":440,"x_min":0,"x_max":0,"o":"m 93 0 l 348 0 l 348 998 l 93 998 z m 220 -346 b 349 -217 292 -346 349 -288 b 220 -88 349 -146 292 -88 b 92 -217 149 -88 92 -146 b 220 -346 92 -288 149 -346 z "},"Į":{"ha":440,"x_min":0,"x_max":0,"o":"m 348 0 l 348 998 l 93 998 l 93 0 l 180 0 b 66 -139 121 -60 88 -98 b 36 -262 45 -177 36 -216 b 240 -425 36 -359 109 -425 l 326 -425 l 326 -302 l 240 -302 b 182 -250 202 -302 182 -282 b 215 -158 182 -224 194 -192 b 348 0 245 -111 292 -56 z "},"Ī":{"ha":440,"x_min":0,"x_max":0,"o":"m -32 1103 l 473 1103 l 473 1250 l -32 1250 z m 93 0 l 348 0 l 348 998 l 93 998 z "},"Ĳ":{"ha":1293,"x_min":0,"x_max":0,"o":"m 93 0 l 348 0 l 348 998 l 93 998 z m 854 -22 b 1200 290 1061 -22 1200 103 l 1200 998 l 945 998 l 945 290 b 846 191 945 230 905 191 b 746 290 786 191 746 230 l 746 389 l 508 389 l 508 290 b 854 -22 508 103 646 -22 z "},"J":{"ha":852,"x_min":0,"x_max":0,"o":"m 414 -22 b 760 290 621 -22 760 103 l 760 998 l 505 998 l 505 290 b 406 191 505 230 465 191 b 306 290 346 191 306 230 l 306 389 l 68 389 l 68 290 b 414 -22 68 103 206 -22 z "},"Ĵ":{"ha":852,"x_min":0,"x_max":0,"o":"m 326 1095 l 538 1095 l 632 1204 l 726 1095 l 939 1095 l 708 1331 l 556 1331 z m 414 -22 b 760 290 621 -22 760 103 l 760 998 l 505 998 l 505 290 b 406 191 505 230 465 191 b 306 290 346 191 306 230 l 306 389 l 68 389 l 68 290 b 414 -22 68 103 206 -22 z "},"K":{"ha":1053,"x_min":0,"x_max":0,"o":"m 93 0 l 348 0 l 348 307 l 439 404 l 736 0 l 1043 0 l 614 588 l 1004 998 l 688 998 l 348 643 l 348 998 l 93 998 z "},"Ķ":{"ha":1053,"x_min":0,"x_max":0,"o":"m 93 0 l 348 0 l 348 307 l 439 404 l 736 0 l 1043 0 l 614 588 l 1004 998 l 688 998 l 348 643 l 348 998 l 93 998 z m 441 -477 b 653 -332 578 -477 653 -425 l 653 -208 b 533 -88 653 -142 599 -88 b 412 -208 466 -88 412 -142 b 533 -329 412 -275 466 -329 b 549 -327 538 -329 544 -328 l 549 -332 b 441 -382 549 -363 511 -382 z "},"L":{"ha":835,"x_min":0,"x_max":0,"o":"m 93 0 l 811 0 l 811 220 l 348 220 l 348 998 l 93 998 z "},"Ĺ":{"ha":835,"x_min":0,"x_max":0,"o":"m 100 1095 l 319 1095 l 454 1331 l 235 1331 z m 93 0 l 811 0 l 811 220 l 348 220 l 348 998 l 93 998 z "},"Ľ":{"ha":835,"x_min":0,"x_max":0,"o":"m 93 0 l 811 0 l 811 220 l 348 220 l 348 998 l 93 998 z m 475 716 l 672 716 l 747 998 l 551 998 z "},"Ŀ":{"ha":835,"x_min":0,"x_max":0,"o":"m 93 0 l 811 0 l 811 220 l 348 220 l 348 998 l 93 998 z m 638 397 b 780 540 716 397 780 461 b 638 681 780 617 716 681 b 496 540 559 681 496 617 b 638 397 496 461 559 397 z "},"Ļ":{"ha":835,"x_min":0,"x_max":0,"o":"m 93 0 l 811 0 l 811 220 l 348 220 l 348 998 l 93 998 z m 360 -477 b 572 -332 497 -477 572 -425 l 572 -208 b 452 -88 572 -142 518 -88 b 331 -208 385 -88 331 -142 b 452 -329 331 -275 385 -329 b 468 -327 457 -329 463 -328 l 468 -332 b 360 -382 468 -363 431 -382 z "},"Ł":{"ha":886,"x_min":0,"x_max":0,"o":"m 144 0 l 862 0 l 862 220 l 399 220 l 399 480 l 708 659 l 708 856 l 399 677 l 399 998 l 144 998 l 144 530 l 22 460 l 22 262 l 144 333 z "},"M":{"ha":1230,"x_min":0,"x_max":0,"o":"m 93 0 l 328 0 l 328 595 l 517 0 l 712 0 l 902 595 l 902 0 l 1137 0 l 1137 998 l 822 998 l 615 356 l 408 998 l 93 998 z "},"N":{"ha":1053,"x_min":0,"x_max":0,"o":"m 93 0 l 340 0 l 340 595 l 712 0 l 960 0 l 960 998 l 712 998 l 712 403 l 340 998 l 93 998 z "},"Ń":{"ha":1053,"x_min":0,"x_max":0,"o":"m 406 1095 l 625 1095 l 760 1331 l 541 1331 z m 93 0 l 340 0 l 340 595 l 712 0 l 960 0 l 960 998 l 712 998 l 712 403 l 340 998 l 93 998 z "},"Ň":{"ha":1053,"x_min":0,"x_max":0,"o":"m 450 1097 l 602 1097 l 833 1332 l 620 1332 l 526 1223 l 433 1332 l 220 1332 z m 93 0 l 340 0 l 340 595 l 712 0 l 960 0 l 960 998 l 712 998 l 712 403 l 340 998 l 93 998 z "},"Ñ":{"ha":1053,"x_min":0,"x_max":0,"o":"m 626 1084 b 840 1320 754 1084 840 1179 l 693 1320 b 626 1231 693 1267 666 1231 b 553 1272 600 1231 578 1250 b 427 1331 522 1299 485 1331 b 213 1095 298 1331 213 1236 l 359 1095 b 427 1184 359 1148 387 1184 b 499 1143 453 1184 475 1165 b 626 1084 531 1116 568 1084 z m 93 0 l 340 0 l 340 595 l 712 0 l 960 0 l 960 998 l 712 998 l 712 403 l 340 998 l 93 998 z "},"Ņ":{"ha":1053,"x_min":0,"x_max":0,"o":"m 93 0 l 340 0 l 340 595 l 712 0 l 960 0 l 960 998 l 712 998 l 712 403 l 340 998 l 93 998 z m 435 -477 b 647 -332 572 -477 647 -425 l 647 -208 b 527 -88 647 -142 593 -88 b 406 -208 460 -88 406 -142 b 527 -329 406 -275 460 -329 b 543 -327 532 -329 538 -328 l 543 -332 b 435 -382 543 -363 505 -382 z "},"Ŋ":{"ha":1053,"x_min":0,"x_max":0,"o":"m 593 -282 l 712 -282 b 960 -59 861 -282 960 -193 l 960 998 l 712 998 l 712 403 l 340 998 l 93 998 l 93 0 l 340 0 l 340 595 l 712 0 l 712 -44 b 664 -100 712 -78 696 -100 l 593 -100 z "},"Ɲ":{"ha":1053,"x_min":0,"x_max":0,"o":"m -26 -282 l 93 -282 b 340 -59 241 -282 340 -193 l 340 595 l 712 0 l 960 0 l 960 998 l 712 998 l 712 403 l 340 998 l 93 998 l 93 -44 b 45 -100 93 -78 77 -100 l -26 -100 z "},"O":{"ha":1114,"x_min":0,"x_max":0,"o":"m 557 -22 b 1049 499 852 -22 1049 187 b 557 1020 1049 811 852 1020 b 64 499 262 1020 64 811 b 557 -22 64 187 262 -22 z m 557 190 b 319 499 415 190 319 314 b 557 808 319 684 415 808 b 794 499 699 808 794 684 b 557 190 794 315 699 190 z "},"Ó":{"ha":1114,"x_min":0,"x_max":0,"o":"m 436 1095 l 655 1095 l 791 1331 l 572 1331 z m 557 -22 b 1049 499 852 -22 1049 187 b 557 1020 1049 811 852 1020 b 64 499 262 1020 64 811 b 557 -22 64 187 262 -22 z m 557 190 b 319 499 415 190 319 314 b 557 808 319 684 415 808 b 794 499 699 808 794 684 b 557 190 794 315 699 190 z "},"Ò":{"ha":1114,"x_min":0,"x_max":0,"o":"m 458 1095 l 677 1095 l 542 1331 l 323 1331 z m 557 -22 b 1049 499 852 -22 1049 187 b 557 1020 1049 811 852 1020 b 64 499 262 1020 64 811 b 557 -22 64 187 262 -22 z m 557 190 b 319 499 415 190 319 314 b 557 808 319 684 415 808 b 794 499 699 808 794 684 b 557 190 794 315 699 190 z "},"Ŏ":{"ha":1114,"x_min":0,"x_max":0,"o":"m 557 1084 b 829 1320 720 1084 829 1179 l 682 1320 b 557 1231 682 1267 632 1231 b 431 1320 481 1231 431 1267 l 284 1320 b 557 1084 284 1179 393 1084 z m 557 -22 b 1049 499 852 -22 1049 187 b 557 1020 1049 811 852 1020 b 64 499 262 1020 64 811 b 557 -22 64 187 262 -22 z m 557 190 b 319 499 415 190 319 314 b 557 808 319 684 415 808 b 794 499 699 808 794 684 b 557 190 794 315 699 190 z "},"Ô":{"ha":1114,"x_min":0,"x_max":0,"o":"m 250 1095 l 463 1095 l 557 1204 l 650 1095 l 863 1095 l 633 1331 l 481 1331 z m 557 -22 b 1049 499 852 -22 1049 187 b 557 1020 1049 811 852 1020 b 64 499 262 1020 64 811 b 557 -22 64 187 262 -22 z m 557 190 b 319 499 415 190 319 314 b 557 808 319 684 415 808 b 794 499 699 808 794 684 b 557 190 794 315 699 190 z "},"Ö":{"ha":1114,"x_min":0,"x_max":0,"o":"m 398 1099 b 519 1220 465 1099 519 1153 b 398 1340 519 1286 465 1340 b 277 1220 331 1340 277 1286 b 398 1099 277 1153 331 1099 z m 715 1099 b 836 1220 783 1099 836 1153 b 715 1340 836 1286 783 1340 b 595 1220 648 1340 595 1286 b 715 1099 595 1153 648 1099 z m 557 -22 b 1049 499 852 -22 1049 187 b 557 1020 1049 811 852 1020 b 64 499 262 1020 64 811 b 557 -22 64 187 262 -22 z m 557 190 b 319 499 415 190 319 314 b 557 808 319 684 415 808 b 794 499 699 808 794 684 b 557 190 794 315 699 190 z "},"Ő":{"ha":1114,"x_min":0,"x_max":0,"o":"m 272 1095 l 491 1095 l 627 1331 l 408 1331 z m 602 1095 l 821 1095 l 956 1331 l 737 1331 z m 557 -22 b 1049 499 852 -22 1049 187 b 557 1020 1049 811 852 1020 b 64 499 262 1020 64 811 b 557 -22 64 187 262 -22 z m 557 190 b 319 499 415 190 319 314 b 557 808 319 684 415 808 b 794 499 699 808 794 684 b 557 190 794 315 699 190 z "},"Õ":{"ha":1114,"x_min":0,"x_max":0,"o":"m 656 1084 b 870 1320 785 1084 870 1179 l 724 1320 b 656 1231 724 1267 696 1231 b 584 1272 630 1231 608 1250 b 457 1331 552 1299 515 1331 b 243 1095 329 1331 243 1236 l 390 1095 b 457 1184 390 1148 417 1184 b 530 1143 484 1184 505 1165 b 656 1084 562 1116 598 1084 z m 557 -22 b 1049 499 852 -22 1049 187 b 557 1020 1049 811 852 1020 b 64 499 262 1020 64 811 b 557 -22 64 187 262 -22 z m 557 190 b 319 499 415 190 319 314 b 557 808 319 684 415 808 b 794 499 699 808 794 684 b 557 190 794 315 699 190 z "},"Ọ":{"ha":1114,"x_min":0,"x_max":0,"o":"m 557 -22 b 1049 499 852 -22 1049 187 b 557 1020 1049 811 852 1020 b 64 499 262 1020 64 811 b 557 -22 64 187 262 -22 z m 557 190 b 319 499 415 190 319 314 b 557 808 319 684 415 808 b 794 499 699 808 794 684 b 557 190 794 315 699 190 z m 557 -346 b 686 -217 628 -346 686 -288 b 557 -88 686 -146 628 -88 b 428 -217 486 -88 428 -146 b 557 -346 428 -288 486 -346 z "},"Ǫ":{"ha":1114,"x_min":0,"x_max":0,"o":"m 713 0 b 1049 499 919 61 1049 246 b 557 1020 1049 811 852 1020 b 64 499 262 1020 64 811 b 525 -21 64 199 248 -6 b 431 -139 478 -69 450 -104 b 401 -262 410 -177 401 -216 b 605 -425 401 -359 474 -425 l 691 -425 l 691 -302 l 605 -302 b 547 -250 567 -302 547 -282 b 580 -158 547 -224 559 -192 b 713 0 610 -111 656 -56 z m 319 499 b 557 808 319 684 415 808 b 794 499 699 808 794 684 b 557 190 794 315 699 190 b 319 499 415 190 319 314 z "},"Ō":{"ha":1114,"x_min":0,"x_max":0,"o":"m 304 1103 l 809 1103 l 809 1250 l 304 1250 z m 557 -22 b 1049 499 852 -22 1049 187 b 557 1020 1049 811 852 1020 b 64 499 262 1020 64 811 b 557 -22 64 187 262 -22 z m 557 190 b 319 499 415 190 319 314 b 557 808 319 684 415 808 b 794 499 699 808 794 684 b 557 190 794 315 699 190 z "},"Ø":{"ha":1114,"x_min":0,"x_max":0,"o":"m 933 854 l 1007 942 l 914 1020 l 844 937 b 557 1020 766 990 668 1020 b 64 499 262 1020 64 811 b 180 144 64 356 106 234 l 106 56 l 199 -22 l 269 62 b 557 -22 347 8 445 -22 b 1049 499 852 -22 1049 187 b 933 854 1049 643 1007 764 z m 319 499 b 557 808 319 684 415 808 b 695 759 610 808 657 791 l 347 343 b 319 499 329 388 319 440 z m 557 190 b 418 240 503 190 456 208 l 766 655 b 794 499 785 611 794 558 b 557 190 794 315 699 190 z "},"Ǿ":{"ha":1114,"x_min":0,"x_max":0,"o":"m 791 1331 l 572 1331 l 436 1095 l 655 1095 z m 933 854 l 1007 942 l 914 1020 l 844 937 b 557 1020 766 990 668 1020 b 64 499 262 1020 64 811 b 180 144 64 356 106 234 l 106 56 l 199 -22 l 269 62 b 557 -22 347 8 445 -22 b 1049 499 852 -22 1049 187 b 933 854 1049 643 1007 764 z m 319 499 b 557 808 319 684 415 808 b 695 759 610 808 657 791 l 347 343 b 319 499 329 388 319 440 z m 557 190 b 418 240 503 190 456 208 l 766 655 b 794 499 785 611 794 558 b 557 190 794 315 699 190 z "},"Œ":{"ha":1657,"x_min":0,"x_max":0,"o":"m 541 -22 b 794 71 645 -22 730 12 l 794 0 l 1596 0 l 1596 220 l 1049 220 l 1049 396 l 1518 396 l 1518 602 l 1049 602 l 1049 779 l 1582 779 l 1582 998 l 794 998 l 794 927 b 541 1020 730 986 645 1020 b 64 499 262 1020 64 811 b 541 -22 64 187 262 -22 z m 557 190 b 319 499 415 190 319 314 b 557 808 319 684 415 808 b 794 499 699 808 794 684 b 557 190 794 315 699 190 z "},"P":{"ha":954,"x_min":0,"x_max":0,"o":"m 93 0 l 348 0 l 348 312 l 587 312 b 913 655 783 312 913 450 b 587 998 913 861 783 998 l 93 998 z m 348 523 l 348 787 l 555 787 b 658 655 620 787 658 734 b 555 523 658 576 620 523 z "},"Q":{"ha":1114,"x_min":0,"x_max":0,"o":"m 920 -87 l 1049 43 l 940 152 b 1049 499 1009 240 1049 359 b 557 1020 1049 811 852 1020 b 64 499 262 1020 64 811 b 557 -22 64 187 262 -22 b 798 35 647 -22 729 -2 z m 557 190 b 319 499 415 190 319 314 b 557 808 319 684 415 808 b 794 499 699 808 794 684 b 758 334 794 435 781 378 l 641 451 l 511 321 l 629 203 b 557 190 607 195 583 190 z "},"R":{"ha":1024,"x_min":0,"x_max":0,"o":"m 93 0 l 348 0 l 348 370 l 583 370 b 670 258 635 370 663 324 l 699 0 l 947 0 l 919 258 b 836 435 909 348 882 402 b 942 684 903 489 942 576 b 644 998 942 872 823 998 l 93 998 z m 348 572 l 348 795 l 605 795 b 692 684 657 795 692 749 b 605 572 692 617 657 572 z "},"Ŕ":{"ha":1024,"x_min":0,"x_max":0,"o":"m 359 1095 l 578 1095 l 713 1331 l 494 1331 z m 93 0 l 348 0 l 348 370 l 583 370 b 670 258 635 370 663 324 l 699 0 l 947 0 l 919 258 b 836 435 909 348 882 402 b 942 684 903 489 942 576 b 644 998 942 872 823 998 l 93 998 z m 348 572 l 348 795 l 605 795 b 692 684 657 795 692 749 b 605 572 692 617 657 572 z "},"Ř":{"ha":1024,"x_min":0,"x_max":0,"o":"m 404 1097 l 555 1097 l 786 1332 l 573 1332 l 479 1223 l 386 1332 l 173 1332 z m 93 0 l 348 0 l 348 370 l 583 370 b 670 258 635 370 663 324 l 699 0 l 947 0 l 919 258 b 836 435 909 348 882 402 b 942 684 903 489 942 576 b 644 998 942 872 823 998 l 93 998 z m 348 572 l 348 795 l 605 795 b 692 684 657 795 692 749 b 605 572 692 617 657 572 z "},"Ŗ":{"ha":1024,"x_min":0,"x_max":0,"o":"m 93 0 l 348 0 l 348 370 l 583 370 b 670 258 635 370 663 324 l 699 0 l 947 0 l 919 258 b 836 435 909 348 882 402 b 942 684 903 489 942 576 b 644 998 942 872 823 998 l 93 998 z m 348 572 l 348 795 l 605 795 b 692 684 657 795 692 749 b 605 572 692 617 657 572 z m 418 -477 b 630 -332 555 -477 630 -425 l 630 -208 b 510 -88 630 -142 576 -88 b 389 -208 443 -88 389 -142 b 510 -329 389 -275 443 -329 b 526 -327 515 -329 521 -328 l 526 -332 b 418 -382 526 -363 488 -382 z "},"S":{"ha":969,"x_min":0,"x_max":0,"o":"m 485 -22 b 915 290 743 -22 915 104 b 544 614 915 534 708 580 b 342 732 434 638 342 659 b 485 817 342 783 399 817 b 627 711 570 817 627 774 l 882 711 b 485 1020 882 897 724 1020 b 87 732 246 1020 87 904 b 452 416 87 503 288 454 b 660 290 564 390 660 367 b 485 182 660 225 589 182 b 309 329 380 182 309 241 l 54 329 b 485 -22 54 119 227 -22 z "},"Ś":{"ha":969,"x_min":0,"x_max":0,"o":"m 364 1095 l 583 1095 l 719 1331 l 500 1331 z m 485 -22 b 915 290 743 -22 915 104 b 544 614 915 534 708 580 b 342 732 434 638 342 659 b 485 817 342 783 399 817 b 627 711 570 817 627 774 l 882 711 b 485 1020 882 897 724 1020 b 87 732 246 1020 87 904 b 452 416 87 503 288 454 b 660 290 564 390 660 367 b 485 182 660 225 589 182 b 309 329 380 182 309 241 l 54 329 b 485 -22 54 119 227 -22 z "},"Ŝ":{"ha":969,"x_min":0,"x_max":0,"o":"m 178 1095 l 391 1095 l 485 1204 l 578 1095 l 791 1095 l 561 1331 l 409 1331 z m 485 -22 b 915 290 743 -22 915 104 b 544 614 915 534 708 580 b 342 732 434 638 342 659 b 485 817 342 783 399 817 b 627 711 570 817 627 774 l 882 711 b 485 1020 882 897 724 1020 b 87 732 246 1020 87 904 b 452 416 87 503 288 454 b 660 290 564 390 660 367 b 485 182 660 225 589 182 b 309 329 380 182 309 241 l 54 329 b 485 -22 54 119 227 -22 z "},"Š":{"ha":969,"x_min":0,"x_max":0,"o":"m 409 1097 l 561 1097 l 791 1332 l 578 1332 l 485 1223 l 391 1332 l 178 1332 z m 485 -22 b 915 290 743 -22 915 104 b 544 614 915 534 708 580 b 342 732 434 638 342 659 b 485 817 342 783 399 817 b 627 711 570 817 627 774 l 882 711 b 485 1020 882 897 724 1020 b 87 732 246 1020 87 904 b 452 416 87 503 288 454 b 660 290 564 390 660 367 b 485 182 660 225 589 182 b 309 329 380 182 309 241 l 54 329 b 485 -22 54 119 227 -22 z "},"Ş":{"ha":969,"x_min":0,"x_max":0,"o":"m 915 290 b 544 614 915 534 708 580 b 342 732 434 638 342 659 b 485 817 342 783 399 817 b 627 711 570 817 627 774 l 882 711 b 485 1020 882 897 724 1020 b 87 732 246 1020 87 904 b 452 416 87 503 288 454 b 660 290 564 390 660 367 b 485 182 660 225 589 182 b 309 329 380 182 309 241 l 54 329 b 409 -18 54 140 193 7 l 361 -99 l 361 -221 l 448 -221 b 505 -262 486 -221 505 -237 b 448 -302 505 -286 486 -302 l 361 -302 l 361 -425 l 448 -425 b 652 -262 578 -425 652 -359 b 524 -108 652 -185 607 -128 b 494 -102 515 -105 505 -103 l 543 -20 b 915 290 768 -2 915 118 z "},"Ș":{"ha":969,"x_min":0,"x_max":0,"o":"m 485 -22 b 915 290 743 -22 915 104 b 544 614 915 534 708 580 b 342 732 434 638 342 659 b 485 817 342 783 399 817 b 627 711 570 817 627 774 l 882 711 b 485 1020 882 897 724 1020 b 87 732 246 1020 87 904 b 452 416 87 503 288 454 b 660 290 564 390 660 367 b 485 182 660 225 589 182 b 309 329 380 182 309 241 l 54 329 b 485 -22 54 119 227 -22 z m 393 -477 b 606 -332 530 -477 606 -425 l 606 -208 b 486 -88 606 -142 551 -88 b 364 -208 418 -88 364 -142 b 486 -329 364 -275 418 -329 b 501 -327 490 -329 496 -328 l 501 -332 b 393 -382 501 -363 464 -382 z "},"T":{"ha":910,"x_min":0,"x_max":0,"o":"m 328 0 l 583 0 l 583 779 l 879 779 l 879 998 l 31 998 l 31 779 l 328 779 z "},"Ť":{"ha":910,"x_min":0,"x_max":0,"o":"m 379 1097 l 531 1097 l 762 1332 l 549 1332 l 455 1223 l 361 1332 l 149 1332 z m 328 0 l 583 0 l 583 779 l 879 779 l 879 998 l 31 998 l 31 779 l 328 779 z "},"Ţ":{"ha":910,"x_min":0,"x_max":0,"o":"m 583 0 l 583 779 l 879 779 l 879 998 l 31 998 l 31 779 l 328 779 l 328 0 l 390 0 l 332 -99 l 332 -221 l 418 -221 b 475 -262 456 -221 475 -237 b 418 -302 475 -286 456 -302 l 332 -302 l 332 -425 l 418 -425 b 622 -262 548 -425 622 -359 b 494 -108 622 -185 577 -128 b 465 -102 485 -105 475 -103 l 524 0 z "},"Ț":{"ha":910,"x_min":0,"x_max":0,"o":"m 328 0 l 583 0 l 583 779 l 879 779 l 879 998 l 31 998 l 31 779 l 328 779 z m 363 -477 b 576 -332 500 -477 576 -425 l 576 -208 b 456 -88 576 -142 522 -88 b 334 -208 389 -88 334 -142 b 456 -329 334 -275 389 -329 b 471 -327 460 -329 467 -328 l 471 -332 b 363 -382 471 -363 434 -382 z "},"Ŧ":{"ha":910,"x_min":0,"x_max":0,"o":"m 328 0 l 583 0 l 583 381 l 769 381 l 769 588 l 583 588 l 583 779 l 879 779 l 879 998 l 31 998 l 31 779 l 328 779 l 328 588 l 141 588 l 141 381 l 328 381 z "},"U":{"ha":1047,"x_min":0,"x_max":0,"o":"m 524 -22 b 954 366 781 -22 954 134 l 954 998 l 699 998 l 699 366 b 524 198 699 266 629 198 b 348 366 418 198 348 266 l 348 998 l 93 998 l 93 366 b 524 -22 93 134 266 -22 z "},"Ú":{"ha":1047,"x_min":0,"x_max":0,"o":"m 403 1095 l 622 1095 l 758 1331 l 538 1331 z m 524 -22 b 954 366 781 -22 954 134 l 954 998 l 699 998 l 699 366 b 524 198 699 266 629 198 b 348 366 418 198 348 266 l 348 998 l 93 998 l 93 366 b 524 -22 93 134 266 -22 z "},"Ù":{"ha":1047,"x_min":0,"x_max":0,"o":"m 425 1095 l 644 1095 l 509 1331 l 290 1331 z m 524 -22 b 954 366 781 -22 954 134 l 954 998 l 699 998 l 699 366 b 524 198 699 266 629 198 b 348 366 418 198 348 266 l 348 998 l 93 998 l 93 366 b 524 -22 93 134 266 -22 z "},"Ŭ":{"ha":1047,"x_min":0,"x_max":0,"o":"m 524 1084 b 796 1320 687 1084 796 1179 l 649 1320 b 524 1231 649 1267 599 1231 b 398 1320 448 1231 398 1267 l 251 1320 b 524 1084 251 1179 360 1084 z m 524 -22 b 954 366 781 -22 954 134 l 954 998 l 699 998 l 699 366 b 524 198 699 266 629 198 b 348 366 418 198 348 266 l 348 998 l 93 998 l 93 366 b 524 -22 93 134 266 -22 z "},"Û":{"ha":1047,"x_min":0,"x_max":0,"o":"m 217 1095 l 430 1095 l 524 1204 l 617 1095 l 830 1095 l 600 1331 l 448 1331 z m 524 -22 b 954 366 781 -22 954 134 l 954 998 l 699 998 l 699 366 b 524 198 699 266 629 198 b 348 366 418 198 348 266 l 348 998 l 93 998 l 93 366 b 524 -22 93 134 266 -22 z "},"Ů":{"ha":1047,"x_min":0,"x_max":0,"o":"m 524 1074 b 728 1278 646 1074 728 1156 b 524 1482 728 1400 647 1482 b 319 1278 401 1482 319 1401 b 524 1074 319 1156 401 1074 z m 524 1193 b 438 1278 472 1193 438 1227 b 524 1363 438 1329 472 1363 b 609 1278 575 1363 609 1329 b 524 1193 609 1227 575 1193 z m 524 -22 b 954 366 781 -22 954 134 l 954 998 l 699 998 l 699 366 b 524 198 699 266 629 198 b 348 366 418 198 348 266 l 348 998 l 93 998 l 93 366 b 524 -22 93 134 266 -22 z "},"Ü":{"ha":1047,"x_min":0,"x_max":0,"o":"m 365 1099 b 486 1220 432 1099 486 1153 b 365 1340 486 1286 432 1340 b 244 1220 298 1340 244 1286 b 365 1099 244 1153 298 1099 z m 682 1099 b 803 1220 749 1099 803 1153 b 682 1340 803 1286 749 1340 b 562 1220 615 1340 562 1286 b 682 1099 562 1153 615 1099 z m 524 -22 b 954 366 781 -22 954 134 l 954 998 l 699 998 l 699 366 b 524 198 699 266 629 198 b 348 366 418 198 348 266 l 348 998 l 93 998 l 93 366 b 524 -22 93 134 266 -22 z "},"Ű":{"ha":1047,"x_min":0,"x_max":0,"o":"m 239 1095 l 458 1095 l 593 1331 l 374 1331 z m 568 1095 l 787 1095 l 923 1331 l 704 1331 z m 524 -22 b 954 366 781 -22 954 134 l 954 998 l 699 998 l 699 366 b 524 198 699 266 629 198 b 348 366 418 198 348 266 l 348 998 l 93 998 l 93 366 b 524 -22 93 134 266 -22 z "},"Ũ":{"ha":1047,"x_min":0,"x_max":0,"o":"m 623 1084 b 837 1320 751 1084 837 1179 l 690 1320 b 623 1231 690 1267 663 1231 b 551 1272 597 1231 575 1250 b 424 1331 519 1299 482 1331 b 210 1095 296 1331 210 1236 l 357 1095 b 424 1184 357 1148 384 1184 b 496 1143 450 1184 472 1165 b 623 1084 528 1116 565 1084 z m 524 -22 b 954 366 781 -22 954 134 l 954 998 l 699 998 l 699 366 b 524 198 699 266 629 198 b 348 366 418 198 348 266 l 348 998 l 93 998 l 93 366 b 524 -22 93 134 266 -22 z "},"Ụ":{"ha":1047,"x_min":0,"x_max":0,"o":"m 524 -22 b 954 366 781 -22 954 134 l 954 998 l 699 998 l 699 366 b 524 198 699 266 629 198 b 348 366 418 198 348 266 l 348 998 l 93 998 l 93 366 b 524 -22 93 134 266 -22 z m 524 -346 b 652 -217 595 -346 652 -288 b 524 -88 652 -146 595 -88 b 395 -217 452 -88 395 -146 b 524 -346 395 -288 452 -346 z "},"Ų":{"ha":1047,"x_min":0,"x_max":0,"o":"m 699 998 l 699 366 b 524 198 699 266 629 198 b 348 366 418 198 348 266 l 348 998 l 93 998 l 93 366 b 492 -21 93 143 252 -9 b 399 -139 446 -69 418 -104 b 368 -262 378 -177 368 -216 b 572 -425 368 -359 441 -425 l 659 -425 l 659 -302 l 572 -302 b 515 -250 534 -302 515 -282 b 547 -158 515 -224 526 -192 b 680 0 577 -111 624 -56 b 954 366 849 50 954 184 l 954 998 z "},"Ū":{"ha":1047,"x_min":0,"x_max":0,"o":"m 271 1103 l 776 1103 l 776 1250 l 271 1250 z m 524 -22 b 954 366 781 -22 954 134 l 954 998 l 699 998 l 699 366 b 524 198 699 266 629 198 b 348 366 418 198 348 266 l 348 998 l 93 998 l 93 366 b 524 -22 93 134 266 -22 z "},"V":{"ha":979,"x_min":0,"x_max":0,"o":"m 362 0 l 617 0 l 951 998 l 707 998 l 490 321 l 272 998 l 28 998 z "},"W":{"ha":1401,"x_min":0,"x_max":0,"o":"m 296 0 l 551 0 l 701 551 l 849 0 l 1104 0 l 1373 998 l 1133 998 l 977 381 l 820 998 l 581 998 l 424 381 l 268 998 l 28 998 z "},"Ẃ":{"ha":1401,"x_min":0,"x_max":0,"o":"m 580 1095 l 799 1095 l 935 1331 l 715 1331 z m 296 0 l 551 0 l 701 551 l 849 0 l 1104 0 l 1373 998 l 1133 998 l 977 381 l 820 998 l 581 998 l 424 381 l 268 998 l 28 998 z "},"Ẁ":{"ha":1401,"x_min":0,"x_max":0,"o":"m 602 1095 l 821 1095 l 686 1331 l 467 1331 z m 296 0 l 551 0 l 701 551 l 849 0 l 1104 0 l 1373 998 l 1133 998 l 977 381 l 820 998 l 581 998 l 424 381 l 268 998 l 28 998 z "},"Ŵ":{"ha":1401,"x_min":0,"x_max":0,"o":"m 394 1095 l 607 1095 l 701 1204 l 794 1095 l 1007 1095 l 777 1331 l 625 1331 z m 296 0 l 551 0 l 701 551 l 849 0 l 1104 0 l 1373 998 l 1133 998 l 977 381 l 820 998 l 581 998 l 424 381 l 268 998 l 28 998 z "},"Ẅ":{"ha":1401,"x_min":0,"x_max":0,"o":"m 542 1099 b 663 1220 609 1099 663 1153 b 542 1340 663 1286 609 1340 b 421 1220 475 1340 421 1286 b 542 1099 421 1153 475 1099 z m 859 1099 b 980 1220 926 1099 980 1153 b 859 1340 980 1286 926 1340 b 739 1220 792 1340 739 1286 b 859 1099 739 1153 792 1099 z m 296 0 l 551 0 l 701 551 l 849 0 l 1104 0 l 1373 998 l 1133 998 l 977 381 l 820 998 l 581 998 l 424 381 l 268 998 l 28 998 z "},"X":{"ha":1063,"x_min":0,"x_max":0,"o":"m 28 0 l 306 0 l 531 325 l 757 0 l 1034 0 l 671 521 l 1004 998 l 726 998 l 531 718 l 336 998 l 58 998 l 393 521 z "},"Y":{"ha":1014,"x_min":0,"x_max":0,"o":"m 380 0 l 635 0 l 635 378 l 994 998 l 732 998 l 507 610 l 282 998 l 20 998 l 380 378 z "},"Ý":{"ha":1014,"x_min":0,"x_max":0,"o":"m 387 1095 l 606 1095 l 741 1331 l 522 1331 z m 380 0 l 635 0 l 635 378 l 994 998 l 732 998 l 507 610 l 282 998 l 20 998 l 380 378 z "},"Ỳ":{"ha":1014,"x_min":0,"x_max":0,"o":"m 409 1095 l 628 1095 l 492 1331 l 273 1331 z m 380 0 l 635 0 l 635 378 l 994 998 l 732 998 l 507 610 l 282 998 l 20 998 l 380 378 z "},"Ŷ":{"ha":1014,"x_min":0,"x_max":0,"o":"m 201 1095 l 414 1095 l 507 1204 l 601 1095 l 814 1095 l 583 1331 l 431 1331 z m 380 0 l 635 0 l 635 378 l 994 998 l 732 998 l 507 610 l 282 998 l 20 998 l 380 378 z "},"Ÿ":{"ha":1014,"x_min":0,"x_max":0,"o":"m 349 1099 b 469 1220 416 1099 469 1153 b 349 1340 469 1286 416 1340 b 228 1220 281 1340 228 1286 b 349 1099 228 1153 281 1099 z m 666 1099 b 787 1220 733 1099 787 1153 b 666 1340 787 1286 733 1340 b 545 1220 599 1340 545 1286 b 666 1099 545 1153 599 1099 z m 380 0 l 635 0 l 635 378 l 994 998 l 732 998 l 507 610 l 282 998 l 20 998 l 380 378 z "},"Ỹ":{"ha":1014,"x_min":0,"x_max":0,"o":"m 607 1084 b 821 1320 735 1084 821 1179 l 674 1320 b 607 1231 674 1267 647 1231 b 534 1272 581 1231 559 1250 b 408 1331 503 1299 466 1331 b 194 1095 279 1331 194 1236 l 340 1095 b 408 1184 340 1148 368 1184 b 480 1143 434 1184 456 1165 b 607 1084 512 1116 549 1084 z m 380 0 l 635 0 l 635 378 l 994 998 l 732 998 l 507 610 l 282 998 l 20 998 l 380 378 z "},"Ȳ":{"ha":1014,"x_min":0,"x_max":0,"o":"m 255 1103 l 760 1103 l 760 1250 l 255 1250 z m 380 0 l 635 0 l 635 378 l 994 998 l 732 998 l 507 610 l 282 998 l 20 998 l 380 378 z "},"Z":{"ha":971,"x_min":0,"x_max":0,"o":"m 64 0 l 908 0 l 908 220 l 385 220 l 886 779 l 886 998 l 97 998 l 97 779 l 565 779 l 64 220 z "},"Ź":{"ha":971,"x_min":0,"x_max":0,"o":"m 365 1095 l 584 1095 l 720 1331 l 500 1331 z m 64 0 l 908 0 l 908 220 l 385 220 l 886 779 l 886 998 l 97 998 l 97 779 l 565 779 l 64 220 z "},"Ž":{"ha":971,"x_min":0,"x_max":0,"o":"m 410 1097 l 562 1097 l 792 1332 l 579 1332 l 486 1223 l 392 1332 l 179 1332 z m 64 0 l 908 0 l 908 220 l 385 220 l 886 779 l 886 998 l 97 998 l 97 779 l 565 779 l 64 220 z "},"Ż":{"ha":971,"x_min":0,"x_max":0,"o":"m 486 1091 b 614 1220 557 1091 614 1148 b 486 1349 614 1291 557 1349 b 357 1220 414 1349 357 1291 b 486 1091 357 1148 414 1091 z m 64 0 l 908 0 l 908 220 l 385 220 l 886 779 l 886 998 l 97 998 l 97 779 l 565 779 l 64 220 z "},"ẞ":{"ha":1039,"x_min":0,"x_max":0,"o":"m 93 0 l 348 0 l 348 714 b 447 795 348 763 387 795 l 669 795 l 505 627 l 505 423 l 544 423 b 740 313 667 423 740 382 b 544 203 740 245 666 203 l 456 203 l 456 0 l 544 0 b 995 313 829 0 995 115 b 797 585 995 441 923 536 b 753 600 783 590 768 595 l 946 795 l 946 998 l 447 998 b 93 714 235 998 93 885 z "},"Þ":{"ha":954,"x_min":0,"x_max":0,"o":"m 93 0 l 348 0 l 348 176 l 587 176 b 913 519 783 176 913 314 b 587 863 913 725 783 863 l 348 863 l 348 998 l 93 998 z m 348 388 l 348 651 l 555 651 b 658 519 620 651 658 599 b 555 388 658 440 620 388 z "},"Ə":{"ha":1099,"x_min":0,"x_max":0,"o":"m 550 -22 b 1035 499 840 -22 1035 187 b 549 1020 1035 811 840 1020 b 84 666 270 1020 114 878 l 339 666 b 549 808 357 751 423 808 b 777 555 673 808 760 709 l 64 555 l 64 499 b 550 -22 64 165 237 -22 z m 550 190 b 334 367 429 190 359 249 l 760 367 b 550 190 728 257 651 190 z "},"a":{"ha":837,"x_min":0,"x_max":0,"o":"m 340 -22 b 543 56 429 -22 496 11 b 566 0 550 37 557 18 l 795 0 b 755 134 774 41 755 93 l 755 492 b 418 738 755 639 622 738 b 82 494 216 738 82 640 l 310 494 b 418 574 310 542 353 574 b 528 496 484 574 528 541 b 364 423 528 448 454 437 b 48 196 225 403 48 375 b 340 -22 48 72 165 -22 z m 389 142 b 277 210 313 142 277 167 b 467 305 277 276 366 291 b 528 316 487 308 508 311 l 528 273 b 389 142 528 194 469 142 z "},"á":{"ha":837,"x_min":0,"x_max":0,"o":"m 298 818 l 517 818 l 652 1053 l 433 1053 z m 340 -22 b 543 56 429 -22 496 11 b 566 0 550 37 557 18 l 795 0 b 755 134 774 41 755 93 l 755 492 b 418 738 755 639 622 738 b 82 494 216 738 82 640 l 310 494 b 418 574 310 542 353 574 b 528 496 484 574 528 541 b 364 423 528 448 454 437 b 48 196 225 403 48 375 b 340 -22 48 72 165 -22 z m 389 142 b 277 210 313 142 277 167 b 467 305 277 276 366 291 b 528 316 487 308 508 311 l 528 273 b 389 142 528 194 469 142 z "},"à":{"ha":837,"x_min":0,"x_max":0,"o":"m 320 818 l 539 818 l 404 1053 l 184 1053 z m 340 -22 b 543 56 429 -22 496 11 b 566 0 550 37 557 18 l 795 0 b 755 134 774 41 755 93 l 755 492 b 418 738 755 639 622 738 b 82 494 216 738 82 640 l 310 494 b 418 574 310 542 353 574 b 528 496 484 574 528 541 b 364 423 528 448 454 437 b 48 196 225 403 48 375 b 340 -22 48 72 165 -22 z m 389 142 b 277 210 313 142 277 167 b 467 305 277 276 366 291 b 528 316 487 308 508 311 l 528 273 b 389 142 528 194 469 142 z "},"ă":{"ha":837,"x_min":0,"x_max":0,"o":"m 418 807 b 691 1042 582 807 691 901 l 544 1042 b 418 954 544 989 494 954 b 293 1042 343 954 293 989 l 146 1042 b 418 807 146 901 255 807 z m 340 -22 b 543 56 429 -22 496 11 b 566 0 550 37 557 18 l 795 0 b 755 134 774 41 755 93 l 755 492 b 418 738 755 639 622 738 b 82 494 216 738 82 640 l 310 494 b 418 574 310 542 353 574 b 528 496 484 574 528 541 b 364 423 528 448 454 437 b 48 196 225 403 48 375 b 340 -22 48 72 165 -22 z m 389 142 b 277 210 313 142 277 167 b 467 305 277 276 366 291 b 528 316 487 308 508 311 l 528 273 b 389 142 528 194 469 142 z "},"â":{"ha":837,"x_min":0,"x_max":0,"o":"m 112 818 l 325 818 l 418 927 l 512 818 l 725 818 l 494 1053 l 342 1053 z m 340 -22 b 543 56 429 -22 496 11 b 566 0 550 37 557 18 l 795 0 b 755 134 774 41 755 93 l 755 492 b 418 738 755 639 622 738 b 82 494 216 738 82 640 l 310 494 b 418 574 310 542 353 574 b 528 496 484 574 528 541 b 364 423 528 448 454 437 b 48 196 225 403 48 375 b 340 -22 48 72 165 -22 z m 389 142 b 277 210 313 142 277 167 b 467 305 277 276 366 291 b 528 316 487 308 508 311 l 528 273 b 389 142 528 194 469 142 z "},"å":{"ha":837,"x_min":0,"x_max":0,"o":"m 418 796 b 623 1001 541 796 623 878 b 418 1206 623 1122 542 1206 b 214 1001 296 1206 214 1124 b 418 796 214 878 296 796 z m 418 916 b 333 1001 367 916 333 949 b 418 1086 333 1052 367 1086 b 504 1001 470 1086 504 1051 b 418 916 504 949 470 916 z m 340 -22 b 543 56 429 -22 496 11 b 566 0 550 37 557 18 l 795 0 b 755 134 774 41 755 93 l 755 492 b 418 738 755 639 622 738 b 82 494 216 738 82 640 l 310 494 b 418 574 310 542 353 574 b 528 496 484 574 528 541 b 364 423 528 448 454 437 b 48 196 225 403 48 375 b 340 -22 48 72 165 -22 z m 389 142 b 277 210 313 142 277 167 b 467 305 277 276 366 291 b 528 316 487 308 508 311 l 528 273 b 389 142 528 194 469 142 z "},"ǻ":{"ha":837,"x_min":0,"x_max":0,"o":"m 298 1303 l 517 1303 l 652 1538 l 433 1538 z m 418 796 b 623 1001 541 796 623 878 b 418 1206 623 1122 542 1206 b 214 1001 296 1206 214 1124 b 418 796 214 878 296 796 z m 418 916 b 333 1001 367 916 333 949 b 418 1086 333 1052 367 1086 b 504 1001 470 1086 504 1051 b 418 916 504 949 470 916 z m 340 -22 b 543 56 429 -22 496 11 b 566 0 550 37 557 18 l 795 0 b 755 134 774 41 755 93 l 755 492 b 418 738 755 639 622 738 b 82 494 216 738 82 640 l 310 494 b 418 574 310 542 353 574 b 528 496 484 574 528 541 b 364 423 528 448 454 437 b 48 196 225 403 48 375 b 340 -22 48 72 165 -22 z m 389 142 b 277 210 313 142 277 167 b 467 305 277 276 366 291 b 528 316 487 308 508 311 l 528 273 b 389 142 528 194 469 142 z "},"ä":{"ha":837,"x_min":0,"x_max":0,"o":"m 260 812 b 380 933 327 812 380 866 b 260 1054 380 1000 327 1054 b 139 933 193 1054 139 1000 b 260 812 139 866 193 812 z m 577 812 b 698 933 644 812 698 866 b 577 1054 698 1000 644 1054 b 456 933 510 1054 456 1000 b 577 812 456 866 510 812 z m 340 -22 b 543 56 429 -22 496 11 b 566 0 550 37 557 18 l 795 0 b 755 134 774 41 755 93 l 755 492 b 418 738 755 639 622 738 b 82 494 216 738 82 640 l 310 494 b 418 574 310 542 353 574 b 528 496 484 574 528 541 b 364 423 528 448 454 437 b 48 196 225 403 48 375 b 340 -22 48 72 165 -22 z m 389 142 b 277 210 313 142 277 167 b 467 305 277 276 366 291 b 528 316 487 308 508 311 l 528 273 b 389 142 528 194 469 142 z "},"ã":{"ha":837,"x_min":0,"x_max":0,"o":"m 518 807 b 732 1042 646 807 732 901 l 585 1042 b 518 954 585 989 558 954 b 446 994 492 954 470 972 b 319 1053 414 1022 377 1053 b 105 818 191 1053 105 959 l 252 818 b 319 907 252 871 279 907 b 391 866 345 907 367 888 b 518 807 423 838 460 807 z m 340 -22 b 543 56 429 -22 496 11 b 566 0 550 37 557 18 l 795 0 b 755 134 774 41 755 93 l 755 492 b 418 738 755 639 622 738 b 82 494 216 738 82 640 l 310 494 b 418 574 310 542 353 574 b 528 496 484 574 528 541 b 364 423 528 448 454 437 b 48 196 225 403 48 375 b 340 -22 48 72 165 -22 z m 389 142 b 277 210 313 142 277 167 b 467 305 277 276 366 291 b 528 316 487 308 508 311 l 528 273 b 389 142 528 194 469 142 z "},"ạ":{"ha":837,"x_min":0,"x_max":0,"o":"m 340 -22 b 543 56 429 -22 496 11 b 566 0 550 37 557 18 l 795 0 b 755 134 774 41 755 93 l 755 492 b 418 738 755 639 622 738 b 82 494 216 738 82 640 l 310 494 b 418 574 310 542 353 574 b 528 496 484 574 528 541 b 364 423 528 448 454 437 b 48 196 225 403 48 375 b 340 -22 48 72 165 -22 z m 389 142 b 277 210 313 142 277 167 b 467 305 277 276 366 291 b 528 316 487 308 508 311 l 528 273 b 389 142 528 194 469 142 z m 418 -346 b 547 -217 490 -346 547 -288 b 418 -88 547 -146 490 -88 b 290 -217 347 -88 290 -146 b 418 -346 290 -288 347 -346 z "},"ą":{"ha":837,"x_min":0,"x_max":0,"o":"m 629 -250 b 662 -158 629 -224 641 -192 b 795 0 692 -111 739 -56 b 755 134 774 41 755 93 l 755 492 b 418 738 755 639 622 738 b 82 494 216 738 82 640 l 310 494 b 418 574 310 542 353 574 b 528 496 484 574 528 541 b 364 423 528 448 454 437 b 48 196 225 403 48 375 b 340 -22 48 72 165 -22 b 543 56 429 -22 496 11 b 566 0 550 37 557 18 l 627 0 b 513 -139 568 -60 535 -98 b 483 -262 492 -177 483 -216 b 687 -425 483 -359 556 -425 l 773 -425 l 773 -302 l 687 -302 b 629 -250 649 -302 629 -282 z m 528 273 b 389 142 528 194 469 142 b 277 210 313 142 277 167 b 467 305 277 276 366 291 b 528 316 487 308 508 311 z "},"ā":{"ha":837,"x_min":0,"x_max":0,"o":"m 166 826 l 671 826 l 671 972 l 166 972 z m 340 -22 b 543 56 429 -22 496 11 b 566 0 550 37 557 18 l 795 0 b 755 134 774 41 755 93 l 755 492 b 418 738 755 639 622 738 b 82 494 216 738 82 640 l 310 494 b 418 574 310 542 353 574 b 528 496 484 574 528 541 b 364 423 528 448 454 437 b 48 196 225 403 48 375 b 340 -22 48 72 165 -22 z m 389 142 b 277 210 313 142 277 167 b 467 305 277 276 366 291 b 528 316 487 308 508 311 l 528 273 b 389 142 528 194 469 142 z "},"æ":{"ha":1328,"x_min":0,"x_max":0,"o":"m 389 -22 b 654 84 515 -22 602 18 b 906 -22 709 17 793 -22 b 1264 224 1085 -22 1217 73 l 1019 224 b 906 147 997 177 955 147 b 770 289 837 147 783 203 l 1278 289 b 1284 358 1282 311 1284 334 b 906 738 1284 585 1134 738 b 665 644 800 738 719 704 b 418 738 618 703 538 738 b 82 494 216 738 82 640 l 310 494 b 418 574 310 542 353 574 b 528 496 484 574 528 541 b 364 423 528 448 454 437 b 48 196 225 403 48 375 b 389 -22 48 65 184 -22 z m 770 427 b 906 569 784 513 837 569 b 1042 427 975 569 1028 513 z m 389 142 b 277 210 313 142 277 167 b 467 305 277 276 366 292 b 528 316 487 308 508 311 l 528 273 b 389 142 528 194 469 142 z "},"ǽ":{"ha":1328,"x_min":0,"x_max":0,"o":"m 544 818 l 763 818 l 899 1053 l 680 1053 z m 389 -22 b 654 84 515 -22 602 18 b 906 -22 709 17 793 -22 b 1264 224 1085 -22 1217 73 l 1019 224 b 906 147 997 177 955 147 b 770 289 837 147 783 203 l 1278 289 b 1284 358 1282 311 1284 334 b 906 738 1284 585 1134 738 b 665 644 800 738 719 704 b 418 738 618 703 538 738 b 82 494 216 738 82 640 l 310 494 b 418 574 310 542 353 574 b 528 496 484 574 528 541 b 364 423 528 448 454 437 b 48 196 225 403 48 375 b 389 -22 48 65 184 -22 z m 770 427 b 906 569 784 513 837 569 b 1042 427 975 569 1028 513 z m 389 142 b 277 210 313 142 277 167 b 467 305 277 276 366 292 b 528 316 487 308 508 311 l 528 273 b 389 142 528 194 469 142 z "},"b":{"ha":872,"x_min":0,"x_max":0,"o":"m 81 0 l 297 0 l 297 52 b 477 -22 345 5 406 -22 b 828 358 680 -22 828 130 b 477 738 828 586 680 738 b 316 682 415 738 361 718 l 316 998 l 81 998 z m 305 358 b 450 562 305 481 363 562 b 593 358 536 562 593 481 b 450 154 593 235 536 154 b 305 358 363 154 305 235 z "},"c":{"ha":817,"x_min":0,"x_max":0,"o":"m 424 -22 b 779 271 637 -22 758 96 l 544 271 b 424 154 530 201 496 154 b 279 358 336 154 279 235 b 424 562 279 481 336 562 b 544 445 496 562 530 515 l 779 445 b 424 738 758 621 637 738 b 44 358 196 738 44 586 b 424 -22 44 130 196 -22 z "},"ć":{"ha":817,"x_min":0,"x_max":0,"o":"m 303 818 l 522 818 l 658 1053 l 439 1053 z m 424 -22 b 779 271 637 -22 758 96 l 544 271 b 424 154 530 201 496 154 b 279 358 336 154 279 235 b 424 562 279 481 336 562 b 544 445 496 562 530 515 l 779 445 b 424 738 758 621 637 738 b 44 358 196 738 44 586 b 424 -22 44 130 196 -22 z "},"ĉ":{"ha":817,"x_min":0,"x_max":0,"o":"m 117 818 l 330 818 l 424 927 l 517 818 l 730 818 l 500 1053 l 348 1053 z m 424 -22 b 779 271 637 -22 758 96 l 544 271 b 424 154 530 201 496 154 b 279 358 336 154 279 235 b 424 562 279 481 336 562 b 544 445 496 562 530 515 l 779 445 b 424 738 758 621 637 738 b 44 358 196 738 44 586 b 424 -22 44 130 196 -22 z "},"č":{"ha":817,"x_min":0,"x_max":0,"o":"m 348 818 l 500 818 l 730 1053 l 517 1053 l 424 945 l 330 1053 l 117 1053 z m 424 -22 b 779 271 637 -22 758 96 l 544 271 b 424 154 530 201 496 154 b 279 358 336 154 279 235 b 424 562 279 481 336 562 b 544 445 496 562 530 515 l 779 445 b 424 738 758 621 637 738 b 44 358 196 738 44 586 b 424 -22 44 130 196 -22 z "},"ċ":{"ha":817,"x_min":0,"x_max":0,"o":"m 424 804 b 553 933 495 804 553 861 b 424 1062 553 1004 495 1062 b 295 933 353 1062 295 1004 b 424 804 295 861 353 804 z m 424 -22 b 779 271 637 -22 758 96 l 544 271 b 424 154 530 201 496 154 b 279 358 336 154 279 235 b 424 562 279 481 336 562 b 544 445 496 562 530 515 l 779 445 b 424 738 758 621 637 738 b 44 358 196 738 44 586 b 424 -22 44 130 196 -22 z "},"ç":{"ha":817,"x_min":0,"x_max":0,"o":"m 424 154 b 279 358 336 154 279 235 b 424 562 279 481 336 562 b 544 445 496 562 530 515 l 779 445 b 424 738 758 621 637 738 b 44 358 196 738 44 586 b 349 -16 44 156 163 14 l 300 -99 l 300 -221 l 387 -221 b 444 -262 425 -221 444 -237 b 387 -302 444 -286 425 -302 l 300 -302 l 300 -425 l 387 -425 b 591 -262 517 -425 591 -359 b 463 -108 591 -185 546 -128 b 433 -102 454 -105 444 -103 l 482 -18 b 779 271 659 1 760 113 l 544 271 b 424 154 530 201 496 154 z "},"d":{"ha":872,"x_min":0,"x_max":0,"o":"m 395 -22 b 575 52 466 -22 528 5 l 575 0 l 791 0 l 791 998 l 556 998 l 556 682 b 395 738 511 718 457 738 b 44 358 193 738 44 586 b 395 -22 44 130 193 -22 z m 422 154 b 279 358 336 154 279 235 b 422 562 279 481 336 562 b 567 358 509 562 567 481 b 422 154 567 235 509 154 z "},"ď":{"ha":1154,"x_min":0,"x_max":0,"o":"m 395 -22 b 575 52 466 -22 528 5 l 575 0 l 791 0 l 791 998 l 556 998 l 556 682 b 395 738 511 718 457 738 b 44 358 193 738 44 586 b 395 -22 44 130 193 -22 z m 882 716 l 1079 716 l 1154 998 l 958 998 z m 422 154 b 279 358 336 154 279 235 b 422 562 279 481 336 562 b 567 358 509 562 567 481 b 422 154 567 235 509 154 z "},"ð":{"ha":845,"x_min":0,"x_max":0,"o":"m 417 -22 b 791 358 642 -22 791 130 b 707 778 791 509 758 640 l 831 778 l 831 922 l 650 922 b 619 998 641 947 630 973 l 424 998 b 455 922 435 973 446 947 l 316 922 l 316 778 l 512 778 b 542 688 523 747 533 717 b 395 738 501 718 452 738 b 44 358 192 738 44 585 b 417 -22 44 130 193 -22 z m 417 154 b 279 358 334 154 279 235 b 417 562 279 480 334 562 b 556 358 500 562 556 481 b 417 154 556 235 500 154 z "},"đ":{"ha":899,"x_min":0,"x_max":0,"o":"m 395 -22 b 575 52 466 -22 528 5 l 575 0 l 791 0 l 791 778 l 886 778 l 886 922 l 791 922 l 791 998 l 556 998 l 556 922 l 370 922 l 370 778 l 556 778 l 556 682 b 395 738 511 718 457 738 b 44 358 193 738 44 586 b 395 -22 44 130 193 -22 z m 422 154 b 279 358 336 154 279 235 b 422 562 279 481 336 562 b 567 358 509 562 567 481 b 422 154 567 235 509 154 z "},"e":{"ha":844,"x_min":0,"x_max":0,"o":"m 422 -22 b 781 224 602 -22 734 73 l 536 224 b 422 147 514 177 471 147 b 286 289 353 147 300 203 l 795 289 b 800 358 799 311 800 334 b 422 738 800 585 650 738 b 44 358 195 738 44 586 b 422 -22 44 130 195 -22 z m 286 427 b 422 569 300 513 353 569 b 558 427 491 569 545 513 z "},"é":{"ha":844,"x_min":0,"x_max":0,"o":"m 302 818 l 521 818 l 656 1053 l 437 1053 z m 422 -22 b 781 224 602 -22 734 73 l 536 224 b 422 147 514 177 471 147 b 286 289 353 147 300 203 l 795 289 b 800 358 799 311 800 334 b 422 738 800 585 650 738 b 44 358 195 738 44 586 b 422 -22 44 130 195 -22 z m 286 427 b 422 569 300 513 353 569 b 558 427 491 569 545 513 z "},"è":{"ha":844,"x_min":0,"x_max":0,"o":"m 324 818 l 543 818 l 408 1053 l 189 1053 z m 422 -22 b 781 224 602 -22 734 73 l 536 224 b 422 147 514 177 471 147 b 286 289 353 147 300 203 l 795 289 b 800 358 799 311 800 334 b 422 738 800 585 650 738 b 44 358 195 738 44 586 b 422 -22 44 130 195 -22 z m 286 427 b 422 569 300 513 353 569 b 558 427 491 569 545 513 z "},"ĕ":{"ha":844,"x_min":0,"x_max":0,"o":"m 422 807 b 695 1042 586 807 695 901 l 548 1042 b 422 954 548 989 498 954 b 297 1042 347 954 297 989 l 150 1042 b 422 807 150 901 259 807 z m 422 -22 b 781 224 602 -22 734 73 l 536 224 b 422 147 514 177 471 147 b 286 289 353 147 300 203 l 795 289 b 800 358 799 311 800 334 b 422 738 800 585 650 738 b 44 358 195 738 44 586 b 422 -22 44 130 195 -22 z m 286 427 b 422 569 300 513 353 569 b 558 427 491 569 545 513 z "},"ê":{"ha":844,"x_min":0,"x_max":0,"o":"m 116 818 l 329 818 l 422 927 l 516 818 l 729 818 l 498 1053 l 347 1053 z m 422 -22 b 781 224 602 -22 734 73 l 536 224 b 422 147 514 177 471 147 b 286 289 353 147 300 203 l 795 289 b 800 358 799 311 800 334 b 422 738 800 585 650 738 b 44 358 195 738 44 586 b 422 -22 44 130 195 -22 z m 286 427 b 422 569 300 513 353 569 b 558 427 491 569 545 513 z "},"ě":{"ha":844,"x_min":0,"x_max":0,"o":"m 347 818 l 498 818 l 729 1053 l 516 1053 l 422 945 l 329 1053 l 116 1053 z m 422 -22 b 781 224 602 -22 734 73 l 536 224 b 422 147 514 177 471 147 b 286 289 353 147 300 203 l 795 289 b 800 358 799 311 800 334 b 422 738 800 585 650 738 b 44 358 195 738 44 586 b 422 -22 44 130 195 -22 z m 286 427 b 422 569 300 513 353 569 b 558 427 491 569 545 513 z "},"ë":{"ha":844,"x_min":0,"x_max":0,"o":"m 264 812 b 385 933 331 812 385 866 b 264 1054 385 1000 331 1054 b 143 933 197 1054 143 1000 b 264 812 143 866 197 812 z m 581 812 b 702 933 648 812 702 866 b 581 1054 702 1000 648 1054 b 460 933 514 1054 460 1000 b 581 812 460 866 514 812 z m 422 -22 b 781 224 602 -22 734 73 l 536 224 b 422 147 514 177 471 147 b 286 289 353 147 300 203 l 795 289 b 800 358 799 311 800 334 b 422 738 800 585 650 738 b 44 358 195 738 44 586 b 422 -22 44 130 195 -22 z m 286 427 b 422 569 300 513 353 569 b 558 427 491 569 545 513 z "},"ẽ":{"ha":844,"x_min":0,"x_max":0,"o":"m 522 807 b 736 1042 650 807 736 901 l 589 1042 b 522 954 589 989 562 954 b 450 994 496 954 474 972 b 323 1053 418 1022 381 1053 b 109 818 195 1053 109 959 l 256 818 b 323 907 256 871 283 907 b 395 866 349 907 371 888 b 522 807 427 838 464 807 z m 422 -22 b 781 224 602 -22 734 73 l 536 224 b 422 147 514 177 471 147 b 286 289 353 147 300 203 l 795 289 b 800 358 799 311 800 334 b 422 738 800 585 650 738 b 44 358 195 738 44 586 b 422 -22 44 130 195 -22 z m 286 427 b 422 569 300 513 353 569 b 558 427 491 569 545 513 z "},"ė":{"ha":844,"x_min":0,"x_max":0,"o":"m 422 804 b 551 933 494 804 551 861 b 422 1062 551 1004 494 1062 b 294 933 351 1062 294 1004 b 422 804 294 861 351 804 z m 422 -22 b 781 224 602 -22 734 73 l 536 224 b 422 147 514 177 471 147 b 286 289 353 147 300 203 l 795 289 b 800 358 799 311 800 334 b 422 738 800 585 650 738 b 44 358 195 738 44 586 b 422 -22 44 130 195 -22 z m 286 427 b 422 569 300 513 353 569 b 558 427 491 569 545 513 z "},"ẹ":{"ha":844,"x_min":0,"x_max":0,"o":"m 422 -22 b 781 224 602 -22 734 73 l 536 224 b 422 147 514 177 471 147 b 286 289 353 147 300 203 l 795 289 b 800 358 799 311 800 334 b 422 738 800 585 650 738 b 44 358 195 738 44 586 b 422 -22 44 130 195 -22 z m 286 427 b 422 569 300 513 353 569 b 558 427 491 569 545 513 z m 422 -346 b 551 -217 494 -346 551 -288 b 422 -88 551 -146 494 -88 b 294 -217 351 -88 294 -146 b 422 -346 294 -288 351 -346 z "},"ę":{"ha":844,"x_min":0,"x_max":0,"o":"m 800 358 b 422 738 800 585 650 738 b 44 358 195 738 44 586 b 375 -20 44 146 174 1 b 280 -139 328 -68 299 -103 b 250 -262 259 -177 250 -216 b 454 -425 250 -359 323 -425 l 540 -425 l 540 -302 l 454 -302 b 396 -250 416 -302 396 -282 b 429 -158 396 -224 408 -192 b 562 0 458 -111 505 -56 b 781 224 669 36 747 115 l 536 224 b 422 147 514 177 471 147 b 286 289 353 147 300 203 l 795 289 b 800 358 799 311 800 334 z m 286 427 b 422 569 300 513 353 569 b 558 427 491 569 545 513 z "},"ē":{"ha":844,"x_min":0,"x_max":0,"o":"m 170 826 l 675 826 l 675 972 l 170 972 z m 422 -22 b 781 224 602 -22 734 73 l 536 224 b 422 147 514 177 471 147 b 286 289 353 147 300 203 l 795 289 b 800 358 799 311 800 334 b 422 738 800 585 650 738 b 44 358 195 738 44 586 b 422 -22 44 130 195 -22 z m 286 427 b 422 569 300 513 353 569 b 558 427 491 569 545 513 z "},"f":{"ha":547,"x_min":0,"x_max":0,"o":"m 140 0 l 375 0 l 375 565 l 521 565 l 521 716 l 375 716 l 375 766 b 422 823 375 801 391 823 l 521 823 l 521 998 l 388 998 b 140 775 239 998 140 909 l 140 716 l 28 716 l 28 565 l 140 565 z "},"g":{"ha":872,"x_min":0,"x_max":0,"o":"m 427 -304 b 791 0 646 -304 791 -182 l 791 716 l 575 716 l 575 665 b 395 738 528 711 466 738 b 44 358 193 738 44 586 b 395 -22 44 130 193 -22 b 556 34 457 -22 511 -2 l 556 0 b 427 -128 556 -77 505 -128 b 315 -68 376 -128 336 -105 l 71 -68 b 427 -304 102 -212 237 -304 z m 422 154 b 279 358 336 154 279 235 b 422 562 279 481 336 562 b 567 358 509 562 567 481 b 422 154 567 235 509 154 z "},"ğ":{"ha":872,"x_min":0,"x_max":0,"o":"m 428 807 b 701 1042 591 807 701 901 l 553 1042 b 428 954 553 989 503 954 b 302 1042 353 954 302 989 l 155 1042 b 428 807 155 901 264 807 z m 427 -304 b 791 0 646 -304 791 -182 l 791 716 l 575 716 l 575 665 b 395 738 528 711 466 738 b 44 358 193 738 44 586 b 395 -22 44 130 193 -22 b 556 34 457 -22 511 -2 l 556 0 b 427 -128 556 -77 505 -128 b 315 -68 376 -128 336 -105 l 71 -68 b 427 -304 102 -212 237 -304 z m 422 154 b 279 358 336 154 279 235 b 422 562 279 481 336 562 b 567 358 509 562 567 481 b 422 154 567 235 509 154 z "},"ĝ":{"ha":872,"x_min":0,"x_max":0,"o":"m 121 818 l 334 818 l 428 927 l 522 818 l 734 818 l 504 1053 l 352 1053 z m 427 -304 b 791 0 646 -304 791 -182 l 791 716 l 575 716 l 575 665 b 395 738 528 711 466 738 b 44 358 193 738 44 586 b 395 -22 44 130 193 -22 b 556 34 457 -22 511 -2 l 556 0 b 427 -128 556 -77 505 -128 b 315 -68 376 -128 336 -105 l 71 -68 b 427 -304 102 -212 237 -304 z m 422 154 b 279 358 336 154 279 235 b 422 562 279 481 336 562 b 567 358 509 562 567 481 b 422 154 567 235 509 154 z "},"ǧ":{"ha":872,"x_min":0,"x_max":0,"o":"m 352 818 l 504 818 l 734 1053 l 522 1053 l 428 945 l 334 1053 l 121 1053 z m 427 -304 b 791 0 646 -304 791 -182 l 791 716 l 575 716 l 575 665 b 395 738 528 711 466 738 b 44 358 193 738 44 586 b 395 -22 44 130 193 -22 b 556 34 457 -22 511 -2 l 556 0 b 427 -128 556 -77 505 -128 b 315 -68 376 -128 336 -105 l 71 -68 b 427 -304 102 -212 237 -304 z m 422 154 b 279 358 336 154 279 235 b 422 562 279 481 336 562 b 567 358 509 562 567 481 b 422 154 567 235 509 154 z "},"ġ":{"ha":872,"x_min":0,"x_max":0,"o":"m 428 804 b 557 933 499 804 557 861 b 428 1062 557 1004 499 1062 b 299 933 357 1062 299 1004 b 428 804 299 861 357 804 z m 427 -304 b 791 0 646 -304 791 -182 l 791 716 l 575 716 l 575 665 b 395 738 528 711 466 738 b 44 358 193 738 44 586 b 395 -22 44 130 193 -22 b 556 34 457 -22 511 -2 l 556 0 b 427 -128 556 -77 505 -128 b 315 -68 376 -128 336 -105 l 71 -68 b 427 -304 102 -212 237 -304 z m 422 154 b 279 358 336 154 279 235 b 422 562 279 481 336 562 b 567 358 509 562 567 481 b 422 154 567 235 509 154 z "},"ģ":{"ha":872,"x_min":0,"x_max":0,"o":"m 427 812 b 549 932 494 812 549 867 b 427 1054 549 1000 494 1054 b 412 1052 422 1054 416 1053 l 412 1056 b 519 1106 412 1088 449 1106 l 519 1201 b 307 1056 382 1201 307 1149 l 307 932 b 427 812 307 867 361 812 z m 427 -304 b 791 0 646 -304 791 -182 l 791 716 l 575 716 l 575 665 b 395 738 528 711 466 738 b 44 358 193 738 44 586 b 395 -22 44 130 193 -22 b 556 34 457 -22 511 -2 l 556 0 b 427 -128 556 -77 505 -128 b 315 -68 376 -128 336 -105 l 71 -68 b 427 -304 102 -212 237 -304 z m 422 154 b 279 358 336 154 279 235 b 422 562 279 481 336 562 b 567 358 509 562 567 481 b 422 154 567 235 509 154 z "},"h":{"ha":868,"x_min":0,"x_max":0,"o":"m 81 0 l 316 0 l 316 444 b 434 562 316 515 363 562 b 552 443 505 562 552 514 l 552 0 l 787 0 l 787 443 b 487 738 787 619 647 738 b 316 659 412 738 353 705 l 316 998 l 81 998 z "},"ĥ":{"ha":868,"x_min":0,"x_max":0,"o":"m -108 1095 l 105 1095 l 199 1204 l 292 1095 l 505 1095 l 275 1331 l 123 1331 z m 81 0 l 316 0 l 316 444 b 434 562 316 515 363 562 b 552 443 505 562 552 514 l 552 0 l 787 0 l 787 443 b 487 738 787 619 647 738 b 316 659 412 738 353 705 l 316 998 l 81 998 z "},"ħ":{"ha":895,"x_min":0,"x_max":0,"o":"m 109 0 l 343 0 l 343 444 b 461 562 343 515 390 562 b 579 443 532 562 579 514 l 579 0 l 814 0 l 814 443 b 514 738 814 619 674 738 b 343 659 439 738 379 705 l 343 778 l 529 778 l 529 922 l 343 922 l 343 998 l 109 998 l 109 922 l 14 922 l 14 778 l 109 778 z "},"ı":{"ha":397,"x_min":0,"x_max":0,"o":"m 81 0 l 316 0 l 316 716 l 81 716 z "},"i":{"ha":397,"x_min":0,"x_max":0,"o":"m 199 804 b 328 933 270 804 328 861 b 199 1062 328 1004 270 1062 b 70 933 127 1062 70 1004 b 199 804 70 861 127 804 z m 81 0 l 316 0 l 316 716 l 81 716 z "},"í":{"ha":397,"x_min":0,"x_max":0,"o":"m 78 818 l 297 818 l 433 1053 l 214 1053 z m 81 0 l 316 0 l 316 716 l 81 716 z "},"ì":{"ha":397,"x_min":0,"x_max":0,"o":"m 100 818 l 319 818 l 184 1053 l -35 1053 z m 81 0 l 316 0 l 316 716 l 81 716 z "},"ĭ":{"ha":397,"x_min":0,"x_max":0,"o":"m 199 807 b 471 1042 362 807 471 901 l 324 1042 b 199 954 324 989 274 954 b 73 1042 123 954 73 989 l -74 1042 b 199 807 -74 901 35 807 z m 81 0 l 316 0 l 316 716 l 81 716 z "},"î":{"ha":397,"x_min":0,"x_max":0,"o":"m -108 818 l 105 818 l 199 927 l 292 818 l 505 818 l 275 1053 l 123 1053 z m 81 0 l 316 0 l 316 716 l 81 716 z "},"ï":{"ha":397,"x_min":0,"x_max":0,"o":"m 40 812 b 161 933 107 812 161 866 b 40 1054 161 1000 107 1054 b -81 933 -27 1054 -81 1000 b 40 812 -81 866 -27 812 z m 357 812 b 478 933 425 812 478 866 b 357 1054 478 1000 425 1054 b 237 933 290 1054 237 1000 b 357 812 237 866 290 812 z m 81 0 l 316 0 l 316 716 l 81 716 z "},"ĩ":{"ha":397,"x_min":0,"x_max":0,"o":"m 298 807 b 512 1042 427 807 512 901 l 366 1042 b 298 954 366 989 338 954 b 226 994 272 954 250 972 b 99 1053 194 1022 157 1053 b -115 818 -29 1053 -115 959 l 32 818 b 99 907 32 871 59 907 b 172 866 125 907 147 888 b 298 807 203 838 240 807 z m 81 0 l 316 0 l 316 716 l 81 716 z "},"ị":{"ha":397,"x_min":0,"x_max":0,"o":"m 199 804 b 328 933 270 804 328 861 b 199 1062 328 1004 270 1062 b 70 933 127 1062 70 1004 b 199 804 70 861 127 804 z m 81 0 l 316 0 l 316 716 l 81 716 z m 199 -346 b 328 -217 270 -346 328 -288 b 199 -88 328 -146 270 -88 b 70 -217 127 -88 70 -146 b 199 -346 70 -288 127 -346 z "},"į":{"ha":397,"x_min":0,"x_max":0,"o":"m 199 804 b 328 933 270 804 328 861 b 199 1062 328 1004 270 1062 b 70 933 127 1062 70 1004 b 199 804 70 861 127 804 z m 81 0 l 149 0 b 35 -139 90 -60 56 -98 b 4 -262 14 -177 4 -216 b 208 -425 4 -359 77 -425 l 294 -425 l 294 -302 l 208 -302 b 151 -250 170 -302 151 -282 b 183 -158 151 -224 162 -192 b 316 0 213 -111 260 -56 l 316 716 l 81 716 z "},"ī":{"ha":397,"x_min":0,"x_max":0,"o":"m -54 826 l 451 826 l 451 972 l -54 972 z m 81 0 l 316 0 l 316 716 l 81 716 z "},"ĳ":{"ha":793,"x_min":0,"x_max":0,"o":"m 199 804 b 328 933 270 804 328 861 b 199 1062 328 1004 270 1062 b 70 933 127 1062 70 1004 b 199 804 70 861 127 804 z m 595 804 b 723 933 666 804 723 861 b 595 1062 723 1004 666 1062 b 466 933 523 1062 466 1004 b 595 804 466 861 523 804 z m 81 0 l 316 0 l 316 716 l 81 716 z m 358 -282 l 464 -282 b 712 -59 612 -282 712 -193 l 712 716 l 477 716 l 477 -44 b 429 -100 477 -78 461 -100 l 358 -100 z "},"ȷ":{"ha":396,"x_min":0,"x_max":0,"o":"m -39 -282 l 66 -282 b 315 -59 215 -282 315 -193 l 315 716 l 79 716 l 79 -44 b 32 -100 79 -78 64 -100 l -39 -100 z "},"j":{"ha":396,"x_min":0,"x_max":0,"o":"m 197 804 b 326 933 269 804 326 861 b 197 1062 326 1004 269 1062 b 68 933 125 1062 68 1004 b 197 804 68 861 125 804 z m -39 -282 l 66 -282 b 315 -59 215 -282 315 -193 l 315 716 l 79 716 l 79 -44 b 32 -100 79 -78 64 -100 l -39 -100 z "},"ĵ":{"ha":396,"x_min":0,"x_max":0,"o":"m -109 818 l 104 818 l 197 927 l 291 818 l 504 818 l 273 1053 l 121 1053 z m -39 -282 l 66 -282 b 315 -59 215 -282 315 -193 l 315 716 l 79 716 l 79 -44 b 32 -100 79 -78 64 -100 l -39 -100 z "},"k":{"ha":860,"x_min":0,"x_max":0,"o":"m 81 0 l 316 0 l 316 220 l 366 270 l 559 0 l 831 0 l 523 429 l 810 716 l 531 716 l 316 503 l 316 998 l 81 998 z "},"ķ":{"ha":860,"x_min":0,"x_max":0,"o":"m 81 0 l 316 0 l 316 220 l 366 270 l 559 0 l 831 0 l 523 429 l 810 716 l 531 716 l 316 503 l 316 998 l 81 998 z m 337 -477 b 549 -332 474 -477 549 -425 l 549 -208 b 429 -88 549 -142 495 -88 b 308 -208 362 -88 308 -142 b 429 -329 308 -275 362 -329 b 445 -327 434 -329 440 -328 l 445 -332 b 337 -382 445 -363 408 -382 z "},"ĸ":{"ha":860,"x_min":0,"x_max":0,"o":"m 81 0 l 316 0 l 316 220 l 366 270 l 559 0 l 831 0 l 523 429 l 810 716 l 531 716 l 316 503 l 316 716 l 81 716 z "},"l":{"ha":397,"x_min":0,"x_max":0,"o":"m 81 0 l 316 0 l 316 998 l 81 998 z "},"ĺ":{"ha":397,"x_min":0,"x_max":0,"o":"m 78 1095 l 297 1095 l 433 1331 l 214 1331 z m 81 0 l 316 0 l 316 998 l 81 998 z "},"ľ":{"ha":680,"x_min":0,"x_max":0,"o":"m 81 0 l 316 0 l 316 998 l 81 998 z m 408 716 l 604 716 l 680 998 l 483 998 z "},"ŀ":{"ha":681,"x_min":0,"x_max":0,"o":"m 81 0 l 316 0 l 316 998 l 81 998 z m 540 357 b 681 500 617 357 681 420 b 540 641 681 577 617 641 b 397 500 461 641 397 577 b 540 357 397 420 461 357 z "},"ļ":{"ha":397,"x_min":0,"x_max":0,"o":"m 81 0 l 316 0 l 316 998 l 81 998 z m 107 -477 b 319 -332 244 -477 319 -425 l 319 -208 b 199 -88 319 -142 265 -88 b 78 -208 132 -88 78 -142 b 199 -329 78 -275 132 -329 b 215 -327 204 -329 210 -328 l 215 -332 b 107 -382 215 -363 178 -382 z "},"ł":{"ha":522,"x_min":0,"x_max":0,"o":"m 144 0 l 378 0 l 378 468 l 500 538 l 500 736 l 378 666 l 378 998 l 144 998 l 144 530 l 22 460 l 22 262 l 144 333 z "},"m":{"ha":1286,"x_min":0,"x_max":0,"o":"m 81 0 l 316 0 l 316 454 b 421 562 316 519 358 562 b 526 455 484 562 526 519 l 526 0 l 761 0 l 761 454 b 865 562 761 519 802 562 b 970 455 929 562 970 519 l 970 0 l 1205 0 l 1205 455 b 889 738 1205 623 1070 738 b 677 655 800 738 730 704 b 474 738 625 707 551 738 b 297 656 394 738 338 703 l 297 716 l 81 716 z "},"n":{"ha":868,"x_min":0,"x_max":0,"o":"m 81 0 l 316 0 l 316 444 b 434 562 316 515 363 562 b 552 443 505 562 552 514 l 552 0 l 787 0 l 787 443 b 487 738 787 619 647 738 b 297 656 399 738 339 703 l 297 716 l 81 716 z "},"ń":{"ha":868,"x_min":0,"x_max":0,"o":"m 313 818 l 532 818 l 668 1053 l 449 1053 z m 81 0 l 316 0 l 316 444 b 434 562 316 515 363 562 b 552 443 505 562 552 514 l 552 0 l 787 0 l 787 443 b 487 738 787 619 647 738 b 297 656 399 738 339 703 l 297 716 l 81 716 z "},"ň":{"ha":868,"x_min":0,"x_max":0,"o":"m 358 818 l 510 818 l 741 1053 l 528 1053 l 434 945 l 340 1053 l 127 1053 z m 81 0 l 316 0 l 316 444 b 434 562 316 515 363 562 b 552 443 505 562 552 514 l 552 0 l 787 0 l 787 443 b 487 738 787 619 647 738 b 297 656 399 738 339 703 l 297 716 l 81 716 z "},"ñ":{"ha":868,"x_min":0,"x_max":0,"o":"m 534 807 b 747 1042 662 807 747 901 l 601 1042 b 534 954 601 989 574 954 b 461 994 507 954 486 972 b 334 1053 429 1022 393 1053 b 121 818 206 1053 121 959 l 267 818 b 334 907 267 871 294 907 b 407 866 361 907 382 888 b 534 807 439 838 475 807 z m 81 0 l 316 0 l 316 444 b 434 562 316 515 363 562 b 552 443 505 562 552 514 l 552 0 l 787 0 l 787 443 b 487 738 787 619 647 738 b 297 656 399 738 339 703 l 297 716 l 81 716 z "},"ņ":{"ha":868,"x_min":0,"x_max":0,"o":"m 81 0 l 316 0 l 316 444 b 434 562 316 515 363 562 b 552 443 505 562 552 514 l 552 0 l 787 0 l 787 443 b 487 738 787 619 647 738 b 297 656 399 738 339 703 l 297 716 l 81 716 z m 342 -477 b 555 -332 479 -477 555 -425 l 555 -208 b 435 -88 555 -142 500 -88 b 313 -208 368 -88 313 -142 b 435 -329 313 -275 368 -329 b 450 -327 439 -329 446 -328 l 450 -332 b 342 -382 450 -363 413 -382 z "},"ŉ":{"ha":1198,"x_min":0,"x_max":0,"o":"m 59 555 b 308 724 220 555 308 615 l 308 878 b 167 1020 308 956 244 1020 b 24 878 87 1020 24 956 b 167 736 24 800 89 736 b 186 739 173 736 180 737 l 186 724 b 59 666 186 687 141 666 z m 412 0 l 646 0 l 646 444 b 764 562 646 515 693 562 b 882 443 836 562 882 514 l 882 0 l 1117 0 l 1117 443 b 818 738 1117 619 977 738 b 627 656 730 738 669 703 l 627 716 l 412 716 z "},"ŋ":{"ha":868,"x_min":0,"x_max":0,"o":"m 433 -282 l 538 -282 b 787 -59 687 -282 787 -193 l 787 443 b 487 738 787 619 647 738 b 297 656 399 738 339 703 l 297 716 l 81 716 l 81 0 l 316 0 l 316 444 b 434 562 316 515 363 562 b 552 443 505 562 552 514 l 552 -44 b 504 -100 552 -78 536 -100 l 433 -100 z "},"ɲ":{"ha":868,"x_min":0,"x_max":0,"o":"m -37 -282 l 68 -282 b 316 -59 217 -282 316 -193 l 316 444 b 434 562 316 515 363 562 b 552 443 505 562 552 514 l 552 0 l 787 0 l 787 443 b 487 738 787 619 647 738 b 297 656 399 738 339 703 l 297 716 l 81 716 l 81 -44 b 33 -100 81 -78 66 -100 l -37 -100 z "},"o":{"ha":857,"x_min":0,"x_max":0,"o":"m 429 -22 b 813 358 659 -22 813 130 b 429 738 813 585 661 738 b 44 358 198 738 44 586 b 429 -22 44 130 198 -22 z m 429 154 b 279 358 338 154 279 235 b 429 562 279 481 338 562 b 578 358 518 562 578 481 b 429 154 578 235 518 154 z "},"ó":{"ha":857,"x_min":0,"x_max":0,"o":"m 308 818 l 527 818 l 663 1053 l 444 1053 z m 429 -22 b 813 358 659 -22 813 130 b 429 738 813 585 661 738 b 44 358 198 738 44 586 b 429 -22 44 130 198 -22 z m 429 154 b 279 358 338 154 279 235 b 429 562 279 481 338 562 b 578 358 518 562 578 481 b 429 154 578 235 518 154 z "},"ò":{"ha":857,"x_min":0,"x_max":0,"o":"m 330 818 l 549 818 l 414 1053 l 195 1053 z m 429 -22 b 813 358 659 -22 813 130 b 429 738 813 585 661 738 b 44 358 198 738 44 586 b 429 -22 44 130 198 -22 z m 429 154 b 279 358 338 154 279 235 b 429 562 279 481 338 562 b 578 358 518 562 578 481 b 429 154 578 235 518 154 z "},"ŏ":{"ha":857,"x_min":0,"x_max":0,"o":"m 429 807 b 701 1042 592 807 701 901 l 554 1042 b 429 954 554 989 504 954 b 303 1042 353 954 303 989 l 156 1042 b 429 807 156 901 265 807 z m 429 -22 b 813 358 659 -22 813 130 b 429 738 813 585 661 738 b 44 358 198 738 44 586 b 429 -22 44 130 198 -22 z m 429 154 b 279 358 338 154 279 235 b 429 562 279 481 338 562 b 578 358 518 562 578 481 b 429 154 578 235 518 154 z "},"ô":{"ha":857,"x_min":0,"x_max":0,"o":"m 122 818 l 335 818 l 429 927 l 522 818 l 735 818 l 505 1053 l 353 1053 z m 429 -22 b 813 358 659 -22 813 130 b 429 738 813 585 661 738 b 44 358 198 738 44 586 b 429 -22 44 130 198 -22 z m 429 154 b 279 358 338 154 279 235 b 429 562 279 481 338 562 b 578 358 518 562 578 481 b 429 154 578 235 518 154 z "},"ö":{"ha":857,"x_min":0,"x_max":0,"o":"m 270 812 b 391 933 337 812 391 866 b 270 1054 391 1000 337 1054 b 149 933 203 1054 149 1000 b 270 812 149 866 203 812 z m 587 812 b 708 933 654 812 708 866 b 587 1054 708 1000 654 1054 b 467 933 520 1054 467 1000 b 587 812 467 866 520 812 z m 429 -22 b 813 358 659 -22 813 130 b 429 738 813 585 661 738 b 44 358 198 738 44 586 b 429 -22 44 130 198 -22 z m 429 154 b 279 358 338 154 279 235 b 429 562 279 481 338 562 b 578 358 518 562 578 481 b 429 154 578 235 518 154 z "},"ő":{"ha":857,"x_min":0,"x_max":0,"o":"m 144 818 l 363 818 l 498 1053 l 279 1053 z m 473 818 l 692 818 l 828 1053 l 609 1053 z m 429 -22 b 813 358 659 -22 813 130 b 429 738 813 585 661 738 b 44 358 198 738 44 586 b 429 -22 44 130 198 -22 z m 429 154 b 279 358 338 154 279 235 b 429 562 279 481 338 562 b 578 358 518 562 578 481 b 429 154 578 235 518 154 z "},"õ":{"ha":857,"x_min":0,"x_max":0,"o":"m 528 807 b 742 1042 656 807 742 901 l 595 1042 b 528 954 595 989 568 954 b 456 994 502 954 480 972 b 329 1053 424 1022 387 1053 b 115 818 201 1053 115 959 l 262 818 b 329 907 262 871 289 907 b 401 866 355 907 377 888 b 528 807 433 838 470 807 z m 429 -22 b 813 358 659 -22 813 130 b 429 738 813 585 661 738 b 44 358 198 738 44 586 b 429 -22 44 130 198 -22 z m 429 154 b 279 358 338 154 279 235 b 429 562 279 481 338 562 b 578 358 518 562 578 481 b 429 154 578 235 518 154 z "},"ọ":{"ha":857,"x_min":0,"x_max":0,"o":"m 429 -22 b 813 358 659 -22 813 130 b 429 738 813 585 661 738 b 44 358 198 738 44 586 b 429 -22 44 130 198 -22 z m 429 154 b 279 358 338 154 279 235 b 429 562 279 481 338 562 b 578 358 518 562 578 481 b 429 154 578 235 518 154 z m 429 -346 b 557 -217 500 -346 557 -288 b 429 -88 557 -146 500 -88 b 300 -217 357 -88 300 -146 b 429 -346 300 -288 357 -346 z "},"ǫ":{"ha":857,"x_min":0,"x_max":0,"o":"m 570 0 b 813 358 720 49 813 180 b 429 738 813 585 661 738 b 44 358 198 738 44 586 b 383 -20 44 146 178 -1 b 288 -139 336 -68 307 -103 b 258 -262 267 -177 258 -216 b 462 -425 258 -359 331 -425 l 548 -425 l 548 -302 l 462 -302 b 404 -250 424 -302 404 -282 b 437 -158 404 -224 416 -192 b 570 0 467 -111 513 -56 z m 279 358 b 429 562 279 481 338 562 b 578 358 518 562 578 481 b 429 154 578 235 518 154 b 279 358 338 154 279 235 z "},"ō":{"ha":857,"x_min":0,"x_max":0,"o":"m 176 826 l 681 826 l 681 972 l 176 972 z m 429 -22 b 813 358 659 -22 813 130 b 429 738 813 585 661 738 b 44 358 198 738 44 586 b 429 -22 44 130 198 -22 z m 429 154 b 279 358 338 154 279 235 b 429 562 279 481 338 562 b 578 358 518 562 578 481 b 429 154 578 235 518 154 z "},"ø":{"ha":857,"x_min":0,"x_max":0,"o":"m 721 619 l 760 666 l 675 738 l 634 688 b 429 738 576 720 507 738 b 44 358 198 738 44 586 b 137 96 44 252 78 162 l 98 50 l 182 -22 l 224 28 b 429 -22 281 -4 351 -22 b 813 358 659 -22 813 130 b 721 619 813 464 780 553 z m 279 358 b 429 562 279 481 338 562 b 507 537 458 562 485 553 l 289 277 b 279 358 282 301 279 328 z m 429 154 b 351 179 399 154 373 163 l 569 438 b 578 358 575 414 578 387 b 429 154 578 235 518 154 z "},"ǿ":{"ha":857,"x_min":0,"x_max":0,"o":"m 663 1053 l 444 1053 l 308 818 l 527 818 z m 721 619 l 760 666 l 675 738 l 634 688 b 429 738 576 720 507 738 b 44 358 198 738 44 586 b 137 96 44 252 78 162 l 98 50 l 182 -22 l 224 28 b 429 -22 281 -4 351 -22 b 813 358 659 -22 813 130 b 721 619 813 464 780 553 z m 279 358 b 429 562 279 481 338 562 b 507 537 458 562 485 553 l 289 277 b 279 358 282 301 279 328 z m 429 154 b 351 179 399 154 373 163 l 569 438 b 578 358 575 414 578 387 b 429 154 578 235 518 154 z "},"œ":{"ha":1379,"x_min":0,"x_max":0,"o":"m 429 -22 b 695 100 549 -22 637 23 b 956 -22 751 23 839 -22 b 1315 224 1136 -22 1268 73 l 1070 224 b 956 147 1048 177 1005 147 b 821 289 888 147 834 203 l 1329 289 b 1335 358 1333 311 1335 334 b 956 738 1335 585 1185 738 b 695 615 839 738 751 692 b 429 738 637 692 549 738 b 44 358 198 738 44 586 b 429 -22 44 130 198 -22 z m 821 427 b 956 569 834 513 888 569 b 1093 427 1025 569 1079 513 z m 429 154 b 279 358 338 154 279 235 b 429 562 279 481 338 562 b 578 358 518 562 578 481 b 429 154 578 235 518 154 z "},"p":{"ha":872,"x_min":0,"x_max":0,"o":"m 81 -282 l 316 -282 l 316 34 b 477 -22 361 -2 415 -22 b 828 358 680 -22 828 130 b 477 738 828 586 680 738 b 297 665 406 738 345 711 l 297 716 l 81 716 z m 450 154 b 305 358 363 154 305 235 b 450 562 305 481 363 562 b 593 358 536 562 593 481 b 450 154 593 235 536 154 z "},"q":{"ha":872,"x_min":0,"x_max":0,"o":"m 556 -282 l 791 -282 l 791 716 l 575 716 l 575 665 b 395 738 528 711 466 738 b 44 358 193 738 44 586 b 395 -22 44 130 193 -22 b 556 34 457 -22 511 -2 z m 422 154 b 279 358 336 154 279 235 b 422 562 279 481 336 562 b 567 358 509 562 567 481 b 422 154 567 235 509 154 z "},"r":{"ha":597,"x_min":0,"x_max":0,"o":"m 566 558 l 566 728 b 487 738 541 734 514 738 b 297 656 399 738 339 703 l 297 716 l 81 716 l 81 0 l 316 0 l 316 444 b 476 565 316 534 382 565 b 566 558 504 565 534 562 z "},"ŕ":{"ha":597,"x_min":0,"x_max":0,"o":"m 189 818 l 408 818 l 543 1053 l 324 1053 z m 566 558 l 566 728 b 487 738 541 734 514 738 b 297 656 399 738 339 703 l 297 716 l 81 716 l 81 0 l 316 0 l 316 444 b 476 565 316 534 382 565 b 566 558 504 565 534 562 z "},"ř":{"ha":597,"x_min":0,"x_max":0,"o":"m 233 818 l 385 818 l 616 1053 l 403 1053 l 309 945 l 216 1053 l 3 1053 z m 566 558 l 566 728 b 487 738 541 734 514 738 b 297 656 399 738 339 703 l 297 716 l 81 716 l 81 0 l 316 0 l 316 444 b 476 565 316 534 382 565 b 566 558 504 565 534 562 z "},"ŗ":{"ha":597,"x_min":0,"x_max":0,"o":"m 566 558 l 566 728 b 487 738 541 734 514 738 b 297 656 399 738 339 703 l 297 716 l 81 716 l 81 0 l 316 0 l 316 444 b 476 565 316 534 382 565 b 566 558 504 565 534 562 z m 107 -477 b 319 -332 244 -477 319 -425 l 319 -208 b 199 -88 319 -142 265 -88 b 78 -208 132 -88 78 -142 b 199 -329 78 -275 132 -329 b 215 -327 204 -329 210 -328 l 215 -332 b 107 -382 215 -363 178 -382 z "},"s":{"ha":795,"x_min":0,"x_max":0,"o":"m 399 -22 b 747 212 607 -22 747 71 b 444 451 747 394 574 427 b 299 522 363 466 299 479 b 399 574 299 553 339 574 b 500 511 460 574 500 549 l 728 511 b 399 738 728 646 597 738 b 71 522 202 738 71 652 b 357 300 71 361 229 328 b 518 212 444 281 518 264 b 399 142 518 170 471 142 b 280 227 328 142 280 176 l 52 227 b 399 -22 52 78 191 -22 z "},"ś":{"ha":795,"x_min":0,"x_max":0,"o":"m 279 818 l 498 818 l 633 1053 l 414 1053 z m 399 -22 b 747 212 607 -22 747 71 b 444 451 747 394 574 427 b 299 522 363 466 299 479 b 399 574 299 553 339 574 b 500 511 460 574 500 549 l 728 511 b 399 738 728 646 597 738 b 71 522 202 738 71 652 b 357 300 71 361 229 328 b 518 212 444 281 518 264 b 399 142 518 170 471 142 b 280 227 328 142 280 176 l 52 227 b 399 -22 52 78 191 -22 z "},"ŝ":{"ha":795,"x_min":0,"x_max":0,"o":"m 93 818 l 306 818 l 399 927 l 493 818 l 706 818 l 475 1053 l 323 1053 z m 399 -22 b 747 212 607 -22 747 71 b 444 451 747 394 574 427 b 299 522 363 466 299 479 b 399 574 299 553 339 574 b 500 511 460 574 500 549 l 728 511 b 399 738 728 646 597 738 b 71 522 202 738 71 652 b 357 300 71 361 229 328 b 518 212 444 281 518 264 b 399 142 518 170 471 142 b 280 227 328 142 280 176 l 52 227 b 399 -22 52 78 191 -22 z "},"š":{"ha":795,"x_min":0,"x_max":0,"o":"m 323 818 l 475 818 l 706 1053 l 493 1053 l 399 945 l 306 1053 l 93 1053 z m 399 -22 b 747 212 607 -22 747 71 b 444 451 747 394 574 427 b 299 522 363 466 299 479 b 399 574 299 553 339 574 b 500 511 460 574 500 549 l 728 511 b 399 738 728 646 597 738 b 71 522 202 738 71 652 b 357 300 71 361 229 328 b 518 212 444 281 518 264 b 399 142 518 170 471 142 b 280 227 328 142 280 176 l 52 227 b 399 -22 52 78 191 -22 z "},"ş":{"ha":795,"x_min":0,"x_max":0,"o":"m 747 212 b 444 451 747 394 574 427 b 299 522 363 466 299 479 b 399 574 299 553 339 574 b 500 511 460 574 500 549 l 728 511 b 399 738 728 646 597 738 b 71 522 202 738 71 652 b 357 300 71 361 229 328 b 518 212 444 281 518 264 b 399 142 518 170 471 142 b 280 227 328 142 280 176 l 52 227 b 324 -17 52 97 159 4 l 276 -99 l 276 -221 l 362 -221 b 420 -262 400 -221 420 -237 b 362 -302 420 -286 400 -302 l 276 -302 l 276 -425 l 362 -425 b 566 -262 492 -425 566 -359 b 439 -108 566 -185 522 -128 b 409 -102 429 -105 419 -103 l 458 -19 b 747 212 633 -3 747 85 z "},"ș":{"ha":795,"x_min":0,"x_max":0,"o":"m 399 -22 b 747 212 607 -22 747 71 b 444 451 747 394 574 427 b 299 522 363 466 299 479 b 399 574 299 553 339 574 b 500 511 460 574 500 549 l 728 511 b 399 738 728 646 597 738 b 71 522 202 738 71 652 b 357 300 71 361 229 328 b 518 212 444 281 518 264 b 399 142 518 170 471 142 b 280 227 328 142 280 176 l 52 227 b 399 -22 52 78 191 -22 z m 308 -477 b 520 -332 445 -477 520 -425 l 520 -208 b 400 -88 520 -142 466 -88 b 279 -208 333 -88 279 -142 b 400 -329 279 -275 333 -329 b 416 -327 405 -329 411 -328 l 416 -332 b 308 -382 416 -363 378 -382 z "},"t":{"ha":554,"x_min":0,"x_max":0,"o":"m 382 0 l 508 0 l 508 182 l 417 182 b 370 238 385 182 370 204 l 370 565 l 508 565 l 508 716 l 370 716 l 370 928 l 134 928 l 134 716 l 28 716 l 28 565 l 134 565 l 134 223 b 382 0 134 90 234 0 z "},"ť":{"ha":554,"x_min":0,"x_max":0,"o":"m 461 787 l 658 787 l 733 1069 l 536 1069 z m 382 0 l 508 0 l 508 182 l 417 182 b 370 238 385 182 370 204 l 370 565 l 508 565 l 508 716 l 370 716 l 370 928 l 134 928 l 134 716 l 28 716 l 28 565 l 134 565 l 134 223 b 382 0 134 90 234 0 z "},"ţ":{"ha":554,"x_min":0,"x_max":0,"o":"m 197 -425 l 283 -425 b 488 -262 414 -425 488 -359 b 361 -108 488 -185 443 -129 b 331 -102 351 -105 341 -103 l 391 0 l 413 0 l 508 0 l 508 182 l 417 182 b 370 238 385 182 370 204 l 370 565 l 508 565 l 508 716 l 370 716 l 370 928 l 134 928 l 134 716 l 28 716 l 28 565 l 134 565 l 134 223 b 268 21 134 127 185 55 l 197 -99 l 197 -221 l 283 -221 b 341 -262 321 -221 341 -237 b 283 -302 341 -286 321 -302 l 197 -302 z "},"ț":{"ha":554,"x_min":0,"x_max":0,"o":"m 382 0 l 508 0 l 508 182 l 417 182 b 370 238 385 182 370 204 l 370 565 l 508 565 l 508 716 l 370 716 l 370 928 l 134 928 l 134 716 l 28 716 l 28 565 l 134 565 l 134 223 b 382 0 134 90 234 0 z m 229 -477 b 441 -332 366 -477 441 -425 l 441 -208 b 321 -88 441 -142 387 -88 b 200 -208 254 -88 200 -142 b 321 -329 200 -275 254 -329 b 337 -327 326 -329 332 -328 l 337 -332 b 229 -382 337 -363 300 -382 z "},"ŧ":{"ha":554,"x_min":0,"x_max":0,"o":"m 382 0 l 508 0 l 508 182 l 417 182 b 370 238 385 182 370 204 l 370 303 l 508 303 l 508 455 l 370 455 l 370 565 l 508 565 l 508 716 l 370 716 l 370 928 l 134 928 l 134 716 l 28 716 l 28 565 l 134 565 l 134 455 l 28 455 l 28 303 l 134 303 l 134 223 b 382 0 134 90 234 0 z "},"u":{"ha":868,"x_min":0,"x_max":0,"o":"m 380 -22 b 571 60 469 -22 528 13 l 571 0 l 787 0 l 787 716 l 552 716 l 552 273 b 434 154 552 201 505 154 b 316 273 363 154 316 202 l 316 716 l 81 716 l 81 273 b 380 -22 81 97 221 -22 z "},"ú":{"ha":868,"x_min":0,"x_max":0,"o":"m 313 818 l 532 818 l 668 1053 l 449 1053 z m 380 -22 b 571 60 469 -22 528 13 l 571 0 l 787 0 l 787 716 l 552 716 l 552 273 b 434 154 552 201 505 154 b 316 273 363 154 316 202 l 316 716 l 81 716 l 81 273 b 380 -22 81 97 221 -22 z "},"ù":{"ha":868,"x_min":0,"x_max":0,"o":"m 336 818 l 555 818 l 419 1053 l 200 1053 z m 380 -22 b 571 60 469 -22 528 13 l 571 0 l 787 0 l 787 716 l 552 716 l 552 273 b 434 154 552 201 505 154 b 316 273 363 154 316 202 l 316 716 l 81 716 l 81 273 b 380 -22 81 97 221 -22 z "},"ŭ":{"ha":868,"x_min":0,"x_max":0,"o":"m 434 807 b 707 1042 597 807 707 901 l 559 1042 b 434 954 559 989 509 954 b 309 1042 359 954 309 989 l 161 1042 b 434 807 161 901 271 807 z m 380 -22 b 571 60 469 -22 528 13 l 571 0 l 787 0 l 787 716 l 552 716 l 552 273 b 434 154 552 201 505 154 b 316 273 363 154 316 202 l 316 716 l 81 716 l 81 273 b 380 -22 81 97 221 -22 z "},"û":{"ha":868,"x_min":0,"x_max":0,"o":"m 127 818 l 340 818 l 434 927 l 528 818 l 741 818 l 510 1053 l 358 1053 z m 380 -22 b 571 60 469 -22 528 13 l 571 0 l 787 0 l 787 716 l 552 716 l 552 273 b 434 154 552 201 505 154 b 316 273 363 154 316 202 l 316 716 l 81 716 l 81 273 b 380 -22 81 97 221 -22 z "},"ů":{"ha":868,"x_min":0,"x_max":0,"o":"m 434 796 b 639 1001 557 796 639 878 b 434 1206 639 1122 557 1206 b 229 1001 311 1206 229 1124 b 434 796 229 878 311 796 z m 434 916 b 349 1001 382 916 349 949 b 434 1086 349 1052 382 1086 b 519 1001 486 1086 519 1051 b 434 916 519 949 486 916 z m 380 -22 b 571 60 469 -22 528 13 l 571 0 l 787 0 l 787 716 l 552 716 l 552 273 b 434 154 552 201 505 154 b 316 273 363 154 316 202 l 316 716 l 81 716 l 81 273 b 380 -22 81 97 221 -22 z "},"ü":{"ha":868,"x_min":0,"x_max":0,"o":"m 275 812 b 396 933 342 812 396 866 b 275 1054 396 1000 342 1054 b 155 933 208 1054 155 1000 b 275 812 155 866 208 812 z m 593 812 b 713 933 660 812 713 866 b 593 1054 713 1000 660 1054 b 472 933 526 1054 472 1000 b 593 812 472 866 526 812 z m 380 -22 b 571 60 469 -22 528 13 l 571 0 l 787 0 l 787 716 l 552 716 l 552 273 b 434 154 552 201 505 154 b 316 273 363 154 316 202 l 316 716 l 81 716 l 81 273 b 380 -22 81 97 221 -22 z "},"ű":{"ha":868,"x_min":0,"x_max":0,"o":"m 149 818 l 368 818 l 504 1053 l 285 1053 z m 479 818 l 698 818 l 833 1053 l 614 1053 z m 380 -22 b 571 60 469 -22 528 13 l 571 0 l 787 0 l 787 716 l 552 716 l 552 273 b 434 154 552 201 505 154 b 316 273 363 154 316 202 l 316 716 l 81 716 l 81 273 b 380 -22 81 97 221 -22 z "},"ũ":{"ha":868,"x_min":0,"x_max":0,"o":"m 534 807 b 747 1042 662 807 747 901 l 601 1042 b 534 954 601 989 574 954 b 461 994 507 954 486 972 b 334 1053 429 1022 393 1053 b 121 818 206 1053 121 959 l 267 818 b 334 907 267 871 294 907 b 407 866 361 907 382 888 b 534 807 439 838 475 807 z m 380 -22 b 571 60 469 -22 528 13 l 571 0 l 787 0 l 787 716 l 552 716 l 552 273 b 434 154 552 201 505 154 b 316 273 363 154 316 202 l 316 716 l 81 716 l 81 273 b 380 -22 81 97 221 -22 z "},"ụ":{"ha":868,"x_min":0,"x_max":0,"o":"m 380 -22 b 571 60 469 -22 528 13 l 571 0 l 787 0 l 787 716 l 552 716 l 552 273 b 434 154 552 201 505 154 b 316 273 363 154 316 202 l 316 716 l 81 716 l 81 273 b 380 -22 81 97 221 -22 z m 434 -346 b 563 -217 505 -346 563 -288 b 434 -88 563 -146 505 -88 b 305 -217 363 -88 305 -146 b 434 -346 305 -288 363 -346 z "},"ų":{"ha":868,"x_min":0,"x_max":0,"o":"m 787 0 l 787 716 l 552 716 l 552 273 b 434 154 552 201 505 154 b 316 273 363 154 316 202 l 316 716 l 81 716 l 81 273 b 380 -22 81 97 221 -22 b 571 60 469 -22 528 13 l 571 0 l 619 0 b 505 -139 560 -60 527 -98 b 475 -262 484 -177 475 -216 b 679 -425 475 -359 548 -425 l 765 -425 l 765 -302 l 679 -302 b 621 -250 641 -302 621 -282 b 654 -158 621 -224 633 -192 b 787 0 684 -111 730 -56 z "},"ū":{"ha":868,"x_min":0,"x_max":0,"o":"m 182 826 l 686 826 l 686 972 l 182 972 z m 380 -22 b 571 60 469 -22 528 13 l 571 0 l 787 0 l 787 716 l 552 716 l 552 273 b 434 154 552 201 505 154 b 316 273 363 154 316 202 l 316 716 l 81 716 l 81 273 b 380 -22 81 97 221 -22 z "},"v":{"ha":789,"x_min":0,"x_max":0,"o":"m 277 0 l 512 0 l 773 716 l 538 716 l 395 293 l 250 716 l 16 716 z "},"w":{"ha":1176,"x_min":0,"x_max":0,"o":"m 16 716 l 243 0 l 478 0 l 588 351 l 698 0 l 932 0 l 1160 716 l 928 716 l 816 328 l 704 716 l 472 716 l 359 328 l 247 716 z "},"ẃ":{"ha":1176,"x_min":0,"x_max":0,"o":"m 467 818 l 686 818 l 822 1053 l 603 1053 z m 16 716 l 243 0 l 478 0 l 588 351 l 698 0 l 932 0 l 1160 716 l 928 716 l 816 328 l 704 716 l 472 716 l 359 328 l 247 716 z "},"ẁ":{"ha":1176,"x_min":0,"x_max":0,"o":"m 490 818 l 709 818 l 573 1053 l 354 1053 z m 16 716 l 243 0 l 478 0 l 588 351 l 698 0 l 932 0 l 1160 716 l 928 716 l 816 328 l 704 716 l 472 716 l 359 328 l 247 716 z "},"ŵ":{"ha":1176,"x_min":0,"x_max":0,"o":"m 281 818 l 494 818 l 588 927 l 682 818 l 895 818 l 664 1053 l 512 1053 z m 16 716 l 243 0 l 478 0 l 588 351 l 698 0 l 932 0 l 1160 716 l 928 716 l 816 328 l 704 716 l 472 716 l 359 328 l 247 716 z "},"ẅ":{"ha":1176,"x_min":0,"x_max":0,"o":"m 429 812 b 550 933 496 812 550 866 b 429 1054 550 1000 496 1054 b 309 933 362 1054 309 1000 b 429 812 309 866 362 812 z m 747 812 b 867 933 814 812 867 866 b 747 1054 867 1000 814 1054 b 626 933 680 1054 626 1000 b 747 812 626 866 680 812 z m 16 716 l 243 0 l 478 0 l 588 351 l 698 0 l 932 0 l 1160 716 l 928 716 l 816 328 l 704 716 l 472 716 l 359 328 l 247 716 z "},"x":{"ha":810,"x_min":0,"x_max":0,"o":"m 16 0 l 277 0 l 405 194 l 533 0 l 794 0 l 536 379 l 765 716 l 505 716 l 405 562 l 305 716 l 44 716 l 274 379 z "},"y":{"ha":808,"x_min":0,"x_max":0,"o":"m 106 -282 l 252 -282 b 500 -59 401 -282 452 -184 l 793 716 l 557 716 l 404 291 l 252 716 l 16 716 l 293 -16 l 274 -68 b 235 -100 267 -87 257 -100 l 106 -100 z "},"ý":{"ha":808,"x_min":0,"x_max":0,"o":"m 283 818 l 503 818 l 638 1053 l 419 1053 z m 106 -282 l 252 -282 b 500 -59 401 -282 452 -184 l 793 716 l 557 716 l 404 291 l 252 716 l 16 716 l 293 -16 l 274 -68 b 235 -100 267 -87 257 -100 l 106 -100 z "},"ỳ":{"ha":808,"x_min":0,"x_max":0,"o":"m 306 818 l 525 818 l 389 1053 l 170 1053 z m 106 -282 l 252 -282 b 500 -59 401 -282 452 -184 l 793 716 l 557 716 l 404 291 l 252 716 l 16 716 l 293 -16 l 274 -68 b 235 -100 267 -87 257 -100 l 106 -100 z "},"ŷ":{"ha":808,"x_min":0,"x_max":0,"o":"m 98 818 l 311 818 l 404 927 l 498 818 l 711 818 l 480 1053 l 328 1053 z m 106 -282 l 252 -282 b 500 -59 401 -282 452 -184 l 793 716 l 557 716 l 404 291 l 252 716 l 16 716 l 293 -16 l 274 -68 b 235 -100 267 -87 257 -100 l 106 -100 z "},"ÿ":{"ha":808,"x_min":0,"x_max":0,"o":"m 245 812 b 366 933 313 812 366 866 b 245 1054 366 1000 313 1054 b 125 933 178 1054 125 1000 b 245 812 125 866 178 812 z m 563 812 b 684 933 630 812 684 866 b 563 1054 684 1000 630 1054 b 442 933 496 1054 442 1000 b 563 812 442 866 496 812 z m 106 -282 l 252 -282 b 500 -59 401 -282 452 -184 l 793 716 l 557 716 l 404 291 l 252 716 l 16 716 l 293 -16 l 274 -68 b 235 -100 267 -87 257 -100 l 106 -100 z "},"ỹ":{"ha":808,"x_min":0,"x_max":0,"o":"m 504 807 b 718 1042 632 807 718 901 l 571 1042 b 504 954 571 989 544 954 b 431 994 477 954 456 972 b 304 1053 399 1022 363 1053 b 91 818 176 1053 91 959 l 237 818 b 304 907 237 871 264 907 b 377 866 331 907 353 888 b 504 807 409 838 446 807 z m 106 -282 l 252 -282 b 500 -59 401 -282 452 -184 l 793 716 l 557 716 l 404 291 l 252 716 l 16 716 l 293 -16 l 274 -68 b 235 -100 267 -87 257 -100 l 106 -100 z "},"ȳ":{"ha":808,"x_min":0,"x_max":0,"o":"m 152 826 l 656 826 l 656 972 l 152 972 z m 106 -282 l 252 -282 b 500 -59 401 -282 452 -184 l 793 716 l 557 716 l 404 291 l 252 716 l 16 716 l 293 -16 l 274 -68 b 235 -100 267 -87 257 -100 l 106 -100 z "},"z":{"ha":741,"x_min":0,"x_max":0,"o":"m 41 0 l 701 0 l 701 182 l 329 182 l 676 534 l 676 716 l 65 716 l 65 534 l 389 534 l 41 182 z "},"ź":{"ha":741,"x_min":0,"x_max":0,"o":"m 250 818 l 469 818 l 605 1053 l 386 1053 z m 41 0 l 701 0 l 701 182 l 329 182 l 676 534 l 676 716 l 65 716 l 65 534 l 389 534 l 41 182 z "},"ž":{"ha":741,"x_min":0,"x_max":0,"o":"m 295 818 l 447 818 l 677 1053 l 465 1053 l 371 945 l 277 1053 l 64 1053 z m 41 0 l 701 0 l 701 182 l 329 182 l 676 534 l 676 716 l 65 716 l 65 534 l 389 534 l 41 182 z "},"ż":{"ha":741,"x_min":0,"x_max":0,"o":"m 371 804 b 500 933 442 804 500 861 b 371 1062 500 1004 442 1062 b 242 933 300 1062 242 1004 b 371 804 242 861 300 804 z m 41 0 l 701 0 l 701 182 l 329 182 l 676 534 l 676 716 l 65 716 l 65 534 l 389 534 l 41 182 z "},"ﬁ":{"ha":944,"x_min":0,"x_max":0,"o":"m 745 804 b 874 933 817 804 874 861 b 745 1062 874 1004 817 1062 b 616 933 674 1062 616 1004 b 745 804 616 861 674 804 z m 140 0 l 375 0 l 375 565 l 521 565 l 521 716 l 375 716 l 375 766 b 422 823 375 801 391 823 l 521 823 l 521 998 l 388 998 b 140 775 239 998 140 909 l 140 716 l 28 716 l 28 565 l 140 565 z m 628 0 l 863 0 l 863 716 l 628 716 z "},"ﬂ":{"ha":944,"x_min":0,"x_max":0,"o":"m 140 0 l 375 0 l 375 565 l 521 565 l 521 716 l 375 716 l 375 766 b 422 823 375 801 391 823 l 521 823 l 521 998 l 388 998 b 140 775 239 998 140 909 l 140 716 l 28 716 l 28 565 l 140 565 z m 628 0 l 863 0 l 863 998 l 628 998 z "},"ß":{"ha":894,"x_min":0,"x_max":0,"o":"m 81 0 l 316 0 l 316 736 b 435 846 316 802 363 846 b 554 736 507 846 554 802 b 435 627 554 671 506 627 l 406 627 l 406 452 l 435 452 b 615 313 544 452 615 396 b 435 174 615 227 549 174 l 406 174 l 406 0 l 435 0 b 850 313 696 0 850 116 b 684 547 850 426 787 503 b 789 736 749 587 789 650 b 435 1020 789 905 648 1020 b 81 736 222 1020 81 907 z "},"þ":{"ha":872,"x_min":0,"x_max":0,"o":"m 81 -282 l 316 -282 l 316 34 b 477 -22 361 -2 415 -22 b 828 358 680 -22 828 130 b 477 738 828 586 680 738 b 316 682 415 738 361 718 l 316 998 l 81 998 z m 450 154 b 305 358 363 154 305 236 b 450 562 305 481 363 562 b 593 358 536 562 593 481 b 450 154 593 236 536 154 z "},"ə":{"ha":844,"x_min":0,"x_max":0,"o":"m 422 -22 b 800 358 649 -22 800 130 b 422 738 800 586 649 738 b 64 492 243 738 111 644 l 309 492 b 422 569 331 539 374 569 b 558 427 491 569 545 513 l 50 427 b 44 358 45 405 44 382 b 422 -22 44 132 194 -22 z m 422 147 b 286 289 353 147 300 203 l 558 289 b 422 147 545 203 491 147 z "},"ª":{"ha":705,"x_min":0,"x_max":0,"o":"m 303 491 b 446 545 372 491 410 513 b 464 506 452 531 457 517 l 652 506 b 623 597 637 534 623 569 l 623 842 b 363 1009 623 942 520 1009 b 105 843 209 1009 105 943 l 284 843 b 363 885 284 868 316 885 b 434 842 406 885 434 867 b 310 791 434 810 378 801 b 79 649 208 777 79 756 b 303 491 79 553 169 491 z m 341 615 b 269 652 298 615 269 630 b 380 705 269 687 319 698 b 434 713 398 708 416 710 l 434 698 b 341 615 434 648 397 615 z "},"º":{"ha":674,"x_min":0,"x_max":0,"o":"m 337 491 b 630 750 513 491 630 595 b 337 1009 630 905 514 1009 b 44 750 161 1009 44 905 b 337 491 44 595 161 491 z m 337 625 b 233 750 274 625 233 675 b 337 875 233 825 274 875 b 441 750 400 875 441 824 b 337 625 441 675 400 625 z "},"!":{"ha":426,"x_min":0,"x_max":0,"o":"m 149 334 l 277 334 l 340 732 l 340 998 l 85 998 l 85 732 z m 213 -22 b 347 106 286 -22 347 35 b 213 234 347 176 286 234 b 80 106 140 234 80 176 b 213 -22 80 35 139 -22 z "},"¡":{"ha":426,"x_min":0,"x_max":0,"o":"m 213 482 b 347 610 286 482 347 540 b 213 738 347 681 286 738 b 80 610 139 738 80 681 b 213 482 80 540 140 482 z m 85 -282 l 340 -282 l 340 -16 l 277 382 l 149 382 l 85 -16 z "},"?":{"ha":908,"x_min":0,"x_max":0,"o":"m 320 334 l 575 334 b 684 475 575 407 627 439 b 844 731 759 522 844 576 b 448 1020 844 903 686 1020 b 51 700 210 1020 51 892 l 289 700 b 448 817 289 770 352 817 b 589 724 532 817 589 782 b 484 591 589 656 540 625 b 320 334 408 545 320 492 z m 448 -22 b 581 106 521 -22 581 35 b 448 234 581 176 521 234 b 314 106 374 234 314 176 b 448 -22 314 35 373 -22 z "},"¿":{"ha":908,"x_min":0,"x_max":0,"o":"m 461 482 b 594 610 534 482 594 540 b 461 738 594 681 535 738 b 328 610 387 738 328 681 b 461 482 328 540 387 482 z m 461 -304 b 857 16 699 -304 857 -176 l 619 16 b 461 -100 619 -54 556 -100 b 319 -7 376 -100 319 -66 b 425 125 319 60 368 91 b 589 382 500 171 589 224 l 334 382 b 224 241 334 309 281 277 b 64 -15 149 194 64 140 b 461 -304 64 -187 222 -304 z "},"#":{"ha":975,"x_min":0,"x_max":0,"o":"m 161 0 l 330 0 l 361 220 l 536 220 l 505 0 l 674 0 l 705 220 l 875 220 l 875 387 l 728 387 l 760 611 l 930 611 l 930 778 l 783 778 l 814 998 l 646 998 l 614 778 l 439 778 l 470 998 l 301 998 l 270 778 l 100 778 l 100 611 l 246 611 l 215 387 l 45 387 l 45 220 l 192 220 z m 384 387 l 416 611 l 591 611 l 559 387 z "},"(":{"ha":580,"x_min":0,"x_max":0,"o":"m 277 -282 l 534 -282 b 319 378 395 -84 319 114 b 534 1039 319 643 395 841 l 277 1039 b 64 378 138 841 64 643 b 277 -282 64 114 138 -84 z "},")":{"ha":579,"x_min":0,"x_max":0,"o":"m 45 -282 l 302 -282 b 515 378 441 -84 515 114 b 302 1039 515 643 441 841 l 45 1039 b 260 378 184 841 260 643 b 45 -282 260 114 184 -84 z "},"{":{"ha":628,"x_min":0,"x_max":0,"o":"m 452 -282 l 580 -282 l 580 -100 l 483 -100 b 435 -44 450 -100 435 -78 l 435 181 b 312 378 435 273 389 343 b 435 576 389 414 435 484 l 435 801 b 483 857 435 835 450 857 l 580 857 l 580 1039 l 452 1039 b 205 816 304 1039 205 949 l 205 576 b 83 469 205 492 156 469 l 47 469 l 47 288 l 83 288 b 205 181 156 288 205 265 l 205 -59 b 452 -282 205 -193 304 -282 z "},"}":{"ha":628,"x_min":0,"x_max":0,"o":"m 47 -282 l 175 -282 b 423 -59 323 -282 423 -193 l 423 181 b 544 288 423 265 472 288 l 580 288 l 580 469 l 544 469 b 423 576 472 469 423 492 l 423 816 b 175 1039 423 949 323 1039 l 47 1039 l 47 857 l 145 857 b 193 801 178 857 193 835 l 193 576 b 316 378 193 484 239 414 b 193 181 239 343 193 273 l 193 -44 b 145 -100 193 -78 178 -100 l 47 -100 z "},"[":{"ha":567,"x_min":0,"x_max":0,"o":"m 93 -282 l 519 -282 l 519 -81 l 323 -81 l 323 838 l 519 838 l 519 1039 l 93 1039 z "},"]":{"ha":567,"x_min":0,"x_max":0,"o":"m 47 -282 l 474 -282 l 474 1039 l 47 1039 l 47 838 l 244 838 l 244 -81 l 47 -81 z "},".":{"ha":446,"x_min":0,"x_max":0,"o":"m 224 -22 b 365 121 301 -22 365 42 b 224 262 365 198 301 262 b 81 121 144 262 81 198 b 224 -22 81 42 144 -22 z "},",":{"ha":446,"x_min":0,"x_max":0,"o":"m 116 -203 b 365 -35 277 -203 365 -143 l 365 121 b 224 262 365 198 301 262 b 81 121 144 262 81 198 b 224 -22 81 42 146 -22 b 243 -19 230 -22 237 -21 l 243 -35 b 116 -92 243 -71 198 -92 z "},":":{"ha":446,"x_min":0,"x_max":0,"o":"m 224 454 b 365 596 301 454 365 517 b 224 738 365 673 301 738 b 81 596 144 738 81 673 b 224 454 81 517 144 454 z m 224 -22 b 365 121 301 -22 365 42 b 224 262 365 198 301 262 b 81 121 144 262 81 198 b 224 -22 81 42 144 -22 z "},";":{"ha":446,"x_min":0,"x_max":0,"o":"m 224 454 b 365 596 301 454 365 517 b 224 738 365 673 301 738 b 81 596 144 738 81 673 b 224 454 81 517 144 454 z m 116 -203 b 365 -35 277 -203 365 -143 l 365 121 b 224 262 365 198 301 262 b 81 121 144 262 81 198 b 224 -22 81 42 146 -22 b 243 -19 230 -22 237 -21 l 243 -35 b 116 -92 243 -71 198 -92 z "},"…":{"ha":1352,"x_min":0,"x_max":0,"o":"m 224 -22 b 365 121 301 -22 365 42 b 224 262 365 198 301 262 b 81 121 144 262 81 198 b 224 -22 81 42 144 -22 z m 676 -22 b 818 121 754 -22 818 42 b 676 262 818 198 754 262 b 534 121 597 262 534 198 b 676 -22 534 42 597 -22 z m 1129 -22 b 1270 121 1206 -22 1270 42 b 1129 262 1270 198 1206 262 b 987 121 1050 262 987 198 b 1129 -22 987 42 1050 -22 z "},"·":{"ha":446,"x_min":0,"x_max":0,"o":"m 224 357 b 365 500 301 357 365 420 b 224 641 365 577 301 641 b 81 500 144 641 81 577 b 224 357 81 420 144 357 z "},"•":{"ha":617,"x_min":0,"x_max":0,"o":"m 309 170 b 532 394 432 170 532 270 b 309 616 532 516 432 616 b 85 394 186 616 85 516 b 309 170 85 270 186 170 z "},"*":{"ha":801,"x_min":0,"x_max":0,"o":"m 289 391 l 401 563 l 513 391 l 651 492 l 522 651 l 720 704 l 667 867 l 475 793 l 486 998 l 315 998 l 326 793 l 134 867 l 81 704 l 279 651 l 151 492 z "},"-":{"ha":503,"x_min":0,"x_max":0,"o":"m 51 260 l 452 260 l 452 456 l 51 456 z "},"­":{"ha":503,"x_min":0,"x_max":0,"o":"m 51 260 l 452 260 l 452 456 l 51 456 z "},"–":{"ha":736,"x_min":0,"x_max":0,"o":"m 51 260 l 685 260 l 685 456 l 51 456 z "},"—":{"ha":1087,"x_min":0,"x_max":0,"o":"m 51 260 l 1036 260 l 1036 456 l 51 456 z "},"_":{"ha":694,"x_min":0,"x_max":0,"o":"m 0 -224 l 694 -224 l 694 -102 l 0 -102 z "},"/":{"ha":807,"x_min":0,"x_max":0,"o":"m 44 0 l 298 0 l 763 998 l 509 998 z "},"\\":{"ha":807,"x_min":0,"x_max":0,"o":"m 509 0 l 763 0 l 298 998 l 44 998 z "},"'":{"ha":363,"x_min":0,"x_max":0,"o":"m 81 539 l 282 539 l 282 998 l 81 998 z "},"‘":{"ha":392,"x_min":0,"x_max":0,"o":"m 197 533 b 339 674 275 533 339 597 b 197 817 339 753 275 817 b 178 814 191 817 184 816 l 178 829 b 304 887 178 866 222 887 l 304 998 b 56 829 143 998 56 938 l 56 674 b 197 533 56 597 119 533 z "},"’":{"ha":392,"x_min":0,"x_max":0,"o":"m 88 547 b 337 716 249 547 337 608 l 337 871 b 195 1013 337 949 273 1013 b 53 871 117 1013 53 949 b 195 729 53 793 117 729 b 214 732 201 729 208 730 l 214 717 b 88 659 214 680 170 659 z "},"\"":{"ha":709,"x_min":0,"x_max":0,"o":"m 81 539 l 282 539 l 282 998 l 81 998 z m 427 539 l 628 539 l 628 998 l 427 998 z "},"“":{"ha":799,"x_min":0,"x_max":0,"o":"m 197 533 b 339 674 275 533 339 597 b 197 817 339 753 275 817 b 178 814 191 817 184 816 l 178 829 b 304 887 178 866 222 887 l 304 998 b 56 829 143 998 56 938 l 56 674 b 197 533 56 597 119 533 z m 603 533 b 745 674 682 533 745 597 b 603 817 745 753 681 817 b 584 814 597 817 590 816 l 584 829 b 711 887 584 866 629 887 l 711 998 b 462 829 549 998 462 938 l 462 674 b 603 533 462 597 526 533 z "},"”":{"ha":799,"x_min":0,"x_max":0,"o":"m 88 547 b 337 716 249 547 337 608 l 337 871 b 195 1013 337 949 273 1013 b 53 871 117 1013 53 949 b 195 729 53 793 117 729 b 214 732 201 729 208 730 l 214 717 b 88 659 214 680 170 659 z m 494 547 b 743 716 655 547 743 608 l 743 871 b 602 1013 743 949 680 1013 b 460 871 523 1013 460 949 b 602 729 460 793 524 729 b 621 732 608 729 614 730 l 621 717 b 494 659 621 680 576 659 z "},"‚":{"ha":446,"x_min":0,"x_max":0,"o":"m 116 -203 b 365 -35 277 -203 365 -143 l 365 121 b 224 262 365 198 301 262 b 81 121 144 262 81 198 b 224 -22 81 42 146 -22 b 243 -19 230 -22 237 -21 l 243 -35 b 116 -92 243 -71 198 -92 z "},"„":{"ha":852,"x_min":0,"x_max":0,"o":"m 116 -203 b 365 -35 277 -203 365 -143 l 365 121 b 224 262 365 198 301 262 b 81 121 144 262 81 198 b 224 -22 81 42 146 -22 b 243 -19 230 -22 237 -21 l 243 -35 b 116 -92 243 -71 198 -92 z m 522 -203 b 771 -35 684 -203 771 -143 l 771 121 b 630 262 771 198 708 262 b 488 121 551 262 488 198 b 630 -22 488 42 552 -22 b 649 -19 636 -22 643 -21 l 649 -35 b 522 -92 649 -71 604 -92 z "},"‹":{"ha":526,"x_min":0,"x_max":0,"o":"m 445 -22 l 445 201 l 218 358 l 445 515 l 445 738 l 81 468 l 81 248 z "},"›":{"ha":526,"x_min":0,"x_max":0,"o":"m 81 -22 l 445 248 l 445 468 l 81 738 l 81 515 l 308 358 l 81 201 z "},"«":{"ha":950,"x_min":0,"x_max":0,"o":"m 445 -22 l 445 201 l 218 358 l 445 515 l 445 738 l 81 468 l 81 248 z m 869 -22 l 869 201 l 642 358 l 869 515 l 869 738 l 505 468 l 505 248 z "},"»":{"ha":950,"x_min":0,"x_max":0,"o":"m 81 -22 l 445 248 l 445 468 l 81 738 l 81 515 l 308 358 l 81 201 z m 505 -22 l 869 248 l 869 468 l 505 738 l 505 515 l 732 358 l 505 201 z "},"⓿":{"ha":1518,"x_min":0,"x_max":0,"o":"m 760 -195 b 1453 500 1144 -195 1453 115 b 760 1194 1453 883 1144 1194 b 64 500 376 1194 64 883 b 760 -195 64 115 376 -195 z m 759 186 b 479 499 573 186 479 290 b 759 812 479 708 573 812 b 1038 499 945 812 1038 708 b 759 186 1038 290 945 186 z m 759 326 b 854 499 823 326 854 383 b 759 673 854 615 823 673 b 663 499 695 673 663 615 b 759 326 663 383 695 326 z "},"❶":{"ha":1518,"x_min":0,"x_max":0,"o":"m 760 -195 b 1453 500 1144 -195 1453 115 b 760 1194 1453 883 1145 1194 b 64 500 376 1194 64 883 b 760 -195 64 115 376 -195 z m 686 194 l 686 596 b 557 576 650 583 603 576 l 557 706 b 718 804 653 706 718 745 l 869 804 l 869 194 z "},"❷":{"ha":1518,"x_min":0,"x_max":0,"o":"m 760 -195 b 1453 500 1144 -195 1453 115 b 760 1194 1453 883 1145 1194 b 64 500 376 1194 64 883 b 760 -195 64 115 376 -195 z m 496 194 b 688 443 496 309 596 379 b 838 618 766 498 838 548 b 764 673 838 651 808 673 b 681 575 714 673 681 634 l 507 575 b 764 812 507 718 610 812 b 1022 618 920 812 1022 734 b 834 372 1022 505 924 435 b 783 334 816 359 798 347 l 1022 334 l 1022 194 z "},"❸":{"ha":1518,"x_min":0,"x_max":0,"o":"m 760 -195 b 1453 500 1144 -195 1453 115 b 760 1194 1453 883 1145 1194 b 64 500 376 1194 64 883 b 760 -195 64 115 376 -195 z m 760 186 b 494 402 600 186 494 273 l 668 402 b 758 321 668 353 704 321 b 840 382 806 321 840 345 b 760 449 840 422 808 449 l 707 449 l 707 566 l 753 566 b 815 631 791 566 815 592 b 758 677 815 661 792 677 b 693 619 719 677 693 654 l 520 619 b 760 812 520 735 615 812 b 998 646 904 812 998 745 b 924 515 998 590 972 545 b 1023 377 987 490 1023 445 b 760 186 1023 262 918 186 z "},"❹":{"ha":1518,"x_min":0,"x_max":0,"o":"m 760 -195 b 1453 500 1144 -195 1453 115 b 760 1194 1453 883 1145 1194 b 64 500 376 1194 64 883 b 760 -195 64 115 376 -195 z m 753 194 l 753 328 l 456 328 l 456 446 l 756 804 l 924 804 l 924 448 l 1018 448 l 1018 328 l 924 328 l 924 194 z m 615 448 l 753 448 l 753 614 z "},"❺":{"ha":1518,"x_min":0,"x_max":0,"o":"m 760 -195 b 1453 500 1144 -195 1453 115 b 760 1194 1453 883 1145 1194 b 64 500 376 1194 64 883 b 760 -195 64 115 376 -195 z m 760 186 b 497 380 602 186 512 263 l 665 380 b 760 321 676 345 703 321 b 838 396 806 321 838 351 b 753 486 838 450 804 486 b 661 465 718 486 685 481 l 509 465 l 560 804 l 977 804 l 977 669 l 692 669 l 678 578 b 785 606 707 596 738 606 b 1021 396 918 606 1021 522 b 760 186 1021 270 916 186 z "},"❻":{"ha":1518,"x_min":0,"x_max":0,"o":"m 760 -195 b 1453 500 1144 -195 1453 115 b 760 1194 1453 883 1145 1194 b 64 500 376 1194 64 883 b 760 -195 64 115 376 -195 z m 767 186 b 488 499 581 186 488 290 b 767 812 488 708 581 812 b 1006 652 911 812 979 748 l 840 652 b 773 677 829 669 811 677 b 677 585 713 677 689 638 b 673 561 675 577 674 569 b 798 606 701 590 730 606 b 1031 396 926 606 1031 522 b 767 186 1031 270 925 186 z m 767 321 b 847 404 815 321 847 353 b 767 481 847 450 815 481 b 687 404 720 481 687 450 b 767 321 687 353 720 321 z "},"❼":{"ha":1518,"x_min":0,"x_max":0,"o":"m 760 -195 b 1453 500 1143 -195 1453 115 b 760 1194 1453 883 1145 1194 b 64 500 376 1194 64 883 b 760 -195 64 115 376 -195 z m 602 194 b 812 665 602 385 684 545 l 509 665 l 509 804 l 1009 804 l 1009 665 b 785 194 870 543 785 385 z "},"❽":{"ha":1518,"x_min":0,"x_max":0,"o":"m 760 -195 b 1453 500 1144 -195 1453 115 b 760 1194 1453 883 1145 1194 b 64 500 376 1194 64 883 b 760 -195 64 115 376 -195 z m 759 186 b 481 377 592 186 481 262 b 587 515 481 439 526 486 b 510 633 542 543 510 582 b 759 812 510 741 610 812 b 1008 633 909 812 1008 741 b 932 515 1008 582 976 543 b 1037 377 992 486 1037 439 b 759 186 1037 262 926 186 z m 759 571 b 832 627 803 571 832 593 b 759 682 832 659 804 682 b 685 627 715 682 685 659 b 759 571 685 593 715 571 z m 759 317 b 855 385 817 317 855 344 b 759 451 855 425 817 451 b 663 385 701 451 663 425 b 759 317 663 344 701 317 z "},"❾":{"ha":1518,"x_min":0,"x_max":0,"o":"m 760 -195 b 1453 500 1144 -195 1453 115 b 760 1194 1453 883 1145 1194 b 64 500 376 1194 64 883 b 760 -195 64 115 376 -195 z m 751 186 b 513 346 607 186 540 250 l 678 346 b 745 321 689 330 707 321 b 841 414 805 321 829 360 b 844 437 843 421 844 429 b 720 392 817 408 787 392 b 488 602 592 392 488 477 b 751 812 488 728 593 812 b 1031 499 937 812 1031 708 b 751 186 1031 290 937 186 z m 751 517 b 831 595 799 517 831 548 b 751 677 831 645 799 677 b 671 595 703 677 671 645 b 751 517 671 548 703 517 z "},"⓪":{"ha":1518,"x_min":0,"x_max":0,"o":"m 760 -195 b 1453 500 1144 -195 1453 115 b 760 1194 1453 883 1145 1194 b 64 500 376 1194 64 883 b 760 -195 64 115 376 -195 z m 760 -7 b 253 500 479 -7 253 219 b 760 1005 253 779 479 1005 b 1265 500 1040 1005 1265 779 b 760 -7 1265 219 1040 -7 z m 759 186 b 1038 499 945 186 1038 290 b 759 812 1038 708 945 812 b 480 499 573 812 480 708 b 759 186 480 290 573 186 z m 759 326 b 664 499 696 326 664 383 b 759 673 664 615 696 673 b 854 499 823 673 854 615 b 759 326 854 383 823 326 z "},"①":{"ha":1518,"x_min":0,"x_max":0,"o":"m 760 -195 b 1453 500 1144 -195 1453 115 b 760 1194 1453 883 1145 1194 b 64 500 376 1194 64 883 b 760 -195 64 115 376 -195 z m 760 -7 b 253 500 479 -7 253 219 b 760 1005 253 779 479 1005 b 1265 500 1040 1005 1265 779 b 760 -7 1265 219 1040 -7 z m 686 194 l 869 194 l 869 804 l 718 804 b 557 706 718 745 653 706 l 557 576 b 686 596 603 576 650 583 z "},"②":{"ha":1518,"x_min":0,"x_max":0,"o":"m 760 -195 b 1453 500 1144 -195 1453 115 b 760 1194 1453 883 1145 1194 b 64 500 376 1194 64 883 b 760 -195 64 115 376 -195 z m 760 -7 b 253 500 479 -7 253 219 b 760 1005 253 779 479 1005 b 1265 500 1040 1005 1265 779 b 760 -7 1265 219 1040 -7 z m 496 194 l 1022 194 l 1022 334 l 783 334 b 834 372 798 347 816 359 b 1022 618 925 435 1022 505 b 765 812 1022 734 920 812 b 507 575 610 812 507 718 l 681 575 b 765 673 681 634 715 673 b 838 618 808 673 838 651 b 688 443 838 548 766 498 b 496 194 596 379 496 309 z "},"③":{"ha":1518,"x_min":0,"x_max":0,"o":"m 760 -195 b 1453 500 1144 -195 1453 115 b 760 1194 1453 883 1145 1194 b 64 500 376 1194 64 883 b 760 -195 64 115 376 -195 z m 760 -7 b 253 500 479 -7 253 219 b 760 1005 253 779 479 1005 b 1265 500 1040 1005 1265 779 b 760 -7 1265 219 1040 -7 z m 760 186 b 1023 377 918 186 1023 262 b 924 515 1023 445 987 490 b 998 646 971 545 998 590 b 759 812 998 745 903 812 b 519 619 615 812 519 735 l 693 619 b 757 677 693 654 719 677 b 814 631 792 677 814 661 b 753 566 814 592 790 566 l 707 566 l 707 449 l 760 449 b 840 382 808 449 840 422 b 757 321 840 345 806 321 b 668 402 704 321 668 353 l 494 402 b 760 186 494 273 600 186 z "},"④":{"ha":1518,"x_min":0,"x_max":0,"o":"m 760 -195 b 1453 500 1144 -195 1453 115 b 760 1194 1453 883 1145 1194 b 64 500 376 1194 64 883 b 760 -195 64 115 376 -195 z m 760 -7 b 253 500 479 -7 253 219 b 760 1005 253 779 479 1005 b 1265 500 1040 1005 1265 779 b 760 -7 1265 218 1040 -7 z m 753 194 l 924 194 l 924 328 l 1018 328 l 1018 448 l 924 448 l 924 804 l 757 804 l 456 446 l 456 328 l 753 328 z m 615 448 l 753 614 l 753 448 z "},"⑤":{"ha":1518,"x_min":0,"x_max":0,"o":"m 760 -195 b 1453 500 1144 -195 1453 115 b 760 1194 1453 883 1145 1194 b 64 500 376 1194 64 883 b 760 -195 64 115 376 -195 z m 760 -7 b 253 500 479 -7 253 219 b 760 1005 253 779 479 1005 b 1265 500 1040 1005 1265 779 b 760 -7 1265 219 1040 -7 z m 760 186 b 1021 396 917 186 1021 270 b 785 606 1021 522 918 606 b 679 578 739 606 708 596 l 692 669 l 977 669 l 977 804 l 560 804 l 509 465 l 661 465 b 754 486 685 481 719 486 b 838 396 804 486 838 450 b 760 321 838 351 806 321 b 665 380 703 321 676 345 l 497 380 b 760 186 512 263 602 186 z "},"⑥":{"ha":1518,"x_min":0,"x_max":0,"o":"m 760 -195 b 1453 500 1144 -195 1453 115 b 760 1194 1453 883 1145 1194 b 64 500 376 1194 64 883 b 760 -195 64 115 376 -195 z m 760 -7 b 253 500 479 -7 253 219 b 760 1005 253 779 479 1005 b 1265 500 1040 1005 1265 779 b 760 -7 1265 219 1040 -7 z m 768 186 b 1031 396 926 186 1031 270 b 798 606 1031 522 926 606 b 673 561 731 606 701 590 b 677 585 674 569 675 577 b 773 677 689 638 713 677 b 840 652 811 677 829 669 l 1006 652 b 768 812 979 748 911 812 b 488 499 581 812 488 708 b 768 186 488 290 581 186 z m 768 321 b 688 404 720 321 688 353 b 768 481 688 450 720 481 b 847 404 815 481 847 450 b 768 321 847 353 815 321 z "},"⑦":{"ha":1518,"x_min":0,"x_max":0,"o":"m 760 -195 b 1453 500 1143 -195 1453 115 b 760 1194 1453 883 1145 1194 b 64 500 376 1194 64 883 b 760 -195 64 115 376 -195 z m 760 -7 b 253 500 479 -7 253 219 b 760 1005 253 779 479 1005 b 1265 500 1040 1005 1265 779 b 760 -7 1265 219 1040 -7 z m 602 194 l 785 194 b 1009 665 785 385 870 542 l 1009 804 l 509 804 l 509 665 l 812 665 b 602 194 684 545 602 385 z "},"⑧":{"ha":1518,"x_min":0,"x_max":0,"o":"m 760 -195 b 1453 500 1144 -195 1453 115 b 760 1194 1453 883 1145 1194 b 64 500 376 1194 64 883 b 760 -195 64 115 376 -195 z m 760 -7 b 253 500 479 -7 253 219 b 760 1005 253 779 479 1005 b 1265 500 1040 1005 1265 779 b 760 -7 1265 219 1040 -7 z m 759 186 b 1037 377 926 186 1037 262 b 932 515 1037 439 992 486 b 1008 633 976 543 1008 582 b 759 812 1008 741 909 812 b 510 633 610 812 510 741 b 587 515 510 582 542 543 b 481 377 526 486 481 439 b 759 186 481 262 592 186 z m 759 571 b 685 627 715 571 685 593 b 759 682 685 659 715 682 b 832 627 804 682 832 659 b 759 571 832 593 803 571 z m 759 317 b 663 385 701 317 663 344 b 759 451 663 425 701 451 b 855 385 817 451 855 425 b 759 317 855 344 817 317 z "},"⑨":{"ha":1518,"x_min":0,"x_max":0,"o":"m 760 -195 b 1453 500 1144 -195 1453 115 b 760 1194 1453 883 1145 1194 b 64 500 376 1194 64 883 b 760 -195 64 115 376 -195 z m 760 -7 b 253 500 479 -7 253 219 b 760 1005 253 779 479 1005 b 1265 500 1040 1005 1265 779 b 760 -7 1265 219 1040 -7 z m 751 186 b 1031 499 937 186 1031 290 b 751 812 1031 708 937 812 b 488 602 593 812 488 728 b 720 392 488 477 592 392 b 845 437 787 392 817 408 b 842 414 844 429 843 421 b 745 321 829 360 805 321 b 678 346 707 321 689 330 l 513 346 b 751 186 540 250 608 186 z m 751 517 b 671 595 703 517 671 548 b 751 677 671 645 703 677 b 831 595 799 677 831 645 b 751 517 831 548 799 517 z "},"⁰":{"ha":675,"x_min":0,"x_max":0,"o":"m 337 518 b 616 831 524 518 616 623 b 337 1145 616 1040 524 1145 b 58 831 151 1145 58 1040 b 337 518 58 623 151 518 z m 337 658 b 242 831 274 658 242 715 b 337 1005 242 947 274 1005 b 433 831 401 1005 433 947 b 337 658 433 715 401 658 z "},"¹":{"ha":434,"x_min":0,"x_max":0,"o":"m 169 526 l 353 526 l 353 1137 l 201 1137 b 41 1038 201 1078 136 1038 l 41 909 b 169 928 86 909 133 915 z "},"²":{"ha":661,"x_min":0,"x_max":0,"o":"m 68 526 l 593 526 l 593 666 l 354 666 b 406 704 370 679 387 692 b 593 951 496 767 593 838 b 336 1145 593 1066 491 1145 b 79 907 182 1145 79 1050 l 252 907 b 336 1005 252 966 286 1005 b 410 951 380 1005 410 983 b 260 775 410 880 338 830 b 68 526 168 711 68 642 z "},"³":{"ha":665,"x_min":0,"x_max":0,"o":"m 333 518 b 597 709 491 518 597 594 b 498 848 597 777 560 823 b 572 978 545 878 572 922 b 332 1145 572 1078 477 1145 b 93 951 189 1145 93 1067 l 267 951 b 330 1010 267 987 292 1010 b 388 963 366 1010 388 993 b 327 898 388 924 363 898 l 280 898 l 280 781 l 333 781 b 413 715 381 781 413 755 b 330 653 413 677 380 653 b 241 734 277 653 241 686 l 68 734 b 333 518 68 605 174 518 z "},"⁴":{"ha":641,"x_min":0,"x_max":0,"o":"m 336 526 l 507 526 l 507 661 l 601 661 l 601 781 l 507 781 l 507 1137 l 340 1137 l 39 779 l 39 661 l 336 661 z m 198 781 l 336 947 l 336 781 z "},"⁵":{"ha":660,"x_min":0,"x_max":0,"o":"m 330 518 b 592 728 488 518 592 602 b 355 939 592 854 488 939 b 250 911 309 939 279 928 l 263 1002 l 548 1002 l 548 1137 l 131 1137 l 79 797 l 232 797 b 325 818 256 814 290 818 b 408 728 375 818 408 782 b 330 653 408 683 377 653 b 236 713 274 653 247 677 l 68 713 b 330 518 83 595 172 518 z "},"⁶":{"ha":677,"x_min":0,"x_max":0,"o":"m 348 518 b 611 728 506 518 611 602 b 378 939 611 854 507 939 b 254 893 311 939 281 922 b 257 917 254 901 256 909 b 353 1010 269 970 294 1010 b 420 985 391 1010 410 1001 l 586 985 b 348 1145 559 1080 491 1145 b 68 831 161 1145 68 1040 b 348 518 68 623 161 518 z m 348 653 b 268 736 300 653 268 686 b 348 814 268 783 300 814 b 427 736 395 814 427 783 b 348 653 427 686 395 653 z "},"⁷":{"ha":570,"x_min":0,"x_max":0,"o":"m 127 526 l 311 526 b 535 997 311 717 396 874 l 535 1137 l 35 1137 l 35 997 l 338 997 b 127 526 210 878 127 717 z "},"⁸":{"ha":692,"x_min":0,"x_max":0,"o":"m 346 518 b 624 709 513 518 624 594 b 519 847 624 771 579 818 b 595 966 563 875 595 914 b 346 1145 595 1073 496 1145 b 97 966 197 1145 97 1074 b 174 847 97 914 129 875 b 68 709 113 818 68 772 b 346 518 68 595 179 518 z m 346 903 b 272 959 302 903 272 926 b 346 1014 272 991 302 1014 b 419 959 391 1014 419 991 b 346 903 419 926 390 903 z m 346 649 b 250 717 288 649 250 676 b 346 783 250 757 288 783 b 442 717 404 783 442 757 b 346 649 442 676 404 649 z "},"⁹":{"ha":677,"x_min":0,"x_max":0,"o":"m 329 518 b 609 831 515 518 609 623 b 329 1145 609 1040 515 1145 b 66 935 171 1145 66 1061 b 298 724 66 809 170 724 b 423 770 366 724 395 741 b 420 746 422 762 421 753 b 323 653 408 692 383 653 b 256 678 286 653 267 662 l 91 678 b 329 518 118 583 186 518 z m 329 849 b 250 927 281 849 250 880 b 329 1010 250 977 281 1010 b 409 927 377 1010 409 977 b 329 849 409 880 377 849 z "},"₀":{"ha":675,"x_min":0,"x_max":0,"o":"m 337 -290 b 616 23 524 -290 616 -186 b 337 336 616 232 524 336 b 58 23 151 336 58 232 b 337 -290 58 -186 151 -290 z m 337 -151 b 242 23 274 -151 242 -93 b 337 197 242 139 274 197 b 433 23 401 197 433 139 b 337 -151 433 -93 401 -151 z "},"₁":{"ha":434,"x_min":0,"x_max":0,"o":"m 169 -282 l 353 -282 l 353 328 l 201 328 b 41 230 201 269 136 230 l 41 100 b 169 120 86 100 133 106 z "},"₂":{"ha":663,"x_min":0,"x_max":0,"o":"m 69 -282 l 595 -282 l 595 -142 l 355 -142 b 407 -104 371 -130 389 -117 b 595 142 497 -41 595 29 b 337 336 595 258 492 336 b 80 99 183 336 80 241 l 254 99 b 337 197 254 158 287 197 b 411 142 381 197 411 175 b 260 -33 411 72 339 22 b 69 -282 169 -97 69 -167 z "},"₃":{"ha":665,"x_min":0,"x_max":0,"o":"m 333 -290 b 597 -99 491 -290 597 -214 b 498 39 597 -31 560 14 b 572 170 545 69 572 114 b 332 336 572 269 477 336 b 93 143 189 336 93 259 l 267 143 b 330 201 267 178 292 201 b 388 155 366 201 388 184 b 327 90 388 116 363 90 l 280 90 l 280 -27 l 333 -27 b 413 -94 381 -27 413 -54 b 330 -155 413 -131 380 -155 b 241 -74 277 -155 241 -123 l 68 -74 b 333 -290 68 -203 174 -290 z "},"₄":{"ha":641,"x_min":0,"x_max":0,"o":"m 336 -282 l 507 -282 l 507 -148 l 601 -148 l 601 -28 l 507 -28 l 507 328 l 340 328 l 39 -30 l 39 -148 l 336 -148 z m 198 -28 l 336 138 l 336 -28 z "},"₅":{"ha":660,"x_min":0,"x_max":0,"o":"m 330 -290 b 592 -80 488 -290 592 -206 b 355 130 592 45 488 130 b 250 102 309 130 279 120 l 263 193 l 548 193 l 548 328 l 131 328 l 79 -12 l 232 -12 b 325 9 256 5 290 9 b 408 -80 375 9 408 -26 b 330 -155 408 -125 377 -155 b 236 -96 274 -155 247 -132 l 68 -96 b 330 -290 83 -213 172 -290 z "},"₆":{"ha":677,"x_min":0,"x_max":0,"o":"m 348 -290 b 611 -80 506 -290 611 -206 b 378 130 611 45 507 130 b 254 85 311 130 281 114 b 257 109 254 93 256 101 b 353 201 270 162 294 201 b 420 176 391 201 410 193 l 586 176 b 348 336 559 272 491 336 b 68 23 161 336 68 232 b 348 -290 68 -186 161 -290 z m 348 -155 b 268 -73 300 -155 268 -123 b 348 5 268 -26 300 5 b 427 -73 395 5 427 -26 b 348 -155 427 -123 395 -155 z "},"₇":{"ha":570,"x_min":0,"x_max":0,"o":"m 127 -282 l 311 -282 b 535 189 311 -92 396 66 l 535 328 l 35 328 l 35 189 l 338 189 b 127 -282 210 69 127 -92 z "},"₈":{"ha":692,"x_min":0,"x_max":0,"o":"m 346 -290 b 624 -99 513 -290 624 -214 b 519 39 624 -37 579 9 b 595 157 563 66 595 106 b 346 336 595 264 496 336 b 97 157 197 336 97 265 b 174 39 97 106 129 66 b 68 -99 113 9 68 -37 b 346 -290 68 -214 179 -290 z m 346 95 b 272 151 302 95 272 117 b 346 205 272 183 302 205 b 419 151 391 205 419 183 b 346 95 419 117 390 95 z m 346 -159 b 250 -92 288 -159 250 -132 b 346 -25 250 -52 288 -25 b 442 -92 404 -25 442 -52 b 346 -159 442 -132 404 -159 z "},"₉":{"ha":677,"x_min":0,"x_max":0,"o":"m 329 -290 b 609 23 515 -290 609 -186 b 329 336 609 232 515 336 b 66 126 171 336 66 252 b 298 -84 66 1 170 -84 b 423 -39 366 -84 395 -68 b 420 -62 422 -47 421 -55 b 323 -155 408 -116 383 -155 b 256 -130 286 -155 267 -146 l 91 -130 b 329 -290 118 -226 186 -290 z m 329 41 b 250 119 281 41 250 72 b 329 201 250 169 281 201 b 409 119 377 201 409 169 b 329 41 409 72 377 41 z "},"⁄":{"ha":522,"x_min":0,"x_max":0,"o":"m -114 0 l 59 0 l 635 998 l 463 998 z "},"½":{"ha":1592,"x_min":0,"x_max":0,"o":"m 221 388 l 405 388 l 405 998 l 253 998 b 93 900 253 939 188 900 l 93 770 b 221 790 138 770 184 777 z m 372 0 l 545 0 l 1121 998 l 948 998 z m 975 0 l 1500 0 l 1500 140 l 1261 140 b 1312 178 1276 153 1294 165 b 1500 425 1404 239 1500 311 b 1242 618 1500 540 1398 618 b 985 381 1088 618 985 524 l 1159 381 b 1242 479 1159 440 1192 479 b 1316 425 1286 479 1316 457 b 1166 249 1316 354 1244 304 b 975 0 1074 185 975 115 z "},"⅓":{"ha":1615,"x_min":0,"x_max":0,"o":"m 221 388 l 405 388 l 405 998 l 253 998 b 93 900 253 939 188 900 l 93 770 b 221 790 138 770 184 777 z m 372 0 l 545 0 l 1121 998 l 948 998 z m 1258 -8 b 1522 183 1416 -8 1522 68 b 1423 321 1522 251 1486 296 b 1497 452 1470 351 1497 396 b 1258 618 1497 551 1402 618 b 1019 425 1114 618 1019 541 l 1192 425 b 1256 484 1192 460 1218 484 b 1314 437 1291 484 1314 467 b 1253 372 1314 398 1289 372 l 1205 372 l 1205 255 l 1258 255 b 1338 189 1306 255 1338 229 b 1256 127 1338 151 1305 127 b 1166 208 1202 127 1166 159 l 994 208 b 1258 -8 994 79 1099 -8 z "},"¼":{"ha":1571,"x_min":0,"x_max":0,"o":"m 221 388 l 405 388 l 405 998 l 253 998 b 93 900 253 939 188 900 l 93 770 b 221 790 138 770 184 777 z m 372 0 l 545 0 l 1121 998 l 948 998 z m 1214 0 l 1384 0 l 1384 134 l 1478 134 l 1478 254 l 1384 254 l 1384 610 l 1217 610 l 916 252 l 916 134 l 1214 134 z m 1076 254 l 1214 420 l 1214 254 z "},"⅕":{"ha":1627,"x_min":0,"x_max":0,"o":"m 221 388 l 405 388 l 405 998 l 253 998 b 93 900 253 939 188 900 l 93 770 b 221 790 138 770 184 777 z m 372 0 l 545 0 l 1121 998 l 948 998 z m 1273 -8 b 1535 202 1430 -8 1535 76 b 1298 412 1535 328 1430 412 b 1192 385 1251 412 1221 402 l 1205 475 l 1490 475 l 1490 610 l 1073 610 l 1022 271 l 1175 271 b 1267 292 1198 288 1232 292 b 1351 202 1318 292 1351 256 b 1273 127 1351 157 1320 127 b 1179 186 1216 127 1190 151 l 1010 186 b 1273 -8 1025 69 1115 -8 z "},"⅙":{"ha":1603,"x_min":0,"x_max":0,"o":"m 221 388 l 405 388 l 405 998 l 253 998 b 93 900 253 939 188 900 l 93 770 b 221 790 138 770 184 777 z m 372 0 l 545 0 l 1121 998 l 948 998 z m 1247 -8 b 1510 202 1405 -8 1510 76 b 1278 412 1510 328 1406 412 b 1154 367 1211 412 1181 396 b 1157 391 1154 375 1155 383 b 1253 484 1169 444 1193 484 b 1320 458 1291 484 1309 475 l 1485 458 b 1247 618 1459 554 1391 618 b 967 305 1061 618 967 514 b 1247 -8 967 96 1061 -8 z m 1247 127 b 1167 210 1199 127 1167 159 b 1247 288 1167 256 1199 288 b 1327 210 1295 288 1327 256 b 1247 127 1327 159 1295 127 z "},"⅐":{"ha":1663,"x_min":0,"x_max":0,"o":"m 221 388 l 405 388 l 405 998 l 253 998 b 93 900 253 939 188 900 l 93 770 b 221 790 138 770 184 777 z m 372 0 l 545 0 l 1121 998 l 948 998 z m 1163 0 l 1346 0 b 1571 471 1346 191 1432 348 l 1571 610 l 1070 610 l 1070 471 l 1373 471 b 1163 0 1246 351 1163 191 z "},"⅛":{"ha":1631,"x_min":0,"x_max":0,"o":"m 221 388 l 405 388 l 405 998 l 253 998 b 93 900 253 939 188 900 l 93 770 b 221 790 138 770 184 777 z m 372 0 l 545 0 l 1121 998 l 948 998 z m 1260 -8 b 1538 183 1427 -8 1538 68 b 1433 321 1538 245 1493 292 b 1509 439 1477 349 1509 388 b 1260 618 1509 547 1411 618 b 1010 439 1111 618 1010 547 b 1088 321 1010 388 1042 349 b 982 183 1027 292 982 245 b 1260 -8 982 68 1093 -8 z m 1260 377 b 1186 433 1216 377 1186 399 b 1260 488 1186 465 1216 488 b 1333 433 1305 488 1333 465 b 1260 377 1333 399 1304 377 z m 1260 123 b 1164 191 1202 123 1164 150 b 1260 257 1164 231 1202 257 b 1356 191 1318 257 1356 231 b 1260 123 1356 150 1318 123 z "},"⅑":{"ha":1603,"x_min":0,"x_max":0,"o":"m 221 388 l 405 388 l 405 998 l 253 998 b 93 900 253 939 188 900 l 93 770 b 221 790 138 770 184 777 z m 372 0 l 545 0 l 1121 998 l 948 998 z m 1231 -8 b 1510 305 1417 -8 1510 96 b 1231 618 1510 514 1417 618 b 967 408 1073 618 967 534 b 1200 198 967 283 1072 198 b 1324 243 1267 198 1297 214 b 1321 220 1324 235 1323 227 b 1225 127 1309 166 1285 127 b 1158 152 1187 127 1168 136 l 993 152 b 1231 -8 1019 56 1087 -8 z m 1231 323 b 1151 401 1183 323 1151 354 b 1231 484 1151 451 1183 484 b 1311 401 1279 484 1311 451 b 1231 323 1311 354 1279 323 z "},"⅔":{"ha":1806,"x_min":0,"x_max":0,"o":"m 93 388 l 618 388 l 618 528 l 379 528 b 431 566 395 541 412 553 b 618 812 522 627 618 699 b 361 1006 618 928 516 1006 b 104 769 207 1006 104 911 l 277 769 b 361 867 277 828 311 867 b 435 812 405 867 435 845 b 285 637 435 742 363 692 b 93 388 193 573 93 503 z m 563 0 l 736 0 l 1312 998 l 1139 998 z m 1449 -8 b 1713 183 1607 -8 1713 68 b 1614 321 1713 251 1677 296 b 1689 452 1662 351 1689 396 b 1449 618 1689 551 1594 618 b 1210 425 1305 618 1210 541 l 1383 425 b 1447 484 1383 460 1409 484 b 1505 437 1482 484 1505 467 b 1443 372 1505 398 1480 372 l 1396 372 l 1396 255 l 1449 255 b 1529 189 1497 255 1529 229 b 1447 127 1529 151 1496 127 b 1358 208 1394 127 1358 159 l 1184 208 b 1449 -8 1184 79 1290 -8 z "},"⅖":{"ha":1818,"x_min":0,"x_max":0,"o":"m 93 388 l 618 388 l 618 528 l 379 528 b 431 566 395 541 412 553 b 618 812 522 627 618 699 b 361 1006 618 928 516 1006 b 104 769 207 1006 104 911 l 277 769 b 361 867 277 828 311 867 b 435 812 405 867 435 845 b 285 637 435 742 363 692 b 93 388 193 573 93 503 z m 563 0 l 736 0 l 1312 998 l 1139 998 z m 1463 -8 b 1725 202 1621 -8 1725 76 b 1489 412 1725 328 1622 412 b 1383 385 1442 412 1412 402 l 1396 475 l 1681 475 l 1681 610 l 1264 610 l 1213 271 l 1366 271 b 1458 292 1390 288 1423 292 b 1542 202 1508 292 1542 256 b 1463 127 1542 157 1510 127 b 1370 186 1407 127 1381 151 l 1201 186 b 1463 -8 1217 69 1305 -8 z "},"¾":{"ha":1710,"x_min":0,"x_max":0,"o":"m 357 380 b 621 571 515 380 621 456 b 523 709 621 639 585 684 b 597 840 570 739 597 784 b 357 1006 597 939 502 1006 b 118 813 213 1006 118 929 l 291 813 b 355 871 291 848 317 871 b 413 825 390 871 413 854 b 352 760 413 786 389 760 l 304 760 l 304 643 l 357 643 b 437 576 406 643 437 616 b 355 515 437 539 405 515 b 266 596 302 515 266 547 l 93 596 b 357 380 93 467 199 380 z m 511 0 l 684 0 l 1260 998 l 1087 998 z m 1352 0 l 1523 0 l 1523 134 l 1617 134 l 1617 254 l 1523 254 l 1523 610 l 1356 610 l 1055 252 l 1055 134 l 1352 134 z m 1214 254 l 1352 420 l 1352 254 z "},"⅗":{"ha":1766,"x_min":0,"x_max":0,"o":"m 357 380 b 621 571 515 380 621 456 b 523 709 621 639 585 684 b 597 840 570 739 597 784 b 357 1006 597 939 502 1006 b 118 813 213 1006 118 929 l 291 813 b 355 871 291 848 317 871 b 413 825 390 871 413 854 b 352 760 413 786 389 760 l 304 760 l 304 643 l 357 643 b 437 576 406 643 437 616 b 355 515 437 539 405 515 b 266 596 302 515 266 547 l 93 596 b 357 380 93 467 199 380 z m 511 0 l 684 0 l 1260 998 l 1087 998 z m 1411 -8 b 1673 202 1569 -8 1673 76 b 1436 412 1673 328 1569 412 b 1331 385 1390 412 1360 402 l 1344 475 l 1629 475 l 1629 610 l 1212 610 l 1160 271 l 1314 271 b 1406 292 1337 288 1371 292 b 1489 202 1456 292 1489 256 b 1411 127 1489 157 1458 127 b 1317 186 1355 127 1328 151 l 1149 186 b 1411 -8 1164 69 1253 -8 z "},"⅜":{"ha":1770,"x_min":0,"x_max":0,"o":"m 357 380 b 621 571 515 380 621 456 b 523 709 621 639 585 684 b 597 840 570 739 597 784 b 357 1006 597 939 502 1006 b 118 813 213 1006 118 929 l 291 813 b 355 871 291 848 317 871 b 413 825 390 871 413 854 b 352 760 413 786 389 760 l 304 760 l 304 643 l 357 643 b 437 576 406 643 437 616 b 355 515 437 539 405 515 b 266 596 302 515 266 547 l 93 596 b 357 380 93 467 199 380 z m 511 0 l 684 0 l 1260 998 l 1087 998 z m 1399 -8 b 1677 183 1566 -8 1677 68 b 1571 321 1677 245 1632 292 b 1648 439 1616 349 1648 388 b 1399 618 1648 547 1550 618 b 1149 439 1249 618 1149 547 b 1226 321 1149 388 1181 349 b 1121 183 1166 292 1121 245 b 1399 -8 1121 68 1232 -8 z m 1399 377 b 1325 433 1355 377 1325 399 b 1399 488 1325 465 1355 488 b 1472 433 1444 488 1472 465 b 1399 377 1472 399 1443 377 z m 1399 123 b 1303 191 1341 123 1303 150 b 1399 257 1303 231 1341 257 b 1495 191 1457 257 1495 231 b 1399 123 1495 150 1457 123 z "},"⅘":{"ha":1831,"x_min":0,"x_max":0,"o":"m 390 388 l 561 388 l 561 522 l 654 522 l 654 642 l 561 642 l 561 998 l 393 998 l 93 640 l 93 522 l 390 522 z m 576 0 l 749 0 l 1325 998 l 1152 998 z m 252 642 l 390 808 l 390 642 z m 1476 -8 b 1738 202 1634 -8 1738 76 b 1502 412 1738 328 1634 412 b 1396 385 1455 412 1425 402 l 1409 475 l 1694 475 l 1694 610 l 1277 610 l 1225 271 l 1379 271 b 1471 292 1402 288 1436 292 b 1555 202 1521 292 1555 256 b 1476 127 1555 157 1523 127 b 1383 186 1420 127 1394 151 l 1214 186 b 1476 -8 1230 69 1318 -8 z "},"⅚":{"ha":1708,"x_min":0,"x_max":0,"o":"m 355 380 b 617 590 513 380 617 464 b 380 800 617 715 513 800 b 274 772 334 800 304 790 l 288 863 l 573 863 l 573 998 l 156 998 l 104 659 l 257 659 b 349 680 281 675 314 680 b 433 590 400 680 433 644 b 355 515 433 545 402 515 b 261 574 298 515 272 538 l 93 574 b 355 380 108 457 197 380 z m 477 0 l 650 0 l 1226 998 l 1053 998 z m 1352 -8 b 1615 202 1510 -8 1615 76 b 1383 412 1615 328 1511 412 b 1259 367 1316 412 1286 396 b 1262 391 1259 375 1260 383 b 1358 484 1274 444 1298 484 b 1426 458 1396 484 1415 475 l 1590 458 b 1352 618 1564 554 1496 618 b 1072 305 1166 618 1072 514 b 1352 -8 1072 96 1166 -8 z m 1352 127 b 1272 210 1304 127 1272 159 b 1352 288 1272 256 1304 288 b 1432 210 1400 288 1432 256 b 1352 127 1432 159 1400 127 z "},"⅝":{"ha":1736,"x_min":0,"x_max":0,"o":"m 355 380 b 617 590 513 380 617 464 b 380 800 617 715 513 800 b 274 772 334 800 304 790 l 288 863 l 573 863 l 573 998 l 156 998 l 104 659 l 257 659 b 349 680 281 675 314 680 b 433 590 400 680 433 644 b 355 515 433 545 402 515 b 261 574 298 515 272 538 l 93 574 b 355 380 108 457 197 380 z m 477 0 l 650 0 l 1226 998 l 1053 998 z m 1365 -8 b 1643 183 1532 -8 1643 68 b 1538 321 1643 245 1598 292 b 1614 439 1582 349 1614 388 b 1365 618 1614 547 1516 618 b 1116 439 1216 618 1116 547 b 1193 321 1116 388 1147 349 b 1087 183 1132 292 1087 245 b 1365 -8 1087 68 1198 -8 z m 1365 377 b 1291 433 1321 377 1291 399 b 1365 488 1291 465 1321 488 b 1438 433 1410 488 1438 465 b 1365 377 1438 399 1409 377 z m 1365 123 b 1269 191 1307 123 1269 150 b 1365 257 1269 231 1307 257 b 1461 191 1423 257 1461 231 b 1365 123 1461 150 1423 123 z "},"⅞":{"ha":1644,"x_min":0,"x_max":0,"o":"m 186 388 l 369 388 b 593 859 369 578 454 736 l 593 998 l 93 998 l 93 859 l 396 859 b 186 388 269 739 186 578 z m 385 0 l 558 0 l 1135 998 l 962 998 z m 1274 -8 b 1552 183 1440 -8 1552 68 b 1446 321 1552 245 1506 292 b 1522 439 1491 349 1522 388 b 1274 618 1522 547 1423 618 b 1024 439 1124 618 1024 547 b 1101 321 1024 388 1056 349 b 995 183 1040 292 995 245 b 1274 -8 995 68 1106 -8 z m 1274 377 b 1200 433 1229 377 1200 399 b 1274 488 1200 465 1229 488 b 1347 433 1318 488 1347 465 b 1274 377 1347 399 1318 377 z m 1274 123 b 1177 191 1215 123 1177 150 b 1274 257 1177 231 1215 257 b 1369 191 1332 257 1369 231 b 1274 123 1369 150 1331 123 z "},"Δ":{"ha":1055,"x_min":0,"x_max":0,"o":"m 28 0 l 1026 0 l 654 998 l 399 998 z m 349 207 l 527 704 l 706 207 z "},"Ω":{"ha":1114,"x_min":0,"x_max":0,"o":"m 64 0 l 507 0 l 507 212 b 319 499 395 266 319 326 b 557 808 319 684 415 808 b 794 499 699 808 794 684 b 606 212 794 326 719 266 l 606 0 l 1049 0 l 1049 212 l 938 212 b 1049 499 1006 275 1049 366 b 557 1020 1049 811 852 1020 b 64 499 262 1020 64 811 b 176 212 64 366 108 275 l 64 212 z "},"μ":{"ha":868,"x_min":0,"x_max":0,"o":"m 81 -282 l 316 -282 l 316 0 b 402 -22 343 -14 373 -22 b 571 60 469 -22 528 13 l 571 0 l 787 0 l 787 716 l 552 716 l 552 273 b 434 154 552 201 505 154 b 316 273 363 154 316 202 l 316 716 l 81 716 z "},"π":{"ha":1046,"x_min":0,"x_max":0,"o":"m 195 0 l 429 0 l 429 541 l 599 541 l 599 223 b 846 0 599 90 698 0 l 952 0 l 952 182 l 882 182 b 833 238 849 182 833 204 l 833 541 l 1000 541 l 1000 716 l 28 716 l 28 541 l 195 541 z "},"¤":{"ha":991,"x_min":0,"x_max":0,"o":"m 170 47 l 320 197 b 496 149 371 167 431 149 b 671 197 560 149 620 167 l 821 47 l 947 174 l 798 323 b 846 499 828 375 846 435 b 798 675 846 564 828 624 l 947 825 l 821 951 l 671 801 b 496 849 620 831 560 849 b 320 802 431 849 371 831 l 170 951 l 44 825 l 193 675 b 146 499 163 624 146 564 b 193 323 146 435 163 375 l 44 174 z m 496 317 b 324 499 401 317 324 398 b 496 682 324 600 401 682 b 667 499 590 682 667 600 b 496 317 667 398 590 317 z "},"¢":{"ha":991,"x_min":0,"x_max":0,"o":"m 425 -195 l 592 -195 l 592 -16 b 863 271 753 12 845 119 l 628 271 b 508 154 614 201 581 154 b 363 358 421 154 363 235 b 508 562 363 481 421 562 b 628 445 581 562 614 515 l 863 445 b 592 732 845 597 753 704 l 592 911 l 425 911 l 425 731 b 128 358 244 698 128 557 b 425 -15 128 159 244 18 z "},"$":{"ha":991,"x_min":0,"x_max":0,"o":"m 412 -195 l 580 -195 l 580 -17 b 926 290 791 7 926 124 b 555 614 926 534 720 579 b 353 732 445 638 353 659 b 496 817 353 783 411 817 b 639 711 582 817 639 774 l 894 711 b 580 1015 894 874 771 989 l 580 1194 l 412 1194 l 412 1015 b 98 732 221 991 98 883 b 463 416 98 503 300 454 b 671 290 576 390 671 367 b 496 182 671 225 601 182 b 321 329 391 182 321 241 l 66 329 b 412 -17 66 143 201 11 z "},"€":{"ha":991,"x_min":0,"x_max":0,"o":"m 711 -22 b 912 1 792 -22 831 -17 l 912 212 b 736 190 831 195 792 190 b 518 309 627 190 558 234 l 912 309 l 912 452 l 475 452 b 472 499 473 467 472 482 b 475 547 472 516 473 532 l 912 547 l 912 690 l 518 690 b 736 808 558 764 627 808 b 912 786 792 808 840 804 l 912 997 b 711 1020 840 1015 792 1020 b 245 690 481 1020 309 893 l 79 690 l 79 547 l 219 547 b 217 499 218 531 217 515 b 219 452 217 483 218 467 l 79 452 l 79 309 l 245 309 b 711 -22 309 105 481 -22 z "},"ƒ":{"ha":991,"x_min":0,"x_max":0,"o":"m 134 -282 l 278 -282 b 526 -59 427 -282 498 -193 l 629 423 l 781 423 l 812 575 l 661 575 l 700 760 b 748 817 707 794 716 817 l 819 817 l 858 998 l 713 998 b 465 775 565 998 494 909 l 422 575 l 283 575 l 251 423 l 391 423 l 291 -44 b 243 -100 284 -78 275 -100 l 172 -100 z "},"£":{"ha":991,"x_min":0,"x_max":0,"o":"m 83 0 l 908 0 l 908 203 l 574 203 b 623 328 604 241 623 283 b 618 383 623 348 622 366 l 827 383 l 827 526 l 541 526 b 464 583 517 549 490 567 b 354 724 406 618 354 652 b 496 817 354 782 410 817 b 654 700 591 817 654 770 l 892 700 b 496 1020 892 892 733 1020 b 99 724 256 1020 99 903 b 136 593 99 667 115 626 b 197 526 153 567 174 545 l 83 526 l 83 383 l 357 383 b 368 326 364 367 368 349 b 227 203 368 259 312 203 l 83 203 z "},"¥":{"ha":991,"x_min":0,"x_max":0,"o":"m 368 0 l 623 0 l 623 117 l 878 117 l 878 260 l 623 260 l 623 378 l 878 378 l 878 520 l 706 520 l 982 998 l 720 998 l 496 610 l 271 998 l 9 998 l 286 520 l 113 520 l 113 378 l 368 378 l 368 260 l 113 260 l 113 117 l 368 117 z "},"№":{"ha":1727,"x_min":0,"x_max":0,"o":"m 1390 491 b 1683 750 1566 491 1683 595 b 1390 1009 1683 905 1567 1009 b 1097 750 1214 1009 1097 905 b 1390 491 1097 595 1214 491 z m 93 0 l 340 0 l 340 595 l 712 0 l 960 0 l 960 998 l 712 998 l 712 403 l 340 998 l 93 998 z m 1390 625 b 1285 750 1327 625 1285 675 b 1390 875 1285 825 1327 875 b 1495 750 1453 875 1495 824 b 1390 625 1495 675 1453 625 z "},"∑":{"ha":1010,"x_min":0,"x_max":0,"o":"m 64 -282 l 945 -282 l 945 -62 l 366 -62 l 687 358 l 374 779 l 932 779 l 932 998 l 77 998 l 77 779 l 391 358 l 64 -62 z "},"∏":{"ha":1042,"x_min":0,"x_max":0,"o":"m 93 -282 l 348 -282 l 348 779 l 694 779 l 694 -282 l 949 -282 l 949 998 l 93 998 z "},"√":{"ha":991,"x_min":0,"x_max":0,"o":"m 420 -282 l 654 -282 l 1001 1039 l 766 1039 l 537 106 l 486 347 l 55 347 l 55 171 l 301 171 z "},"∂":{"ha":876,"x_min":0,"x_max":0,"o":"m 438 -22 b 812 358 662 -22 812 130 l 812 716 b 448 1020 812 899 666 1020 b 92 784 258 1020 123 928 l 336 784 b 448 844 357 821 396 844 b 576 716 526 844 576 793 l 576 679 b 416 738 532 715 478 738 b 64 358 213 738 64 585 b 438 -22 64 130 214 -22 z m 438 154 b 299 358 355 154 299 235 b 438 562 299 480 354 562 b 576 358 522 562 576 481 b 438 154 576 235 522 154 z "},"∫":{"ha":991,"x_min":0,"x_max":0,"o":"m 259 -282 l 365 -282 b 613 -59 514 -282 613 -193 l 613 801 b 661 857 613 835 629 857 l 732 857 l 732 1039 l 626 1039 b 378 816 477 1039 378 949 l 378 -44 b 330 -100 378 -78 362 -100 l 259 -100 z "},"∆":{"ha":1055,"x_min":0,"x_max":0,"o":"m 28 0 l 1026 0 l 654 998 l 399 998 z m 349 207 l 527 704 l 706 207 z "},"Ω":{"ha":1114,"x_min":0,"x_max":0,"o":"m 64 0 l 507 0 l 507 212 b 319 499 395 266 319 326 b 557 808 319 684 415 808 b 794 499 699 808 794 684 b 606 212 794 326 719 266 l 606 0 l 1049 0 l 1049 212 l 938 212 b 1049 499 1006 275 1049 366 b 557 1020 1049 811 852 1020 b 64 499 262 1020 64 811 b 176 212 64 366 108 275 l 64 212 z "},"µ":{"ha":868,"x_min":0,"x_max":0,"o":"m 81 -282 l 316 -282 l 316 0 b 402 -22 343 -14 373 -22 b 571 60 469 -22 528 13 l 571 0 l 787 0 l 787 716 l 552 716 l 552 273 b 434 154 552 201 505 154 b 316 273 363 154 316 202 l 316 716 l 81 716 z "},"∞":{"ha":1116,"x_min":0,"x_max":0,"o":"m 300 205 b 558 357 406 205 487 276 b 816 205 629 276 710 205 b 1072 472 970 205 1072 311 b 816 739 1072 633 970 739 b 558 587 710 739 629 668 b 300 739 487 668 406 739 b 44 472 146 739 44 633 b 300 205 44 311 146 205 z m 300 361 b 211 472 247 361 211 405 b 300 583 211 539 247 583 b 463 472 358 583 410 534 b 300 361 410 410 358 361 z m 816 361 b 654 472 758 361 707 410 b 816 583 707 534 758 583 b 905 472 869 583 905 539 b 816 361 905 405 869 361 z "},"+":{"ha":991,"x_min":0,"x_max":0,"o":"m 396 92 l 595 92 l 595 374 l 876 374 l 876 570 l 595 570 l 595 852 l 396 852 l 396 570 l 116 570 l 116 374 l 396 374 z "},"−":{"ha":991,"x_min":0,"x_max":0,"o":"m 116 374 l 876 374 l 876 570 l 116 570 z "},"±":{"ha":991,"x_min":0,"x_max":0,"o":"m 396 289 l 595 289 l 595 490 l 876 490 l 876 685 l 595 685 l 595 886 l 396 886 l 396 685 l 116 685 l 116 490 l 396 490 z m 116 0 l 876 0 l 876 195 l 116 195 z "},"×":{"ha":991,"x_min":0,"x_max":0,"o":"m 248 87 l 496 334 l 743 87 l 881 225 l 634 472 l 881 719 l 743 857 l 496 610 l 248 857 l 111 719 l 357 472 l 111 225 z "},"∙":{"ha":572,"x_min":0,"x_max":0,"o":"m 286 245 b 512 472 411 245 512 347 b 286 698 512 597 411 698 b 60 472 160 698 60 597 b 286 245 60 347 160 245 z "},"÷":{"ha":991,"x_min":0,"x_max":0,"o":"m 496 680 b 611 796 559 680 611 731 b 496 909 611 858 559 909 b 381 796 433 909 381 858 b 496 680 381 731 433 680 z m 116 374 l 876 374 l 876 570 l 116 570 z m 496 35 b 610 151 559 35 610 86 b 496 264 610 212 559 264 b 380 151 432 264 380 212 b 496 35 380 86 432 35 z "},"=":{"ha":991,"x_min":0,"x_max":0,"o":"m 116 541 l 876 541 l 876 736 l 116 736 z m 116 208 l 876 208 l 876 403 l 116 403 z "},"≈":{"ha":991,"x_min":0,"x_max":0,"o":"m 619 487 b 884 778 778 487 884 603 l 705 778 b 619 662 705 712 669 662 b 528 718 587 662 558 688 b 372 791 493 754 444 791 b 108 500 214 791 108 675 l 286 500 b 372 616 286 566 323 616 b 463 559 405 616 434 588 b 619 487 499 523 547 487 z m 619 153 b 884 444 778 153 884 269 l 705 444 b 619 328 705 378 669 328 b 528 385 587 328 558 355 b 372 458 493 420 444 458 b 108 166 214 458 108 341 l 286 166 b 372 282 286 231 323 282 b 463 226 405 282 434 254 b 619 153 499 189 547 153 z "},"≠":{"ha":991,"x_min":0,"x_max":0,"o":"m 334 -22 l 441 208 l 876 208 l 876 403 l 532 403 l 597 541 l 876 541 l 876 736 l 688 736 l 770 913 l 657 966 l 550 736 l 116 736 l 116 541 l 459 541 l 395 403 l 116 403 l 116 208 l 303 208 l 221 31 z "},">":{"ha":991,"x_min":0,"x_max":0,"o":"m 127 103 l 865 371 l 865 573 l 127 841 l 127 642 l 619 472 l 127 302 z "},"<":{"ha":991,"x_min":0,"x_max":0,"o":"m 865 103 l 865 302 l 372 472 l 865 642 l 865 841 l 127 573 l 127 371 z "},"≥":{"ha":991,"x_min":0,"x_max":0,"o":"m 116 289 l 876 486 l 876 688 l 116 886 l 116 692 l 546 587 l 116 482 z m 116 0 l 876 0 l 876 195 l 116 195 z "},"≤":{"ha":991,"x_min":0,"x_max":0,"o":"m 876 289 l 876 482 l 446 587 l 876 692 l 876 886 l 116 688 l 116 486 z m 116 0 l 876 0 l 876 195 l 116 195 z "},"∕":{"ha":807,"x_min":0,"x_max":0,"o":"m 44 0 l 298 0 l 763 998 l 509 998 z "},"%":{"ha":1698,"x_min":0,"x_max":0,"o":"m 372 393 b 651 707 558 393 651 498 b 372 1020 651 916 558 1020 b 93 707 186 1020 93 916 b 372 393 93 498 186 393 z m 474 0 l 647 0 l 1223 998 l 1050 998 z m 372 533 b 277 707 309 533 277 591 b 372 880 277 823 309 880 b 467 707 435 880 467 823 b 372 533 467 591 435 533 z m 1326 -22 b 1605 292 1512 -22 1605 83 b 1326 605 1605 500 1512 605 b 1046 292 1140 605 1046 500 b 1326 -22 1046 83 1140 -22 z m 1326 118 b 1230 292 1262 118 1230 176 b 1326 465 1230 408 1262 465 b 1421 292 1390 465 1421 408 b 1326 118 1421 176 1390 118 z "},"‰":{"ha":2372,"x_min":0,"x_max":0,"o":"m 372 393 b 651 707 558 393 651 498 b 372 1020 651 916 558 1020 b 93 707 186 1020 93 916 b 372 393 93 498 186 393 z m 474 0 l 647 0 l 1223 998 l 1050 998 z m 372 533 b 277 707 309 533 277 591 b 372 880 277 823 309 880 b 467 707 435 880 467 823 b 372 533 467 591 435 533 z m 1326 -22 b 1605 292 1512 -22 1605 83 b 1326 605 1605 500 1512 605 b 1046 292 1140 605 1046 500 b 1326 -22 1046 83 1140 -22 z m 2001 -22 b 2280 292 2186 -22 2280 83 b 2001 605 2280 500 2186 605 b 1721 292 1814 605 1721 500 b 2001 -22 1721 83 1814 -22 z m 1326 118 b 1230 292 1262 118 1230 176 b 1326 465 1230 408 1262 465 b 1421 292 1390 465 1421 408 b 1326 118 1421 176 1390 118 z m 2001 118 b 1905 292 1937 118 1905 176 b 2001 465 1905 408 1937 465 b 2096 292 2064 465 2096 408 b 2001 118 2096 176 2064 118 z "},"~":{"ha":991,"x_min":0,"x_max":0,"o":"m 619 276 b 884 568 778 276 884 393 l 705 568 b 619 452 705 502 669 452 b 528 508 587 452 558 478 b 372 581 493 543 444 581 b 108 290 214 581 108 465 l 286 290 b 372 406 286 356 323 406 b 463 349 405 406 434 378 b 619 276 499 313 547 276 z "},"¬":{"ha":991,"x_min":0,"x_max":0,"o":"m 650 134 l 857 134 l 857 570 l 135 570 l 135 375 l 650 375 z "},"@":{"ha":1474,"x_min":0,"x_max":0,"o":"m 737 -217 b 1002 -172 835 -217 924 -201 l 1002 -11 b 737 -56 930 -39 840 -56 b 275 401 460 -56 275 127 b 737 859 275 675 460 859 b 1199 401 1014 859 1199 675 b 1101 256 1199 315 1160 256 b 1002 401 1032 256 1002 315 l 1002 688 l 831 688 l 831 647 b 691 706 793 685 747 706 b 413 401 530 706 413 584 b 691 96 413 219 530 96 b 878 204 802 96 854 158 b 1101 96 926 136 1004 96 b 1381 401 1269 96 1381 218 b 737 1020 1381 772 1123 1020 b 93 401 351 1020 93 772 b 737 -217 93 31 351 -217 z m 712 248 b 606 401 648 248 606 309 b 712 555 606 493 648 555 b 816 401 774 555 816 493 b 712 248 816 309 774 248 z "},"&":{"ha":1101,"x_min":0,"x_max":0,"o":"m 454 -22 b 760 54 572 -22 675 5 l 805 0 l 1081 0 l 921 191 b 1016 502 982 275 1016 380 l 811 502 b 777 353 811 454 806 409 l 640 524 b 810 763 732 582 810 653 b 506 1020 810 916 690 1020 b 201 763 323 1020 201 918 b 297 566 201 673 241 621 b 79 283 184 509 79 429 b 454 -22 79 100 230 -22 z m 498 656 b 418 772 463 683 418 725 b 506 856 418 819 453 856 b 593 772 559 856 593 819 b 498 656 593 723 546 684 z m 476 178 b 320 283 387 178 320 214 b 452 421 320 340 385 385 l 620 220 b 476 178 580 191 531 178 z "},"¶":{"ha":918,"x_min":0,"x_max":0,"o":"m 323 -282 l 499 -282 l 499 834 l 648 834 l 648 -282 l 825 -282 l 825 998 l 323 998 b 41 716 167 998 41 872 b 323 434 41 560 167 434 z "},"§":{"ha":805,"x_min":0,"x_max":0,"o":"m 412 -304 b 741 -75 609 -304 741 -218 b 623 135 741 20 690 87 b 741 358 690 183 741 250 b 458 662 741 549 585 611 b 293 791 369 698 293 730 b 393 856 293 835 333 856 b 494 793 454 856 494 831 l 722 793 b 393 1020 722 928 591 1020 b 64 791 196 1020 64 934 b 182 581 64 696 115 629 b 64 358 115 533 64 467 b 349 54 64 167 221 105 b 512 -75 437 18 512 -14 b 412 -140 512 -119 472 -140 b 311 -77 351 -140 311 -115 l 83 -77 b 412 -304 83 -212 214 -304 z m 403 241 b 293 358 335 241 293 295 b 403 475 293 428 336 475 b 512 358 469 475 512 428 b 403 241 512 295 470 241 z "},"©":{"ha":1171,"x_min":0,"x_max":0,"o":"m 585 -22 b 1106 499 873 -22 1106 211 b 585 1020 1106 787 873 1020 b 64 499 297 1020 64 787 b 585 -22 64 211 297 -22 z m 585 114 b 219 499 382 114 219 286 b 585 884 219 712 382 884 b 952 499 789 884 952 712 b 585 114 952 286 789 114 z m 590 240 b 828 439 733 240 814 320 l 665 439 b 590 376 656 401 635 376 b 502 499 537 376 502 425 b 590 623 502 573 537 623 b 665 559 635 623 656 597 l 828 559 b 590 758 814 678 733 758 b 334 499 437 758 334 654 b 590 240 334 344 437 240 z "},"®":{"ha":823,"x_min":0,"x_max":0,"o":"m 412 326 b 759 673 603 326 759 481 b 412 1020 759 865 603 1020 b 64 673 220 1020 64 865 b 412 326 64 481 220 326 z m 412 413 b 155 673 270 413 155 529 b 412 932 155 817 270 932 b 669 673 553 932 669 817 b 412 413 669 529 553 413 z m 265 494 l 372 494 l 372 625 l 426 625 b 457 586 445 625 454 610 l 467 494 l 571 494 l 562 586 b 532 650 557 618 548 638 b 570 739 555 669 570 701 b 435 852 570 806 515 852 l 265 852 z m 372 703 l 372 772 l 433 772 b 466 739 452 772 466 759 b 433 703 466 718 452 703 z "},"™":{"ha":1229,"x_min":0,"x_max":0,"o":"m 189 467 l 350 467 l 350 867 l 495 867 l 495 998 l 44 998 l 44 867 l 189 867 z m 562 467 l 701 467 l 701 744 l 802 467 l 907 467 l 1008 744 l 1008 467 l 1147 467 l 1147 998 l 964 998 l 854 696 l 745 998 l 562 998 z "},"ℓ":{"ha":815,"x_min":0,"x_max":0,"o":"m 408 0 l 620 0 l 620 182 l 444 182 b 395 238 411 182 395 204 l 395 339 l 418 339 b 755 702 627 339 755 492 b 458 1020 755 909 637 1020 b 161 745 279 1020 161 910 l 161 515 l 28 515 l 28 339 l 161 339 l 161 223 b 408 0 161 90 260 0 z m 395 515 l 395 745 b 458 844 395 805 420 844 b 520 702 496 844 520 805 b 418 515 520 597 499 515 z "},"℮":{"ha":1294,"x_min":0,"x_max":0,"o":"m 647 -22 b 1104 180 825 -22 994 52 l 1017 180 b 647 9 924 72 789 9 b 310 144 522 9 400 56 b 280 214 291 162 280 188 l 280 469 b 295 484 280 477 287 484 l 1226 484 l 1226 499 b 647 1020 1226 787 967 1020 b 68 499 327 1020 68 787 b 647 -22 68 212 327 -22 z m 295 513 b 280 528 287 513 280 519 l 280 784 b 310 854 280 810 291 837 b 647 989 401 940 522 989 b 984 854 772 989 892 940 b 1014 784 1003 837 1014 810 l 1014 528 b 999 513 1014 519 1007 513 z "},"|":{"ha":423,"x_min":0,"x_max":0,"o":"m 93 -282 l 331 -282 l 331 1039 l 93 1039 z "},"¦":{"ha":423,"x_min":0,"x_max":0,"o":"m 93 575 l 331 575 l 331 1039 l 93 1039 z m 93 -282 l 331 -282 l 331 182 l 93 182 z "},"†":{"ha":936,"x_min":0,"x_max":0,"o":"m 349 -282 l 587 -282 l 587 537 l 843 537 l 843 716 l 587 716 l 587 1039 l 349 1039 l 349 716 l 93 716 l 93 537 l 349 537 z "},"‡":{"ha":936,"x_min":0,"x_max":0,"o":"m 349 -282 l 587 -282 l 587 0 l 843 0 l 843 179 l 587 179 l 587 537 l 843 537 l 843 716 l 587 716 l 587 1039 l 349 1039 l 349 716 l 93 716 l 93 537 l 349 537 l 349 179 l 93 179 l 93 0 l 349 0 z "},"°":{"ha":651,"x_min":0,"x_max":0,"o":"m 326 457 b 607 739 481 457 607 583 b 326 1020 607 894 481 1020 b 44 739 170 1020 44 894 b 326 457 44 583 170 457 z m 326 613 b 211 739 262 613 211 669 b 326 864 211 808 262 864 b 439 739 389 864 439 808 b 326 613 439 669 389 613 z "},"^":{"ha":991,"x_min":0,"x_max":0,"o":"m 117 282 l 351 282 l 496 705 l 640 282 l 874 282 l 613 998 l 378 998 z "},"○":{"ha":1518,"x_min":0,"x_max":0,"o":"m 760 -195 b 1453 500 1144 -195 1453 115 b 760 1194 1453 883 1145 1194 b 64 500 376 1194 64 883 b 760 -195 64 115 376 -195 z m 760 -7 b 253 500 479 -7 253 219 b 760 1005 253 779 479 1005 b 1265 500 1040 1005 1265 779 b 760 -7 1265 219 1040 -7 z "},"●":{"ha":1518,"x_min":0,"x_max":0,"o":"m 760 -195 b 1453 500 1144 -195 1453 115 b 760 1194 1453 883 1144 1194 b 64 500 376 1194 64 883 b 760 -195 64 115 376 -195 z "},"□":{"ha":1531,"x_min":0,"x_max":0,"o":"m 93 -174 l 1438 -174 l 1438 1172 l 93 1172 z m 281 15 l 281 983 l 1250 983 l 1250 15 z "},"■":{"ha":1531,"x_min":0,"x_max":0,"o":"m 93 -174 l 1438 -174 l 1438 1172 l 93 1172 z "},"◊":{"ha":873,"x_min":0,"x_max":0,"o":"m 319 0 l 554 0 l 827 499 l 554 998 l 319 998 l 46 499 z m 437 203 l 281 499 l 437 795 l 592 499 z "},"↑":{"ha":1114,"x_min":0,"x_max":0,"o":"m 447 0 l 667 0 l 667 618 l 1056 214 l 1056 532 l 557 1031 l 58 532 l 58 214 l 447 618 z "},"↗":{"ha":947,"x_min":0,"x_max":0,"o":"m 183 67 l 677 562 l 677 67 l 892 67 l 892 932 l 27 932 l 27 718 l 522 718 l 27 222 z "},"→":{"ha":1160,"x_min":0,"x_max":0,"o":"m 279 0 l 596 0 l 1095 499 l 596 998 l 279 998 l 682 609 l 64 609 l 64 389 l 682 389 z "},"↘":{"ha":947,"x_min":0,"x_max":0,"o":"m 27 67 l 892 67 l 892 932 l 677 932 l 677 437 l 183 932 l 27 777 l 522 281 l 27 281 z "},"↓":{"ha":1114,"x_min":0,"x_max":0,"o":"m 556 -33 l 1056 467 l 1056 784 l 667 380 l 667 998 l 447 998 l 447 380 l 58 784 l 58 467 z "},"↙":{"ha":947,"x_min":0,"x_max":0,"o":"m 54 67 l 920 67 l 920 281 l 424 281 l 920 777 l 764 932 l 269 437 l 269 932 l 54 932 z "},"←":{"ha":1160,"x_min":0,"x_max":0,"o":"m 564 0 l 881 0 l 478 389 l 1095 389 l 1095 609 l 478 609 l 881 998 l 564 998 l 64 499 z "},"↖":{"ha":947,"x_min":0,"x_max":0,"o":"m 54 67 l 269 67 l 269 562 l 764 67 l 920 222 l 424 718 l 920 718 l 920 932 l 54 932 z "},"↔":{"ha":1869,"x_min":0,"x_max":0,"o":"m 565 0 l 882 0 l 479 389 l 1392 389 l 988 0 l 1305 0 l 1805 499 l 1305 998 l 988 998 l 1392 609 l 479 609 l 882 998 l 565 998 l 66 499 z "},"↕":{"ha":1114,"x_min":0,"x_max":0,"o":"m 557 -370 l 1056 129 l 1056 446 l 667 43 l 667 956 l 1056 552 l 1056 869 l 557 1369 l 58 869 l 58 552 l 447 956 l 447 43 l 58 446 l 58 129 z "},"´":{"ha":694,"x_min":0,"x_max":0,"o":"m 170 818 l 389 818 l 525 1053 l 306 1053 z "},"́":{"ha":0,"x_min":0,"x_max":0,"o":"m -121 818 l 98 818 l 234 1053 l 15 1053 z "},"`":{"ha":694,"x_min":0,"x_max":0,"o":"m 306 818 l 524 818 l 389 1053 l 170 1053 z "},"̀":{"ha":0,"x_min":0,"x_max":0,"o":"m -98 818 l 121 818 l -15 1053 l -234 1053 z "},"˘":{"ha":694,"x_min":0,"x_max":0,"o":"m 347 807 b 620 1042 511 807 620 901 l 473 1042 b 347 954 473 989 422 954 b 222 1042 272 954 222 989 l 75 1042 b 347 807 75 901 184 807 z "},"̆":{"ha":0,"x_min":0,"x_max":0,"o":"m 0 807 b 273 1042 163 807 273 901 l 125 1042 b 0 954 125 989 75 954 b -125 1042 -75 954 -125 989 l -273 1042 b 0 807 -273 901 -163 807 z "},"ˆ":{"ha":694,"x_min":0,"x_max":0,"o":"m 41 818 l 254 818 l 347 927 l 441 818 l 654 818 l 423 1053 l 271 1053 z "},"̂":{"ha":0,"x_min":0,"x_max":0,"o":"m -307 818 l -94 818 l 0 927 l 94 818 l 307 818 l 76 1053 l -76 1053 z "},"ˇ":{"ha":694,"x_min":0,"x_max":0,"o":"m 271 818 l 423 818 l 654 1053 l 441 1053 l 347 945 l 254 1053 l 41 1053 z "},"̌":{"ha":0,"x_min":0,"x_max":0,"o":"m -76 818 l 76 818 l 307 1053 l 94 1053 l 0 945 l -94 1053 l -307 1053 z "},"˚":{"ha":694,"x_min":0,"x_max":0,"o":"m 347 796 b 552 1001 470 796 552 878 b 347 1206 552 1122 471 1206 b 142 1001 224 1206 142 1124 b 347 796 142 878 224 796 z m 347 916 b 262 1001 296 916 262 949 b 347 1086 262 1052 296 1086 b 433 1001 399 1086 433 1051 b 347 916 433 949 399 916 z "},"̊":{"ha":0,"x_min":0,"x_max":0,"o":"m 0 796 b 205 1001 123 796 205 878 b 0 1206 205 1122 123 1206 b -205 1001 -123 1206 -205 1124 b 0 796 -205 878 -123 796 z m 0 916 b -85 1001 -52 916 -85 949 b 0 1086 -85 1052 -52 1086 b 85 1001 52 1086 85 1051 b 0 916 85 949 52 916 z "},"¨":{"ha":694,"x_min":0,"x_max":0,"o":"m 189 812 b 309 933 256 812 309 866 b 189 1054 309 1000 256 1054 b 68 933 121 1054 68 1000 b 189 812 68 866 121 812 z m 506 812 b 627 933 573 812 627 866 b 506 1054 627 1000 573 1054 b 385 933 439 1054 385 1000 b 506 812 385 866 439 812 z "},"̈":{"ha":0,"x_min":0,"x_max":0,"o":"m -159 812 b -38 933 -92 812 -38 866 b -159 1054 -38 1000 -92 1054 b -279 933 -226 1054 -279 1000 b -159 812 -279 866 -226 812 z m 159 812 b 279 933 226 812 279 866 b 159 1054 279 1000 226 1054 b 38 933 92 1054 38 1000 b 159 812 38 866 92 812 z "},"˝":{"ha":694,"x_min":0,"x_max":0,"o":"m 5 818 l 224 818 l 359 1053 l 141 1053 z m 335 818 l 553 818 l 690 1053 l 471 1053 z "},"̋":{"ha":0,"x_min":0,"x_max":0,"o":"m -285 818 l -66 818 l 70 1053 l -149 1053 z m 45 818 l 264 818 l 399 1053 l 180 1053 z "},"˜":{"ha":694,"x_min":0,"x_max":0,"o":"m 447 807 b 661 1042 575 807 661 901 l 514 1042 b 447 954 514 989 487 954 b 374 994 420 954 399 972 b 248 1053 342 1022 306 1053 b 34 818 119 1053 34 959 l 180 818 b 248 907 180 871 208 907 b 320 866 274 907 296 888 b 447 807 352 838 389 807 z "},"̃":{"ha":0,"x_min":0,"x_max":0,"o":"m 100 807 b 313 1042 228 807 313 901 l 167 1042 b 100 954 167 989 140 954 b 27 994 73 954 52 972 b -100 1053 -5 1022 -41 1053 b -313 818 -228 1053 -313 959 l -167 818 b -100 907 -167 871 -140 907 b -27 866 -73 907 -52 888 b 100 807 5 838 41 807 z "},"˙":{"ha":694,"x_min":0,"x_max":0,"o":"m 347 804 b 476 933 418 804 476 861 b 347 1062 476 1004 418 1062 b 218 933 276 1062 218 1004 b 347 804 218 861 276 804 z "},"̇":{"ha":0,"x_min":0,"x_max":0,"o":"m 0 804 b 129 933 71 804 129 861 b 0 1062 129 1004 71 1062 b -129 933 -71 1062 -129 1004 b 0 804 -129 861 -71 804 z "},"̣":{"ha":0,"x_min":0,"x_max":0,"o":"m 0 -346 b 129 -217 71 -346 129 -288 b 0 -88 129 -146 71 -88 b -129 -217 -71 -88 -129 -146 b 0 -346 -129 -288 -71 -346 z "},"¸":{"ha":694,"x_min":0,"x_max":0,"o":"m 202 -425 l 288 -425 b 492 -262 418 -425 492 -359 b 365 -108 492 -185 448 -128 b 335 -102 355 -105 345 -103 l 420 43 l 286 43 l 202 -99 l 202 -221 l 288 -221 b 346 -262 326 -221 346 -237 b 288 -302 346 -286 326 -302 l 202 -302 z "},"̧":{"ha":0,"x_min":0,"x_max":0,"o":"m -123 -425 l -37 -425 b 167 -262 93 -425 167 -359 b 39 -108 167 -185 122 -128 b 9 -102 30 -105 20 -103 l 95 43 l -40 43 l -123 -99 l -123 -221 l -37 -221 b 20 -262 1 -221 20 -237 b -37 -302 20 -286 1 -302 l -123 -302 z "},"̦":{"ha":0,"x_min":0,"x_max":0,"o":"m -92 -477 b 121 -332 45 -477 121 -425 l 121 -208 b 1 -88 121 -142 66 -88 b -121 -208 -66 -88 -121 -142 b 1 -329 -121 -275 -66 -329 b 16 -327 5 -329 12 -328 l 16 -332 b -92 -382 16 -363 -21 -382 z "},"̒":{"ha":0,"x_min":0,"x_max":0,"o":"m -1 812 b 121 932 66 812 121 867 b -1 1054 121 1000 66 1054 b -16 1052 -5 1054 -12 1053 l -16 1056 b 92 1106 -16 1088 21 1106 l 92 1201 b -121 1056 -45 1201 -121 1149 l -121 932 b -1 812 -121 867 -66 812 z "},"˛":{"ha":694,"x_min":0,"x_max":0,"o":"m 395 -425 l 481 -425 l 481 -302 l 395 -302 b 338 -250 357 -302 338 -282 b 370 -158 338 -224 349 -192 b 503 0 401 -111 447 -56 l 353 17 b 222 -139 283 -52 245 -95 b 191 -262 201 -177 191 -216 b 395 -425 191 -359 265 -425 z "},"̨":{"ha":0,"x_min":0,"x_max":0,"o":"m -108 -425 l -22 -425 l -22 -302 l -108 -302 b -165 -250 -146 -302 -165 -282 b -133 -158 -165 -224 -154 -192 b 0 0 -103 -111 -56 -56 l -151 17 b -281 -139 -220 -52 -258 -95 b -312 -262 -302 -177 -312 -216 b -108 -425 -312 -359 -239 -425 z "},"¯":{"ha":694,"x_min":0,"x_max":0,"o":"m 95 826 l 600 826 l 600 972 l 95 972 z "},"̄":{"ha":0,"x_min":0,"x_max":0,"o":"m -252 826 l 252 826 l 252 972 l -252 972 z "},"ˉ":{"ha":694,"x_min":0,"x_max":0,"o":"m 95 826 l 600 826 l 600 972 l 95 972 z "},"̷":{"ha":0,"x_min":0,"x_max":0,"o":"m -239 262 l 239 538 l 239 736 l -239 460 z "},"̸":{"ha":0,"x_min":0,"x_max":0,"o":"m -247 -22 l 331 666 l 246 738 l -332 50 z "},"̵":{"ha":0,"x_min":0,"x_max":0,"o":"m -167 396 l 460 396 l 460 602 l -167 602 z "},"̶":{"ha":0,"x_min":0,"x_max":0,"o":"m -429 713 l 429 713 l 429 895 l -429 895 z "},"ʼ":{"ha":694,"x_min":0,"x_max":0,"o":"m 240 555 b 489 724 401 555 489 615 l 489 878 b 348 1020 489 956 425 1020 b 205 878 269 1020 205 956 b 348 736 205 800 270 736 b 367 739 354 736 361 737 l 367 724 b 240 666 367 687 322 666 z "},"\r":{"ha":362,"x_min":0,"x_max":0,"o":""}," ":{"ha":362,"x_min":0,"x_max":0,"o":""}," ":{"ha":362,"x_min":0,"x_max":0,"o":""}," ":{"ha":694,"x_min":0,"x_max":0,"o":""}," ":{"ha":1389,"x_min":0,"x_max":0,"o":""}," ":{"ha":694,"x_min":0,"x_max":0,"o":""}}}
